<?xml version="1.0" encoding="utf-8"?>
<!-- Generator: Adobe Illustrator 27.2.0, SVG Export Plug-In . SVG Version: 6.00 Build 0)  -->
<svg version="1.1" id="uuid-bb4e9a60-43f0-4e71-8805-53e22ce3be77"
	 xmlns="http://www.w3.org/2000/svg" xmlns:xlink="http://www.w3.org/1999/xlink" x="0px" y="0px" viewBox="0 0 463.8 651.1"
	 style="enable-background:new 0 0 463.8 651.1;" xml:space="preserve">
<style type="text/css">
	.st0{clip-path:url(#SVGID_00000124163937116490399690000000788190099385652390_);}
	.st1{fill:#F9EABF;}
	.st2{fill:#E5874B;}
	.st3{fill:#FDCD71;}
	.st4{fill:#FAB741;}
	.st5{fill:#FFDFA6;}
	.st6{fill:#F49645;}
	.st7{fill:none;stroke:#4F3A17;stroke-width:1;stroke-miterlimit:9.9997;}
	.st8{fill:#FBBF57;}
	.st9{fill:#D25F3C;}
	.st10{fill:#FFFFFF;}
	.st11{fill:#F29064;}
	.st12{fill:#613B48;}
	.st13{fill:#F1B98A;}
	.st14{fill:#3B1429;}
	.st15{fill:none;stroke:#4B262F;stroke-width:1;stroke-miterlimit:9.9997;}
	.st16{fill:#4B262F;}
	.st17{fill:#76485D;}
	.st18{fill:#EC6533;}
	.st19{fill:none;stroke:#FFFFFF;stroke-width:0.75;stroke-miterlimit:9.9997;}
</style>
<g id="uuid-8ed3b595-474e-4a13-9de5-827a88d39b50">
	<g>
		<g>
			<defs>
				<rect id="SVGID_1_" y="0" width="463.8" height="651.1"/>
			</defs>
			<clipPath id="SVGID_00000114036204554454848100000001961469572666348932_">
				<use xlink:href="#SVGID_1_"  style="overflow:visible;"/>
			</clipPath>
			<g style="clip-path:url(#SVGID_00000114036204554454848100000001961469572666348932_);">
				<g>
					<rect y="0" class="st1" width="463.8" height="651.1"/>
					<path class="st2" d="M0,251.5c0,0,37.9-2.1,97.9,16.1c97.9,29.6,202.9,33.6,302.9,11.1c22.7-5.1,43.6-7.1,61.3-2.1
						c0,29.9,3.9,74,0,77.6c-3.9,3.6-462.1,0-462.1,0L0,251.5L0,251.5z"/>
					<rect y="246.5" class="st3" width="463.1" height="216.7"/>
					<path class="st4" d="M0,436.9c0,0,176.4-38.8,463.8,5.3v207.5H0V436.9L0,436.9z"/>
					<path class="st5" d="M0,551.5c0,0,237.7-33,463.8,0v99.6H0V551.5z"/>
					<g>
						<path class="st6" d="M60.3,618.6c-14.5-27.9,20.5-40.7,25.6-12.8c20-9.9,14.5,17.6,14.5,17.6s16.2-16.8,26.4,0
							c10.2,16.8-27.9,28.5-27.9,28.5l-46.4-0.7C11,628.8,33,600.3,60.3,618.6L60.3,618.6z"/>
						<line class="st7" x1="95" y1="618.4" x2="90.6" y2="639.2"/>
						<polyline class="st7" points="110.7,626.5 79,646.6 71.9,607.2 						"/>
						<line class="st7" x1="45.4" y1="626.9" x2="76.9" y2="635.1"/>
					</g>
					<g>
						<path class="st8" d="M16.2,630.3c-18.8-39.5,9.4-30.3,9.4-30.3s-4.7-33.1,9.4-20c14.3-32.3,46.9-12.5,22.4,28.7
							c6.2-4.9,38.3-4.1,6.6,25.6c14.5,13.6-18.8,30.3-18.8,30.3H21.3C-5.5,639.5,6,630.3,16.2,630.3L16.2,630.3z"/>
						<line class="st7" x1="51.6" y1="582.2" x2="30.5" y2="664.7"/>
						<line class="st7" x1="65.5" y1="617.2" x2="39.7" y2="628.9"/>
						<line class="st7" x1="51.6" y1="647.3" x2="33.5" y2="652.9"/>
						<line class="st7" x1="33.5" y1="590.6" x2="44.4" y2="610.4"/>
						<line class="st7" x1="19.9" y1="613.8" x2="36.3" y2="641.8"/>
					</g>
					<g>
						<path class="st8" d="M429.5,611.6c18.8-39.5-9.4-30.3-9.4-30.3s4.7-33.1-9.4-20c-14.3-32.3-46.9-12.5-22.4,28.7
							c-6.2-4.9-38.3-4.1-6.6,25.6c-14.5,13.6,18.8,35.5,18.8,35.5h25.4C452.7,626,439.7,611.6,429.5,611.6L429.5,611.6z"/>
						<line class="st7" x1="394.1" y1="563.6" x2="415.3" y2="646"/>
						<line class="st7" x1="380.2" y1="598.6" x2="406.1" y2="610.3"/>
						<line class="st7" x1="394.1" y1="628.7" x2="412.3" y2="634.3"/>
						<line class="st7" x1="412.3" y1="572" x2="401.3" y2="591.7"/>
						<line class="st7" x1="425.9" y1="595.2" x2="409.4" y2="623.1"/>
					</g>
					<g>
						<path class="st6" d="M426.8,605.5c-10-15.6-4.4-31,7.1-21c4.5-21.6,31.2-8.9,17.2,27.8c29.6,3.2-1.9,39.6-1.9,39.6l-23.4-0.7
							C402.7,629.3,407.6,595,426.8,605.5L426.8,605.5z"/>
						<line class="st7" x1="442.1" y1="590.7" x2="434.6" y2="644.6"/>
						<line class="st7" x1="453.4" y1="624.1" x2="436.2" y2="633"/>
						<line class="st7" x1="422.5" y1="614.8" x2="437.4" y2="624.5"/>
						<line class="st7" x1="429.8" y1="590.7" x2="440.6" y2="601.5"/>
					</g>
					<g>
						<path class="st9" d="M324.8,618.8c-12.6-11.8,13.6-32.3,24.4-6c0-24.7,42.2-16.8,29.4,5.6c27.3,4,3.3,32.7,3.3,32.7H324
							C292.5,640.4,306.9,608.6,324.8,618.8L324.8,618.8z"/>
						<polyline class="st7" points="366.2,608.6 348,640 334.4,613.8 						"/>
						<line class="st7" x1="380" y1="626.8" x2="357.1" y2="624.3"/>
						<line class="st7" x1="319.3" y1="626.8" x2="341.2" y2="626.8"/>
					</g>
					<path class="st10" d="M169.4,199.1h122.2c0,0-8.7-20.9-33.7-10.4c-32.7-21-53.6-1.5-53.6-1.5S194.5,175.6,169.4,199.1
						L169.4,199.1z"/>
					<path class="st10" d="M366.1,61.3h106.8c0,0-3.9-14.6-25-9.5c-24.7-17.4-48.1,3.1-48.1,3.1S387.1,46.6,366.1,61.3L366.1,61.3z"
						/>
					<path class="st10" d="M-33.1,59.3h89.5c0,0-9.6-19.3-34.6-9.7C-4.2,40.6-33.1,59.3-33.1,59.3z"/>
					<g>
						<path class="st6" d="M406.2,303.3c0,0,13.9,3,21.4-18c7.5-21,19.2-33-10.7-51s-44.9,10-37.4,28
							C386.9,280.3,376.2,303.3,406.2,303.3L406.2,303.3z"/>
						<line class="st7" x1="404.4" y1="243.9" x2="404.4" y2="329.6"/>
						<line class="st7" x1="415" y1="282.8" x2="404.2" y2="292.9"/>
						<line class="st7" x1="386" y1="253.2" x2="404.4" y2="270.5"/>
					</g>
					<g>
						<path class="st9" d="M32.8,400.8c0,0,13.9,3,21.4-18s19.2-33-10.7-51c-29.9-18-44.9,10-37.4,28
							C13.5,377.8,2.8,400.8,32.8,400.8L32.8,400.8z"/>
						<line class="st7" x1="31" y1="341.4" x2="31" y2="427.1"/>
						<line class="st7" x1="41.6" y1="380.3" x2="30.8" y2="390.4"/>
						<line class="st7" x1="12.6" y1="350.8" x2="31" y2="368"/>
					</g>
					<g>
						<path class="st11" d="M208,303c0,0,21.4,8.4,21.4-30.8s-10.6-59.2-26.7-55.2C186.7,220.9,166.4,295,208,303L208,303z"/>
						<line class="st7" x1="206.4" y1="233.5" x2="206.4" y2="329.8"/>
						<line class="st7" x1="218.7" y1="276.7" x2="206.4" y2="288.1"/>
						<line class="st7" x1="192.2" y1="253.5" x2="206.1" y2="266.5"/>
						<line class="st7" x1="212.6" y1="246.1" x2="206.6" y2="251.7"/>
					</g>
					<g>
						<path class="st9" d="M358.6,325.1c0,0,38.5-4.1,38.5-28.2s-26.7-22-26.7-36c0-14-46-30-46,17
							C324.4,301.9,304.1,325.1,358.6,325.1L358.6,325.1z"/>
						<line class="st7" x1="354.1" y1="262.6" x2="354.1" y2="351.2"/>
						<line class="st7" x1="376.7" y1="293.6" x2="354.2" y2="314.6"/>
						<line class="st7" x1="337.8" y1="287.9" x2="354" y2="303"/>
						<line class="st7" x1="362" y1="267.5" x2="354.1" y2="274.9"/>
					</g>
					<g>
						<path class="st6" d="M100.7,339.5c0,0,21.9,4.4,34.8-17.8c12.8-22.2-7.5-19.2-11.8-33.2c-4.3-14-25.7-23-39.6,0
							S72.4,328.5,100.7,339.5L100.7,339.5z"/>
						<line class="st7" x1="105" y1="285.1" x2="105" y2="370.8"/>
						<line class="st7" x1="119.7" y1="313.2" x2="105.4" y2="326.5"/>
						<line class="st7" x1="95" y1="301" x2="105.4" y2="310.7"/>
					</g>
					<g>
						<path class="st8" d="M412.7,401.2c0,0,21.9,4.4,34.8-17.8c12.8-22.2-7.5-19.2-11.8-33.2c-4.3-14-25.7-23-39.6,0
							C382.3,373.2,384.3,390.2,412.7,401.2L412.7,401.2z"/>
						<line class="st7" x1="417" y1="346.7" x2="417" y2="432.4"/>
						<line class="st7" x1="431.6" y1="374.8" x2="417.3" y2="388.2"/>
						<line class="st7" x1="406.9" y1="362.6" x2="417.3" y2="372.4"/>
					</g>
					<g>
						<path class="st5" d="M174.3,356.4c0,0,30.1,18.1,37.4-22.6c7.2-40.6-17.5-60.4-43.4-36.1C142.4,322,155.6,338.9,174.3,356.4
							L174.3,356.4z"/>
						<line class="st7" x1="187.2" y1="304" x2="187.2" y2="392.7"/>
						<line class="st7" x1="205" y1="317.3" x2="187.2" y2="334.1"/>
						<line class="st7" x1="166.1" y1="327.3" x2="187.2" y2="347"/>
						<line class="st7" x1="178.4" y1="311.8" x2="187.2" y2="320"/>
					</g>
					<g>
						<path class="st8" d="M54,303.2c0,0,30.1,18.1,37.4-22.6c7.2-40.6-17.5-60.4-43.4-36.1C22,268.8,35.3,285.7,54,303.2L54,303.2z
							"/>
						<line class="st7" x1="66.8" y1="250.9" x2="66.8" y2="339.5"/>
						<line class="st7" x1="84.7" y1="264.2" x2="66.8" y2="280.9"/>
						<line class="st7" x1="45.8" y1="274.1" x2="66.8" y2="293.8"/>
						<line class="st7" x1="58.1" y1="258.6" x2="66.8" y2="266.8"/>
					</g>
					<g>
						<path class="st11" d="M286.2,374.9c0,0,30.1,18.1,37.4-22.6c7.2-40.6-17.5-60.4-43.4-36.1
							C254.2,340.5,267.5,357.4,286.2,374.9L286.2,374.9z"/>
						<line class="st7" x1="299" y1="322.6" x2="299" y2="411.2"/>
						<line class="st7" x1="316.9" y1="335.9" x2="299" y2="352.6"/>
						<line class="st7" x1="278" y1="345.8" x2="299" y2="365.5"/>
						<line class="st7" x1="290.2" y1="330.3" x2="299" y2="338.5"/>
					</g>
					<path class="st10" d="M276.6,44.9h89.5c0,0-9.6-19.3-34.6-9.7C305.5,26.2,276.6,44.9,276.6,44.9z"/>
					<path class="st10" d="M272.1,217.9h54.5c0,0-6.4-9.8-24.2-4.9C285,203.3,272.1,217.9,272.1,217.9z"/>
					<path class="st10" d="M18.5,105.7H73c0,0-6.4-9.8-24.2-4.9C31.4,91.1,18.5,105.7,18.5,105.7z"/>
				</g>
			</g>
		</g>
		<g>
			<path class="st12" d="M205.5,419.4c0,0-19.4,4.8-16.1,23.8c3.6,20.4,27.1,47.7,27.1,47.7l-6.8,33.6l-10.1,28.8l5.9,3.3
				c0,0,8.3-12.7,16.8-28.1c8.2-15,16.6-32.6,17.5-43.6C241.8,462.7,205.5,419.4,205.5,419.4L205.5,419.4z"/>
			<path class="st13" d="M255.2,376c0,0,1.4,1.9,0.6,7.4c0.8,4.5,2.4,7.6-1.1,7.2c-0.7,4.8-3.1,7-12.1,5.1c-7.1-1.5-8-12-3.5-19.3
				C243.6,369.1,252.7,370.3,255.2,376L255.2,376z"/>
			<polygon class="st13" points="238.4,390.7 232.7,399.3 239.8,404.6 246.6,395.7 			"/>
			<path class="st14" d="M199.7,553.2l5.9,3.3c0,0,8.1,4.5,5.4,11.2l-14.8-9.9L199.7,553.2L199.7,553.2z"/>
			<ellipse class="st15" cx="153.7" cy="543.8" rx="51.8" ry="48.5"/>
			<ellipse class="st15" cx="310.1" cy="543.8" rx="51.8" ry="48.5"/>
			<polygon class="st15" points="228.2,543.8 153.7,543.8 193.9,480 285.1,480 310.1,543.8 			"/>
			<path class="st15" d="M180.2,453.4l46.7,90.4l58.2-63.8l-9.6-26.6c0,0,24.2-4.3,24.2,3.8s-9.9,8-9.9,8"/>
			<path class="st16" d="M191.9,459.1h-22.2c-2,0-3.6-1.5-3.6-3.4l0,0c0-1.9,1.6-3.4,3.6-3.4h22.2c2,0,3.6,1.5,3.6,3.4l0,0
				C195.5,457.5,193.9,459.1,191.9,459.1z"/>
			<path class="st13" d="M292.7,449.1c0,0,10.8,1.6,6.9,8.1c-5-1.6-11.2-5.3-11.2-5.3L292.7,449.1L292.7,449.1z"/>
			<path class="st14" d="M224,526.8l5.9,2.5c0,0,8.9,2.9,7.7,10l-16.6-6.9L224,526.8z"/>
			<path class="st16" d="M149.4,543.8c0,2.2,1.9,4.1,4.3,4.1s4.3-1.8,4.3-4.1s-1.9-4.1-4.3-4.1S149.4,541.6,149.4,543.8z"/>
			<path class="st16" d="M305.7,543.8c0,2.2,1.9,4.1,4.3,4.1c2.4,0,4.3-1.8,4.3-4.1s-1.9-4.1-4.3-4.1
				C307.7,539.8,305.7,541.6,305.7,543.8z"/>
			<path class="st16" d="M237.6,540l-17.3-7c-0.4-0.2-0.6-0.7-0.4-1.1l0,0c0.2-0.4,0.7-0.6,1.1-0.4l17.3,7c0.4,0.2,0.6,0.7,0.4,1.1
				l0,0C238.5,540,238,540.2,237.6,540z"/>
			<path class="st16" d="M210.2,567.9l-15.6-9.9c-0.4-0.3-0.5-0.8-0.2-1.1l0,0c0.3-0.4,0.8-0.5,1.2-0.2l15.6,9.9
				c0.4,0.3,0.5,0.8,0.2,1.1l0,0C211.1,568,210.5,568.1,210.2,567.9z"/>
			<polyline class="st15" points="202.8,562.3 226.9,543.8 229.3,535.8 			"/>
			<path class="st17" d="M192.3,422.6c0,0-36.3,19.7,3,37.1l44,17.1l-6.6,28l-8.7,21.9l6.2,2.5c0,0,8.2-10.9,16.2-23.8
				c6.7-10.9,13.4-23.2,14.8-31.7C264.5,455.1,192.3,422.6,192.3,422.6L192.3,422.6z"/>
			<path class="st18" d="M242.4,400.7c-10.3-9.7-23-4.1-32.9,3.9l0,0c0,0-28.3,20.5-37.3,35.9c20.6,14.4,52.5-1.3,52.5-1.3
				l12.2-17.3C244.3,414.9,249.1,407,242.4,400.7L242.4,400.7z"/>
			<path class="st18" d="M247.5,436.3c0,0-29.6-29.4-12.9-36.6c8.8-3.7,25.3,32.3,25.3,32.3l32.8,17l-1,3.2
				C291.7,452.3,256.3,447.9,247.5,436.3L247.5,436.3z"/>
			<path class="st14" d="M238.5,395.6c0,0-4.4-0.9-6.4-6.3c-2-5.4-0.4-13.4,6.4-17.5c5.5-3.9,17.9-3.1,17.9,7.5
				c0,2.7-7.4,3.3-7.4,3.3S242,396.4,238.5,395.6L238.5,395.6z"/>
			<path class="st13" d="M247.1,386.1c0,0-0.3-2.1-3.1-2.1c-2.8,0-2.5,5.3,1.5,6.1"/>
			<path class="st14" d="M246.6,384.5c0,0,1.8,5.7-1.8,13.6c4.3,4.1,8.8,1.6,10.1-2.5c1.3-4,0.3-4.9,0.3-4.9s-7.5-0.1-6.6-7"/>
			<path class="st19" d="M237.7,400.2c0,0-11.5,3.6-2.6,20.9"/>
		</g>
	</g>
</g>
</svg>
