<?xml version="1.0" encoding="utf-8"?>
<!-- Generator: Adobe Illustrator 27.2.0, SVG Export Plug-In . SVG Version: 6.00 Build 0)  -->
<svg version="1.1" id="uuid-8d083b06-14c9-4e0a-9ca7-8e52d20c65e3"
	 xmlns="http://www.w3.org/2000/svg" xmlns:xlink="http://www.w3.org/1999/xlink" x="0px" y="0px" viewBox="0 0 444.7 657.7"
	 style="enable-background:new 0 0 444.7 657.7;" xml:space="preserve">
<style type="text/css">
	.st0{clip-path:url(#SVGID_00000176009146242914259720000004368096395701066404_);}
	.st1{fill:#FAD2D0;}
	.st2{fill:#EE7171;}
	.st3{fill:#F5A8A3;}
	.st4{fill:#97D1CD;}
	.st5{fill:#4CB4AB;}
	.st6{fill:#FCE1D5;}
	.st7{fill:#E2939E;}
	.st8{fill:none;stroke:#621313;stroke-width:1;stroke-miterlimit:9.9999;}
	.st9{fill:#C25E5D;}
	.st10{fill:#E6B6D0;}
	.st11{fill:#F18C85;}
	.st12{fill:#FFFFFF;}
	.st13{fill:#D36968;}
	.st14{fill:none;stroke:#6ABAB3;stroke-width:1;stroke-miterlimit:9.9999;}
	.st15{fill:none;stroke:#4CB4AB;stroke-width:1;stroke-miterlimit:9.9999;}
	.st16{fill:#F1B98A;}
	.st17{fill:none;stroke:#4B262F;stroke-width:1;stroke-miterlimit:9.9999;}
	.st18{fill:#4B262F;}
	.st19{fill:#0F9083;}
</style>
<g id="uuid-cc4f861b-452c-422a-942f-8e5f24dd1a61">
	<g>
		<g>
			<defs>
				<rect id="SVGID_1_" width="444.7" height="657.7"/>
			</defs>
			<clipPath id="SVGID_00000174580665806436880470000006570472388560819388_">
				<use xlink:href="#SVGID_1_"  style="overflow:visible;"/>
			</clipPath>
			<g style="clip-path:url(#SVGID_00000174580665806436880470000006570472388560819388_);">
				<g>
					<rect class="st1" width="444.7" height="657.7"/>
					<ellipse class="st2" cx="222.4" cy="265.3" rx="88.9" ry="87.7"/>
					<path class="st3" d="M0,226.7c0,0,36.3-1.8,93.8,14c93.9,25.7,194.5,29.3,290.4,9.6c21.8-4.5,41.8-6.2,58.8-1.8
						c0,26,3.7,64.4,0,67.5C439.3,319.2,0,316,0,316L0,226.7L0,226.7z"/>
					<rect y="296.5" class="st4" width="444" height="227.4"/>
					<rect y="388.8" class="st5" width="444" height="74.1"/>
					<path class="st6" d="M0,441.8c0,0,169.1-39.4,444.7,5.4v210.6H0V441.8z"/>
					<g>
						<g>
							<path class="st7" d="M367.7,566.7c0,0-28.3-8.7-28-28.5c0.3-19.7,14.9-18,9.7-36.2c-5.1-18.2-2.9-35.1,16.6-24.2
								c19.5,10.8,3.8,38.3,20.5,47.6c16.7,9.3,1.6,35.7,1.6,35.7L367.7,566.7L367.7,566.7z"/>
							<line class="st8" x1="358.2" y1="491.5" x2="379" y2="565.5"/>
							<line class="st8" x1="350.7" y1="541.2" x2="376.1" y2="555"/>
							<line class="st8" x1="383" y1="532.3" x2="373.8" y2="548.3"/>
							<line class="st8" x1="356.5" y1="523.7" x2="369.3" y2="530.8"/>
							<line class="st8" x1="371.2" y1="502.2" x2="364.5" y2="513.8"/>
							<line class="st8" x1="354.6" y1="500.1" x2="362.1" y2="504.3"/>
							<line class="st8" x1="366.6" y1="485.9" x2="359.5" y2="498.2"/>
						</g>
						<g>
							<path class="st9" d="M406.6,562.1c0,0-25.6-12.8-19.6-36.8c6-24.1-1.3-25.7-10.7-46.6c-9.5-20.9,24.8-13.1,17.6-30.8
								s3.4-30.4,11.9-24.5c8.5,5.9,5.1,32.8,18.6,37.6c13.4,4.8,16.3,14.5,12.1,38.8c-4.1,24.3,26.9,16.6,6.9,56.1
								C422.3,559.5,406.6,562.1,406.6,562.1L406.6,562.1z"/>
							<line class="st8" x1="401.9" y1="442.7" x2="422.5" y2="560.7"/>
							<line class="st8" x1="385" y1="472.1" x2="410.3" y2="489.7"/>
							<line class="st8" x1="429.6" y1="478.6" x2="412.3" y2="502.7"/>
							<line class="st8" x1="394.2" y1="528.1" x2="419.9" y2="546"/>
							<line class="st8" x1="431.1" y1="518.6" x2="418.2" y2="536.6"/>
						</g>
						<g>
							<path class="st10" d="M81.5,524.9C73,508.2,99.1,465,95.3,457.6c-3.8-7.4-18-13.2-26.3,11.7s-13.4,14-31.8,35.4
								s4.5,47.7,4.5,47.7l15.7,5.1C71.9,555.5,90,541.6,81.5,524.9L81.5,524.9z"/>
							<line class="st8" x1="80.8" y1="465.4" x2="50.1" y2="557"/>
							<line class="st8" x1="43.1" y1="515.5" x2="55.7" y2="540.1"/>
							<line class="st8" x1="58" y1="496.4" x2="65.4" y2="510.9"/>
							<line class="st8" x1="71.6" y1="524.8" x2="58.6" y2="531.2"/>
						</g>
						<g>
							<path class="st11" d="M-0.4,560.9c0,0-21.6-21.2-9.2-45s0-29.6,14.5-50.5c14.5-20.8,9-43,30.2-40.9s9.3,37.8,12.5,53.3
								c3.2,15.5-10.4,33.1-0.8,56.2c9.6,23-10.1,30.5-10.1,30.5L-0.4,560.9L-0.4,560.9z"/>
							<line class="st8" x1="30.5" y1="441.5" x2="18.4" y2="564.5"/>
							<line class="st8" x1="10" y1="475.1" x2="25.2" y2="493.2"/>
							<line class="st8" x1="41.7" y1="459.1" x2="27.4" y2="470.8"/>
							<line class="st8" x1="36.9" y1="507.3" x2="22.5" y2="519"/>
							<line class="st8" x1="-3.5" y1="524.8" x2="19.3" y2="552.1"/>
						</g>
					</g>
					<path class="st3" d="M0,557.1c0,0,227.9-33.3,444.7,0v100.6H0V557.1z"/>
					<path class="st12" d="M-10.4,49.3h117.1c0,0-8.3-21.1-32.3-10.5c-31.4-21.2-51.4-1.5-51.4-1.5S13.6,25.6-10.4,49.3z"/>
					<path class="st12" d="M28.9,200.2h85.8c0,0-9.2-19.5-33.2-9.8C56.6,181.3,28.9,200.2,28.9,200.2z"/>
					<path class="st12" d="M309.7,34.4H362c0,0-6.1-9.9-23.2-5C322.1,19.7,309.7,34.4,309.7,34.4z"/>
					<path class="st12" d="M371.5,21.8h52.3c0,0-6.1-9.9-23.2-5C383.9,7.1,371.5,21.8,371.5,21.8z"/>
					<path class="st12" d="M100.2,216.2h52.3c0,0-6.1-9.9-23.2-5C112.6,201.5,100.2,216.2,100.2,216.2z"/>
					<path class="st12" d="M276.1,233.1h141.6c0,0-15.3-25-40.8-12.5c-33.2-20.2-49.7,1.4-49.7,1.4S304.2,213,276.1,233.1
						L276.1,233.1z"/>
					<g>
						<g>
							<path class="st11" d="M78,618.4c-13.9-28.2,19.6-41.1,24.5-12.9c19.2-10,13.9,17.7,13.9,17.7s15.5-16.9,25.4,0
								c9.8,16.9-23.9,34.5-23.9,34.5H70.1C30.2,635.1,51.8,599.8,78,618.4L78,618.4z"/>
							<line class="st8" x1="111.3" y1="618.1" x2="107.1" y2="639.2"/>
							<polyline class="st8" points="126.3,626.3 95.9,646.6 89.1,606.9 							"/>
							<line class="st8" x1="63.8" y1="626.7" x2="93.9" y2="635"/>
						</g>
						<g>
							<path class="st13" d="M315.9,626.3c-12.1-11.9,13.1-32.6,23.4-6c0-25,40.4-16.9,28.2,5.6c26.2,4,1.8,31.8,1.8,31.8h-56.5
								C274.7,639.1,298.8,616.1,315.9,626.3L315.9,626.3z"/>
							<polyline class="st8" points="355.6,616.1 338.2,647.7 325.2,621.2 							"/>
							<line class="st8" x1="368.9" y1="634.5" x2="346.9" y2="631.9"/>
							<line class="st8" x1="310.7" y1="634.5" x2="331.7" y2="634.5"/>
						</g>
						<g>
							<path class="st4" d="M6,657.7c0,0-24.9-20.9-19.2-39.9C-7.6,598.9,6,604.5,6,585.6c0-18.9,6.8-34.5,22.6-18.9
								c15.8,15.6-6.8,37.9,6.8,51.3c13.6,13.4-5.6,39.9-5.6,39.9H6z"/>
							<line class="st8" x1="17.2" y1="575.9" x2="17.2" y2="657.7"/>
							<line class="st8" x1="-3.5" y1="621.8" x2="17.2" y2="641.8"/>
							<line class="st8" x1="30" y1="621.8" x2="16.8" y2="634.7"/>
							<line class="st8" x1="6.8" y1="606.5" x2="17.2" y2="616.7"/>
							<line class="st8" x1="26.8" y1="589.6" x2="17.2" y2="599.1"/>
							<line class="st8" x1="11.4" y1="583.2" x2="17.5" y2="589.2"/>
							<line class="st8" x1="26.8" y1="572.7" x2="16.6" y2="582.7"/>
						</g>
						<g>
							<path class="st13" d="M72,610c-6.4-13.5,15.9-39.9,4.1-44.1S52.5,576.9,34.8,608c-17.7,31.1-9.9,65.1-9.9,65.1l14.6,5.2
								C62.3,667.7,78.5,623.5,72,610L72,610z"/>
							<line class="st8" x1="67.3" y1="580.2" x2="32.3" y2="675.7"/>
							<line class="st8" x1="32.4" y1="630.1" x2="41.8" y2="649.7"/>
							<line class="st8" x1="64.8" y1="624" x2="48.4" y2="631.6"/>
							<line class="st8" x1="49.6" y1="595.7" x2="56.3" y2="609.9"/>
						</g>
						<g>
							<path class="st4" d="M388,672.7c0,0-14.6-8.8-14.6-26.3c0-24.8-4.6-25.3-16.8-44.8c-12.2-19.5,22.9-16.2,13.3-32.8
								c-9.6-16.6-0.7-30.6,8.6-25.8s9.4,31.9,23.4,34.9c13.9,3,18,12.3,17.2,36.9c-0.9,24.6,28.9,13,14.2,54.7
								C412.9,675.8,388,672.7,388,672.7L388,672.7z"/>
							<line class="st8" x1="376.6" y1="561" x2="412.7" y2="675.3"/>
							<line class="st8" x1="363.8" y1="592.3" x2="391.3" y2="606.5"/>
							<line class="st8" x1="408.9" y1="593" x2="395" y2="619.1"/>
							<line class="st8" x1="380.3" y1="646.6" x2="408.2" y2="661"/>
							<line class="st8" x1="415.7" y1="632.4" x2="405.3" y2="652"/>
						</g>
						<g>
							<path class="st5" d="M445.4,621.6c-13.4-13.2-2.4-62.3-8.3-68.1c-5.9-5.8-21.3-7-21.3,19.3s-8.3,17.4-18.9,43.4
								c-10.6,26,19.5,43.9,19.5,43.9H433C445.9,653.6,458.8,634.8,445.4,621.6L445.4,621.6z"/>
							<line class="st8" x1="425.7" y1="563.5" x2="425.7" y2="660"/>
							<line class="st8" x1="405.9" y1="622.8" x2="425.7" y2="642.2"/>
							<line class="st8" x1="414" y1="600" x2="425.7" y2="611.5"/>
							<line class="st8" x1="435.9" y1="622.8" x2="425.7" y2="632.9"/>
						</g>
					</g>
					<g>
						<line class="st14" x1="7.9" y1="366.9" x2="169.4" y2="366.9"/>
						<line class="st14" x1="71.8" y1="359.5" x2="233.3" y2="359.5"/>
						<line class="st14" x1="192.8" y1="316.3" x2="354.3" y2="316.3"/>
						<line class="st14" x1="16.8" y1="306.2" x2="178.3" y2="306.2"/>
						<line class="st14" x1="256.7" y1="308.9" x2="418.2" y2="308.9"/>
						<line class="st14" x1="275.7" y1="339.9" x2="437.3" y2="339.9"/>
					</g>
				</g>
			</g>
		</g>
		<g>
			<g>
				<path class="st12" d="M123.3,498l-5.4-37.7c0,0,18.7-10.1,45.1,0c-4.7,29.5-5.6,37.7-5.6,37.7L123.3,498L123.3,498z"/>
				<line class="st15" x1="121.1" y1="464.8" x2="159.8" y2="464.8"/>
				<line class="st15" x1="119.7" y1="473.2" x2="161" y2="473.2"/>
				<line class="st15" x1="120.9" y1="481.6" x2="159.7" y2="481.6"/>
				<line class="st15" x1="122.2" y1="490.7" x2="158.4" y2="490.7"/>
				<line class="st15" x1="118.5" y1="464.8" x2="162.3" y2="464.8"/>
				<path class="st15" d="M129.9,464.8c0,0-2.8-20.2,10.6-20.2s11.3,20.2,11.3,20.2"/>
			</g>
			<path class="st16" d="M244.7,379.8c0,0,1.3,1.9,0.5,7.5c0.8,4.6,2.3,7.7-1,7.2c-0.7,4.9-3,7.1-11.6,5.2
				c-6.8-1.5-7.7-12.1-3.4-19.5C233.5,372.8,242.3,374,244.7,379.8L244.7,379.8z"/>
			<polygon class="st16" points="228.6,394.6 223.1,403.3 229.9,408.7 236.4,399.7 			"/>
			<path class="st12" d="M212.5,542.1l5.4,2.9c0,0,8.3,3.6,6.5,10.6l-15.3-8.2L212.5,542.1L212.5,542.1z"/>
			<path class="st16" d="M190.6,434.9c0,0-36.2,17.1-0.1,37.6l44.2,22.3l-22.2,47.4l5.7,3c0,0,29.5-35.1,34.1-53.6
				C256.9,473,190.5,434.9,190.6,434.9L190.6,434.9z"/>
			<ellipse class="st17" cx="147.4" cy="549.3" rx="49.7" ry="49"/>
			<ellipse class="st17" cx="297.3" cy="549.3" rx="49.7" ry="49"/>
			<polygon class="st17" points="218.8,549.3 147.4,549.3 186,484.9 273.4,484.9 297.3,549.3 			"/>
			<path class="st18" d="M224.4,556.5l-15.9-8.4c-0.4-0.2-0.6-0.7-0.3-1.1l0,0c0.2-0.4,0.7-0.5,1.1-0.3l15.9,8.4
				c0.4,0.2,0.6,0.7,0.3,1.1l0,0C225.3,556.5,224.8,556.7,224.4,556.5z"/>
			<path class="st17" d="M172.8,458l44.8,91.4l55.8-64.5l-9.2-26.9c0,0,23.2-4.3,23.2,3.8c0,8.1-9.5,8.1-9.5,8.1"/>
			<path class="st18" d="M184,463.7h-21.3c-1.9,0-3.5-1.5-3.5-3.4l0,0c0-1.9,1.6-3.4,3.5-3.4H184c1.9,0,3.5,1.5,3.5,3.4l0,0
				C187.5,462.2,185.9,463.7,184,463.7z"/>
			<path class="st16" d="M280.7,453.6c0,0,10.3,1.6,6.7,8.2c-4.8-1.6-10.8-5.4-10.8-5.4L280.7,453.6L280.7,453.6z"/>
			<path class="st16" d="M184.1,428.2c0,0,32.5-40.3,48.3-23.4c14.3,15.2-30.9,37.3-30.9,37.3L184.1,428.2L184.1,428.2z"/>
			<path class="st18" d="M143.2,549.3c0,2.3,1.9,4.1,4.2,4.1c2.3,0,4.2-1.8,4.2-4.1s-1.9-4.1-4.2-4.1
				C145.1,545.2,143.2,547.1,143.2,549.3z"/>
			<path class="st12" d="M176.5,434.9c0,0,19.6-23.6,33.9-30.2c15.5,11.2,20.6,22.8,20.6,22.8s-17,13.3-26.8,15.2
				C197,444.1,176.5,434.9,176.5,434.9L176.5,434.9z"/>
			<path class="st18" d="M293.2,549.3c0,2.3,1.9,4.1,4.2,4.1s4.2-1.8,4.2-4.1s-1.9-4.1-4.2-4.1S293.2,547.1,293.2,549.3z"/>
			<path class="st16" d="M237.3,440.7c0,0-20.1-32-12.3-37c7.8-4.9,24.3,32.7,24.3,32.7l31.4,17.2l-1,3.2
				C279.7,456.8,245.8,452.5,237.3,440.7L237.3,440.7z"/>
			<polyline class="st17" points="230.5,566.5 217.6,549.3 210.8,549.3 			"/>
			<path class="st12" d="M224.4,558.9l6.5,1.2c0,0,8.9,1.6,8.8,8.8l-16.8-4.4L224.4,558.9L224.4,558.9z"/>
			<path class="st16" d="M184.1,428.2c0,0-18.3,13.1-8.4,30c10.6,18.1,41.5,36.1,41.5,36.1l7.2,64.6l6.5,1.2c0,0,11.3-57.5,5.1-79.1
				C229.7,459.4,184.1,428.2,184.1,428.2L184.1,428.2z"/>
			<path class="st18" d="M239.1,569.3l-17.6-4.2c-0.4-0.1-0.7-0.5-0.6-1l0,0c0.1-0.4,0.6-0.7,1-0.6l17.6,4.2c0.4,0.1,0.7,0.5,0.6,1
				l0,0C240,569.2,239.5,569.4,239.1,569.3z"/>
			<path class="st12" d="M184.1,428.2c0,0-28.3,15.4,0,45.1c28.3,29.8,22.2,65.9,22.2,65.9s29-11.9,36.7-38.9
				C250.7,473.4,222.2,448.1,184.1,428.2L184.1,428.2z"/>
			<path class="st19" d="M237.8,373.5c0,0-11.2-3.2-18.1,10.6c-6.9,13.8-35.7-15.4-44.2,6c-28.6,3.2-25.6,19.7-16.3,23.6
				c-12.4,12.3,14,32.7,34.4,16.7c12.8,10,27.9,6.6,35-18.5c4-12.4,1.9-26.6,9.1-27.6c6.7,3.4,10.6-0.4,10.6-0.4
				S248.3,373.5,237.8,373.5L237.8,373.5z"/>
			<polygon class="st17" points="178.5,469 113.6,469 121.6,500.4 174.4,500.4 			"/>
			<line class="st17" x1="115.8" y1="477.6" x2="177.4" y2="477.6"/>
			<line class="st17" x1="118.1" y1="488.4" x2="176.2" y2="488.4"/>
			<polygon class="st18" points="120.5,496.1 175,496.1 174.4,500.4 121.6,500.4 			"/>
			<line class="st17" x1="125.9" y1="469" x2="125.9" y2="498.2"/>
			<line class="st17" x1="140.4" y1="469" x2="140.4" y2="498.2"/>
			<line class="st17" x1="155" y1="469" x2="155" y2="498.2"/>
			<line class="st17" x1="169.6" y1="469" x2="169.6" y2="498.2"/>
		</g>
	</g>
</g>
</svg>
