<?xml version="1.0" encoding="UTF-8"?><svg id="uuid-acb3a48c-a9ff-4a0a-b100-08812b7fa6a5" xmlns="http://www.w3.org/2000/svg" width="150.81mm" height="225.7mm" xmlns:xlink="http://www.w3.org/1999/xlink" viewBox="0 0 427.48 639.78"><defs><style>.uuid-0490e819-dc35-4ce3-b146-34a6f7846965{fill:#fff;}.uuid-213a1b19-9eac-4101-9036-084ed7590b7b{stroke:#133658;}.uuid-213a1b19-9eac-4101-9036-084ed7590b7b,.uuid-2f529a92-d473-4fc4-88b9-1ddaf050fde2,.uuid-237760f0-b7db-4f7c-b02b-27ff33f1b8ac{stroke-miterlimit:10;}.uuid-213a1b19-9eac-4101-9036-084ed7590b7b,.uuid-2f529a92-d473-4fc4-88b9-1ddaf050fde2,.uuid-237760f0-b7db-4f7c-b02b-27ff33f1b8ac,.uuid-769dec91-3306-4bc6-862d-8c78f8cc12d4{fill:none;}.uuid-b2972923-dd4b-4146-87aa-d60b51efdc3b{fill:#b6d3f0;}.uuid-b608e4ca-b594-4add-8351-3d679192e72d{fill:#133658;}.uuid-83c0ac73-8e5f-476a-a6ce-151172fbd552{fill:#f1b98a;}.uuid-2f529a92-d473-4fc4-88b9-1ddaf050fde2,.uuid-237760f0-b7db-4f7c-b02b-27ff33f1b8ac{stroke:#fff;}.uuid-f45126a7-1b60-47e2-940d-15d7d6bcae27{clip-path:url(#uuid-91dc0bf6-3952-4a7a-baee-543523aa64de);}.uuid-237760f0-b7db-4f7c-b02b-27ff33f1b8ac{stroke-width:.75px;}.uuid-9fd07c57-6073-49c3-b9f0-d4eaf50d12d1{fill:#aad5e4;}.uuid-db007558-c46f-4418-b82b-a1fed08738be{fill:#0078ae;}.uuid-7b064cdb-c6d2-4dde-bd9e-76c4a4f2a805{fill:#56c4f0;}.uuid-02671351-dc75-4a54-92d0-afbbb7ce1c01{fill:#3c4d9c;}.uuid-e8d43c7b-7be7-4861-975a-f332aa5808fb{fill:#c5e4f3;}.uuid-74b99c85-b81e-4a7e-80e6-26d3787607f7{fill:#def1fa;}.uuid-056863a8-b2a9-49e5-99af-31f948bda8f0{fill:#c8e7f6;}.uuid-3afda937-5c08-4f64-86d3-75e90a3ce8d6{fill:#5b8ac8;}.uuid-786dfa89-8001-49c4-b34e-a67b79c6b747{fill:#ec665b;}.uuid-c70f7556-7595-42a4-86fd-ca885321d429{fill:#c9e8f7;}.uuid-d9fc1087-f396-495b-b1b0-ae38dd2669b4{fill:#a7dbf2;}.uuid-a1e70487-987a-457e-9d8e-400b7e803bf7{fill:#0d87bb;}</style><clipPath id="uuid-91dc0bf6-3952-4a7a-baee-543523aa64de"><rect class="uuid-769dec91-3306-4bc6-862d-8c78f8cc12d4" x=".55" width="425.2" height="637.8"/></clipPath></defs><g id="uuid-6f135fee-55ac-4f3d-a5d7-db302ff94165"><g><g class="uuid-f45126a7-1b60-47e2-940d-15d7d6bcae27"><g><rect class="uuid-056863a8-b2a9-49e5-99af-31f948bda8f0" x=".55" width="425.2" height="637.8"/><path class="uuid-0490e819-dc35-4ce3-b146-34a6f7846965" d="M113.46,203.94h97.89s-3.53-14.29-22.93-9.26c-22.67-17.04-44.09,3.06-44.09,3.06,0,0-11.64-8.25-30.87,6.2Z"/><path class="uuid-0490e819-dc35-4ce3-b146-34a6f7846965" d="M267.08,234.56h82.02s-8.82-18.92-31.75-9.46c-23.81-8.87-50.27,9.46-50.27,9.46Z"/><g><path class="uuid-9fd07c57-6073-49c3-b9f0-d4eaf50d12d1" d="M23.52,270.06S.93,251.6,10.53,227.52c9.6-24.08-2.82-28.6,9.03-50.05s4.52-42.31,24.84-42.31,12.42,35.62,16.94,50.26c4.52,14.64-6.78,32.92,4.52,54.27,11.29,21.35-6.78,30.38-6.78,30.38H23.52Z"/><line class="uuid-2f529a92-d473-4fc4-88b9-1ddaf050fde2" x1="41.72" y1="150.18" x2="41.72" y2="270.06"/><line class="uuid-2f529a92-d473-4fc4-88b9-1ddaf050fde2" x1="25.35" y1="184.54" x2="41.47" y2="200.65"/><line class="uuid-2f529a92-d473-4fc4-88b9-1ddaf050fde2" x1="54" y1="166.22" x2="41.47" y2="178.75"/><line class="uuid-2f529a92-d473-4fc4-88b9-1ddaf050fde2" x1="54" y1="213.18" x2="41.38" y2="225.8"/><line class="uuid-2f529a92-d473-4fc4-88b9-1ddaf050fde2" x1="17.17" y1="233.74" x2="41.47" y2="258.04"/></g><g><path class="uuid-7b064cdb-c6d2-4dde-bd9e-76c4a4f2a805" d="M305.74,281.48s-23.77-15.42-18.37-33.78c5.4-18.37,18.37-12.96,18.37-31.33s6.48-33.49,21.61-18.37-6.48,36.73,6.48,49.7-7.86,33.78-7.86,33.78h-20.23Z"/><line class="uuid-2f529a92-d473-4fc4-88b9-1ddaf050fde2" x1="316.46" y1="206.96" x2="316.46" y2="281.48"/><line class="uuid-2f529a92-d473-4fc4-88b9-1ddaf050fde2" x1="296.67" y1="251.47" x2="316.46" y2="270.9"/><line class="uuid-2f529a92-d473-4fc4-88b9-1ddaf050fde2" x1="328.74" y1="251.47" x2="316.14" y2="264.07"/><line class="uuid-2f529a92-d473-4fc4-88b9-1ddaf050fde2" x1="306.57" y1="236.64" x2="316.46" y2="246.54"/><line class="uuid-2f529a92-d473-4fc4-88b9-1ddaf050fde2" x1="325.67" y1="220.26" x2="316.14" y2="229.79"/><line class="uuid-2f529a92-d473-4fc4-88b9-1ddaf050fde2" x1="310.98" y1="214.12" x2="316.79" y2="219.93"/><line class="uuid-2f529a92-d473-4fc4-88b9-1ddaf050fde2" x1="325.67" y1="203.89" x2="315.95" y2="213.61"/></g><g><path class="uuid-9fd07c57-6073-49c3-b9f0-d4eaf50d12d1" d="M340.58,272.96s-22.02-16.37-12.42-38.39c9.6-22.02,3.06-24.75-2.42-46.25-5.48-21.5,25.57-8.51,21.62-26.58-3.95-18.07,8.19-28.51,15.24-21.46s-.56,32.18,11.29,38.96c11.86,6.78,12.92,16.51,5.05,39.02-7.87,22.52,22.62,20.26-2.79,54.7h-35.57Z"/><line class="uuid-2f529a92-d473-4fc4-88b9-1ddaf050fde2" x1="355.78" y1="156.31" x2="355.78" y2="272.43"/><line class="uuid-2f529a92-d473-4fc4-88b9-1ddaf050fde2" x1="335.05" y1="181.65" x2="356" y2="202.61"/><line class="uuid-2f529a92-d473-4fc4-88b9-1ddaf050fde2" x1="375.97" y1="195.13" x2="355.78" y2="215.33"/><line class="uuid-2f529a92-d473-4fc4-88b9-1ddaf050fde2" x1="334.46" y1="236.64" x2="355.78" y2="257.96"/><line class="uuid-2f529a92-d473-4fc4-88b9-1ddaf050fde2" x1="370.86" y1="233.57" x2="355.71" y2="248.72"/></g><g><path class="uuid-3afda937-5c08-4f64-86d3-75e90a3ce8d6" d="M411.04,226.46c-12.83-12.83-2.26-60.41-7.9-66.06s-20.33-6.78-20.33,18.68-7.9,16.89-18.07,42.11c-10.16,25.21,18.63,42.54,18.63,42.54h15.81c12.42-6.21,24.69-24.43,11.86-37.26Z"/><line class="uuid-2f529a92-d473-4fc4-88b9-1ddaf050fde2" x1="392.28" y1="170.12" x2="392.28" y2="263.73"/><line class="uuid-2f529a92-d473-4fc4-88b9-1ddaf050fde2" x1="373.35" y1="227.6" x2="392.2" y2="246.45"/><line class="uuid-2f529a92-d473-4fc4-88b9-1ddaf050fde2" x1="381.02" y1="205.5" x2="392.2" y2="216.68"/><line class="uuid-2f529a92-d473-4fc4-88b9-1ddaf050fde2" x1="402" y1="227.6" x2="392.2" y2="237.4"/></g><path class="uuid-0490e819-dc35-4ce3-b146-34a6f7846965" d="M74.06,229.28h82.02s-8.82-18.92-31.75-9.46c-23.81-8.87-50.27,9.46-50.27,9.46Z"/><path class="uuid-0490e819-dc35-4ce3-b146-34a6f7846965" d="M73.81,31.4h49.97s-5.87-9.64-22.19-4.82c-15.98-9.42-27.78,4.82-27.78,4.82Z"/><path class="uuid-0490e819-dc35-4ce3-b146-34a6f7846965" d="M252.44,56.23h135.34s-14.63-24.26-39.02-12.13c-31.7-19.62-47.55,1.32-47.55,1.32,0,0-21.95-8.67-48.77,10.81Z"/><g><path class="uuid-7b064cdb-c6d2-4dde-bd9e-76c4a4f2a805" d="M86.32,205.6c-10.24-10.24,1.14-41.55-10.81-41.55s-17.64,17.64-23.34,51.79c-5.69,34.15,12.52,62.61,12.52,62.61h14.8c17.07-17.07,17.07-62.61,6.83-72.85Z"/><line class="uuid-2f529a92-d473-4fc4-88b9-1ddaf050fde2" x1="72.19" y1="179.92" x2="72.19" y2="278.45"/><line class="uuid-2f529a92-d473-4fc4-88b9-1ddaf050fde2" x1="57.32" y1="236.78" x2="72.19" y2="251.65"/><line class="uuid-2f529a92-d473-4fc4-88b9-1ddaf050fde2" x1="84.44" y1="220.75" x2="72.19" y2="233"/><line class="uuid-2f529a92-d473-4fc4-88b9-1ddaf050fde2" x1="61.42" y1="199.86" x2="72.16" y2="210.6"/></g><rect class="uuid-e8d43c7b-7be7-4861-975a-f332aa5808fb" x=".88" y="305.89" width="424.53" height="220.47"/><path class="uuid-0490e819-dc35-4ce3-b146-34a6f7846965" d="M.55,234.93s34.75-2.02,89.72,15.73c89.76,28.99,185.98,32.95,277.67,10.86,20.85-5.02,39.97-6.94,56.22-2.05,0,29.3,3.56,72.45,0,76.01S.55,335.49,.55,335.49v-100.56Z"/><path class="uuid-0490e819-dc35-4ce3-b146-34a6f7846965" d="M.55,428.3s161.68-38.19,425.2,5.24v204.26H.55v-209.5Z"/><path class="uuid-74b99c85-b81e-4a7e-80e6-26d3787607f7" d="M.55,353.72s122.39-7.8,127.39,11.94-80.55,14.59-63.69,25.28c16.86,10.69-63.69,15.05-63.69,15.05v-52.27Z"/><path class="uuid-74b99c85-b81e-4a7e-80e6-26d3787607f7" d="M269.09,369.42c28.51,18.79,176.82-9.16,138.34,31.4-4.12,4.34,4.35,7.11,18.32,8.6v-60.62c-67.37,.41-182.58,3.55-156.66,20.63Z"/><path class="uuid-9fd07c57-6073-49c3-b9f0-d4eaf50d12d1" d="M.55,496.08s48.03-20.02,162.93-7.75c116.62,12.46,167.35,21.31,262.27-4.52v67.82H.55v-55.55Z"/><path class="uuid-c70f7556-7595-42a4-86fd-ca885321d429" d="M.55,540.2s217.88-32.33,425.2,0v97.6H.55v-97.6Z"/><g><path class="uuid-3afda937-5c08-4f64-86d3-75e90a3ce8d6" d="M397.75,602.98c13.29-27.37-18.77-39.88-23.46-12.51-18.38-9.7-13.29,17.2-13.29,17.2,0,0-14.86-16.42-24.24,0-9.38,16.42,20.33,30.07,20.33,30.07l49.99,.06c38.09-21.9,15.7-52.81-9.33-34.82Z"/><line class="uuid-2f529a92-d473-4fc4-88b9-1ddaf050fde2" x1="365.92" y1="602.75" x2="369.98" y2="623.13"/><polyline class="uuid-2f529a92-d473-4fc4-88b9-1ddaf050fde2" points="351.56 610.66 380.63 630.35 387.14 591.84"/><line class="uuid-2f529a92-d473-4fc4-88b9-1ddaf050fde2" x1="411.39" y1="611.09" x2="382.53" y2="619.15"/></g><g><path class="uuid-b2972923-dd4b-4146-87aa-d60b51efdc3b" d="M56.44,604.11c17.2-38.67-8.6-29.72-8.6-29.72,0,0,4.3-32.45-8.6-19.55-13.12-31.64-42.99-12.25-20.57,28.11-5.68-4.79-35.12-4.04-6.01,25.07-13.29,13.29,17.2,29.72,17.2,29.72h21.9c24.63-24.63,14.08-33.63,4.69-33.63Z"/><line class="uuid-2f529a92-d473-4fc4-88b9-1ddaf050fde2" x1="24" y1="557.07" x2="43.4" y2="637.8"/><line class="uuid-2f529a92-d473-4fc4-88b9-1ddaf050fde2" x1="11.27" y1="591.35" x2="34.98" y2="602.75"/><line class="uuid-2f529a92-d473-4fc4-88b9-1ddaf050fde2" x1="24" y1="620.8" x2="40.64" y2="626.3"/><line class="uuid-2f529a92-d473-4fc4-88b9-1ddaf050fde2" x1="40.64" y1="565.27" x2="30.62" y2="584.6"/><line class="uuid-2f529a92-d473-4fc4-88b9-1ddaf050fde2" x1="53.1" y1="588" x2="38.01" y2="615.37"/></g><g><path class="uuid-d9fc1087-f396-495b-b1b0-ae38dd2669b4" d="M337.85,600.33c15.64-8.6,18.77-24.24,4.69-21.11,7.04-20.33-20.33-21.9-27.37,15.64-25.02-10.95-18.9,42.94-18.9,42.94l26.45-.06c29.06-7.82,35.45-37.4,15.12-37.4Z"/><line class="uuid-2f529a92-d473-4fc4-88b9-1ddaf050fde2" x1="333.03" y1="580.78" x2="308.35" y2="639.59"/><line class="uuid-2f529a92-d473-4fc4-88b9-1ddaf050fde2" x1="307.57" y1="603.82" x2="316.86" y2="619.32"/><line class="uuid-2f529a92-d473-4fc4-88b9-1ddaf050fde2" x1="336.67" y1="610.24" x2="320.11" y2="611.57"/><line class="uuid-2f529a92-d473-4fc4-88b9-1ddaf050fde2" x1="342.74" y1="586.48" x2="328.9" y2="590.63"/></g><g><path class="uuid-7b064cdb-c6d2-4dde-bd9e-76c4a4f2a805" d="M115.27,607.41c11.55-11.55-12.51-31.64-22.35-5.84,0-24.24-38.65-16.42-26.92,5.47-25.02,3.91-1.65,30.75-1.65,30.75h53.99c28.87-10.52,13.35-40.34-3.07-30.39Z"/><polyline class="uuid-2f529a92-d473-4fc4-88b9-1ddaf050fde2" points="77.35 597.45 93.99 628.16 106.46 602.49"/><line class="uuid-2f529a92-d473-4fc4-88b9-1ddaf050fde2" x1="64.62" y1="615.31" x2="85.67" y2="612.81"/><line class="uuid-2f529a92-d473-4fc4-88b9-1ddaf050fde2" x1="120.3" y1="615.31" x2="100.23" y2="615.31"/></g></g></g><g><path class="uuid-83c0ac73-8e5f-476a-a6ce-151172fbd552" d="M233.57,367.06s1.27,1.82,.52,7.29c.75,4.45,2.23,7.47-.97,7.03-.65,4.71-2.87,6.84-11.05,5.03-6.5-1.44-7.37-11.75-3.25-18.93,4.12-7.18,12.52-6.02,14.74-.42Z"/><polygon class="uuid-83c0ac73-8e5f-476a-a6ce-151172fbd552" points="219.13 382.69 213.88 391.12 220.37 396.34 229.01 384.23 219.13 382.69"/><path class="uuid-786dfa89-8001-49c4-b34e-a67b79c6b747" d="M183.61,541.87l5.4,3.25s7.41,4.43,4.94,10.95l-13.53-9.66,3.2-4.53Z"/><path class="uuid-a1e70487-987a-457e-9d8e-400b7e803bf7" d="M191.94,409.66s-20.81,5.77-17.72,24.46c3.31,20.02,24.85,46.69,24.85,46.69l-15.47,61.07,5.4,3.25s29.69-48.45,31.43-70.18c1.74-21.73-28.49-65.28-28.49-65.28Z"/><circle class="uuid-213a1b19-9eac-4101-9036-084ed7590b7b" cx="141.47" cy="532.69" r="47.48" transform="translate(-118.6 46.75) rotate(-13.28)"/><circle class="uuid-213a1b19-9eac-4101-9036-084ed7590b7b" cx="284.83" cy="532.69" r="47.48" transform="translate(-293.24 357.43) rotate(-45)"/><polygon class="uuid-213a1b19-9eac-4101-9036-084ed7590b7b" points="209.73 532.69 141.47 532.69 178.35 470.19 261.92 470.19 284.83 532.69 209.73 532.69"/><path class="uuid-213a1b19-9eac-4101-9036-084ed7590b7b" d="M165.74,444.1l42.82,88.59,53.36-62.5-7.23-26.09s20.58-4.17,20.58,3.68-9.1,7.85-9.1,7.85"/><path class="uuid-b608e4ca-b594-4add-8351-3d679192e72d" d="M176.44,449.67h-20.33c-1.84,0-3.34-1.5-3.34-3.34h0c0-1.84,1.5-3.34,3.34-3.34h20.33c1.84,0,3.34,1.5,3.34,3.34h0c0,1.84-1.5,3.34-3.34,3.34Z"/><path class="uuid-83c0ac73-8e5f-476a-a6ce-151172fbd552" d="M268.89,439.85s9.86,1.59,6.37,7.93c-4.55-1.56-10.28-5.24-10.28-5.24l3.9-2.68Z"/><path class="uuid-02671351-dc75-4a54-92d0-afbbb7ce1c01" d="M177.27,412.85s26.7-39.14,45.51-20.33c14.21,14.21-28,39.84-28,39.84l-17.51-19.51Z"/><path class="uuid-786dfa89-8001-49c4-b34e-a67b79c6b747" d="M222.38,508.89l5.7,1.5s8.49,1.52,8.49,8.49l-16.08-4.25,1.88-5.75Z"/><path class="uuid-db007558-c46f-4418-b82b-a1fed08738be" d="M177.27,412.85s-29.72,24.36,8.58,35.43l46.23,10.95-9.69,49.65,5.98,1.5s19.32-39.72,19.32-58.22-70.41-39.31-70.41-39.31Z"/><path class="uuid-b608e4ca-b594-4add-8351-3d679192e72d" d="M137.5,532.69c0,2.2,1.78,3.98,3.98,3.98s3.98-1.78,3.98-3.98-1.78-3.98-3.98-3.98-3.98,1.78-3.98,3.98Z"/><path class="uuid-b608e4ca-b594-4add-8351-3d679192e72d" d="M280.85,532.69c0,2.2,1.78,3.98,3.98,3.98s3.98-1.78,3.98-3.98-1.78-3.98-3.98-3.98-3.98,1.78-3.98,3.98Z"/><path class="uuid-02671351-dc75-4a54-92d0-afbbb7ce1c01" d="M227.46,427.33s-19.2-31.04-11.79-35.84c7.42-4.8,23.19,31.68,23.19,31.68l30.04,16.69-1.8,3.96s-31.58-5.07-39.64-16.48Z"/><path class="uuid-b608e4ca-b594-4add-8351-3d679192e72d" d="M236.71,519.7l-16.73-4.25c-.42-.11-.68-.54-.58-.97h0c.11-.42,.54-.68,.97-.58l16.73,4.25c.42,.11,.68,.54,.58,.97h0c-.11,.42-.54,.68-.97,.58Z"/><path class="uuid-b608e4ca-b594-4add-8351-3d679192e72d" d="M193.21,556.25l-14.29-9.68c-.36-.25-.46-.74-.21-1.1h0c.25-.36,.74-.46,1.1-.21l14.29,9.68c.36,.25,.46,.74,.21,1.1h0c-.25,.36-.74,.46-1.1,.21Z"/><polyline class="uuid-213a1b19-9eac-4101-9036-084ed7590b7b" points="186.51 550.75 208.56 532.69 228.54 516.8"/><path class="uuid-786dfa89-8001-49c4-b34e-a67b79c6b747" d="M211.35,387.17s2.19-3.03,7.45-1.12c5.25,1.91,13.38,15.41,20.66,36.55,12.3,6.81,27.71,15.17,27.71,15.17l-3.46,8.57s-22.21-7.26-32.37-12.99c-10.15-5.73-12.42-19.23-12.42-19.23,0,0-10.51,12.42-23.89,15.88-13.38,3.46-30.34-11.35-41.32-10.51,5.37-15.65,48.17-35.62,57.64-32.32Z"/><path class="uuid-b608e4ca-b594-4add-8351-3d679192e72d" d="M219.81,385.42s-4-.87-5.85-6.15-.35-13.13,5.85-17.15c5.04-3.83,16.41-3.02,16.41,7.35,0,2.64-6.74,3.24-6.74,3.24,0,0-6.45,13.52-9.67,12.7Z"/><path class="uuid-83c0ac73-8e5f-476a-a6ce-151172fbd552" d="M227.69,376.12s-.23-2.1-2.84-2.1-2.27,5.22,1.42,5.96"/><path class="uuid-b608e4ca-b594-4add-8351-3d679192e72d" d="M213.23,385.84s-.13-2.98,1.58-4.69c7.06,.73,20.95,4.98,13.1,15.18-5.7-10.92-14.68-10.49-14.68-10.49Z"/><path class="uuid-b608e4ca-b594-4add-8351-3d679192e72d" d="M215.42,383.87s-8.77,4.96-22.99,0c-14.23-4.96-32.39-6.73-40.69,1.58,5.13,1.4,5.96,7.85,5.96,7.85,0,0,15.05-10.06,30.6-3.79,15.55,6.27,29.45-5.14,29.45-5.14"/><path class="uuid-237760f0-b7db-4f7c-b02b-27ff33f1b8ac" d="M160.01,412.85s9.61-1.19,19.78,5.93c10.17,7.11,19.1,7.94,19.1,7.94"/><path class="uuid-237760f0-b7db-4f7c-b02b-27ff33f1b8ac" d="M219.39,391.05s-6.14,4.5-1.65,21.72"/></g></g></g></svg>