<?xml version="1.0" encoding="UTF-8"?><svg id="uuid-bb4e9a60-43f0-4e71-8805-53e22ce3be77" xmlns="http://www.w3.org/2000/svg" width="163.62mm" height="229.71mm" xmlns:xlink="http://www.w3.org/1999/xlink" viewBox="0 0 463.82 651.16"><defs><style>.uuid-c349cae5-f844-4e42-bd08-7f1390a4744f{fill:#f29064;}.uuid-481f694d-7a06-469a-8a22-dd7d4ec4c31c{fill:#4b262f;}.uuid-1ca9d461-eef5-4747-b20f-203e3bde89d5{fill:#fff;}.uuid-59374ca3-6e81-4392-9139-829367d3a7fb{fill:#f49645;}.uuid-a596bfe8-6fbc-471d-80ce-64f928547d21{fill:#f1b98a;}.uuid-af2590a6-c8c7-49ba-93fb-8b3a3276aa58{clip-path:url(#uuid-ebdf72b4-8b42-4e26-b95f-2291c9faaf85);}.uuid-c4af99d2-03b1-42d1-b6db-30f06bb80b23{stroke:#fff;stroke-width:.75px;}.uuid-c4af99d2-03b1-42d1-b6db-30f06bb80b23,.uuid-41c47a7d-e40b-43e7-815a-ed097a7ce82f,.uuid-8a8aa1d5-c87d-475b-90be-0d03c3eb5375,.uuid-7bd6387f-d39f-4959-a817-6885785fa3ec{fill:none;}.uuid-c4af99d2-03b1-42d1-b6db-30f06bb80b23,.uuid-41c47a7d-e40b-43e7-815a-ed097a7ce82f,.uuid-7bd6387f-d39f-4959-a817-6885785fa3ec{stroke-miterlimit:10;}.uuid-fdb21c5c-595d-40d8-9f10-2fd775277b59{fill:#ffdfa6;}.uuid-0417e300-2578-419c-ad50-e55dfc52e673{fill:#76485d;}.uuid-6aa79d4a-3a27-44d8-80dd-4b4c9455ddf7{fill:#d25f3c;}.uuid-a908791e-2d47-45c7-90e2-ea006f0fb487{fill:#fdcd71;}.uuid-41c47a7d-e40b-43e7-815a-ed097a7ce82f{stroke:#4f3a17;}.uuid-138012cd-3bbb-4d2f-bc6b-51c4aab5c292{fill:#3b1429;}.uuid-27c4b72a-b736-48dd-bed9-b47e652f8f1b{fill:#613b48;}.uuid-da981f80-0ffd-48b9-b816-47bf6b7f79e1{fill:#e5874b;}.uuid-ce20d657-53ee-470a-905c-8295698f734e{fill:#fab741;}.uuid-fa1db70c-5443-4793-a7e8-0238e93fc5fc{fill:#fbbf57;}.uuid-c6e3d619-1982-4ed4-9a70-83d65640f4f6{fill:#ec6533;}.uuid-7bd6387f-d39f-4959-a817-6885785fa3ec{stroke:#4b262f;}.uuid-6b707f00-19e4-4bae-9f7e-03858809adf0{fill:#f9eabf;}</style><clipPath id="uuid-ebdf72b4-8b42-4e26-b95f-2291c9faaf85"><rect class="uuid-8a8aa1d5-c87d-475b-90be-0d03c3eb5375" x="30.3" width="425.2" height="637.8"/></clipPath></defs><g id="uuid-8ed3b595-474e-4a13-9de5-827a88d39b50"><g><g class="uuid-af2590a6-c8c7-49ba-93fb-8b3a3276aa58"><g><rect class="uuid-6b707f00-19e4-4bae-9f7e-03858809adf0" x="30.3" width="425.2" height="637.8"/><path class="uuid-da981f80-0ffd-48b9-b816-47bf6b7f79e1" d="M30.3,246.34s34.75-2.02,89.72,15.73c89.76,28.99,185.98,32.95,277.67,10.86,20.85-5.02,39.97-6.94,56.22-2.05,0,29.3,3.56,72.45,0,76.01s-423.61,0-423.61,0v-100.56Z"/><rect class="uuid-a908791e-2d47-45c7-90e2-ea006f0fb487" x="30.3" y="241.46" width="424.53" height="212.27"/><path class="uuid-ce20d657-53ee-470a-905c-8295698f734e" d="M30.3,427.91s161.68-38,425.2,5.22v203.2H30.3v-208.42Z"/><path class="uuid-fdb21c5c-595d-40d8-9f10-2fd775277b59" d="M30.3,540.2s217.88-32.33,425.2,0v97.6H30.3v-97.6Z"/><g><path class="uuid-59374ca3-6e81-4392-9139-829367d3a7fb" d="M85.58,605.94c-13.29-27.37,18.77-39.88,23.46-12.51,18.38-9.7,13.29,17.2,13.29,17.2,0,0,14.86-16.42,24.24,0,9.38,16.42-25.54,27.89-25.54,27.89l-42.54-.72c-38.09-21.9-17.94-49.85,7.08-31.86Z"/><line class="uuid-41c47a7d-e40b-43e7-815a-ed097a7ce82f" x1="117.42" y1="605.71" x2="113.36" y2="626.09"/><polyline class="uuid-41c47a7d-e40b-43e7-815a-ed097a7ce82f" points="131.78 613.62 102.7 633.31 96.2 594.8"/><line class="uuid-41c47a7d-e40b-43e7-815a-ed097a7ce82f" x1="71.94" y1="614.05" x2="100.81" y2="622.11"/></g><g><path class="uuid-fa1db70c-5443-4793-a7e8-0238e93fc5fc" d="M45.18,617.35c-17.2-38.67,8.6-29.72,8.6-29.72,0,0-4.3-32.45,8.6-19.55,13.12-31.64,42.99-12.25,20.57,28.11,5.68-4.79,35.12-4.04,6.01,25.07,13.29,13.29-17.2,29.72-17.2,29.72h-21.9c-24.63-24.63-14.08-33.63-4.69-33.63Z"/><line class="uuid-41c47a7d-e40b-43e7-815a-ed097a7ce82f" x1="77.63" y1="570.31" x2="58.22" y2="651.04"/><line class="uuid-41c47a7d-e40b-43e7-815a-ed097a7ce82f" x1="90.36" y1="604.59" x2="66.65" y2="615.99"/><line class="uuid-41c47a7d-e40b-43e7-815a-ed097a7ce82f" x1="77.63" y1="634.04" x2="60.98" y2="639.55"/><line class="uuid-41c47a7d-e40b-43e7-815a-ed097a7ce82f" x1="60.98" y1="578.52" x2="71.01" y2="597.84"/><line class="uuid-41c47a7d-e40b-43e7-815a-ed097a7ce82f" x1="48.52" y1="601.24" x2="63.61" y2="628.61"/></g><g><path class="uuid-fa1db70c-5443-4793-a7e8-0238e93fc5fc" d="M424.05,599.11c17.2-38.67-8.6-29.72-8.6-29.72,0,0,4.3-32.45-8.6-19.55-13.12-31.64-42.99-12.25-20.57,28.11-5.68-4.79-35.12-4.04-6.01,25.07-13.29,13.29,17.2,34.77,17.2,34.77h23.25c24.63-24.63,12.72-38.68,3.34-38.68Z"/><line class="uuid-41c47a7d-e40b-43e7-815a-ed097a7ce82f" x1="391.61" y1="552.07" x2="411.01" y2="632.8"/><line class="uuid-41c47a7d-e40b-43e7-815a-ed097a7ce82f" x1="378.87" y1="586.35" x2="402.59" y2="597.76"/><line class="uuid-41c47a7d-e40b-43e7-815a-ed097a7ce82f" x1="391.61" y1="615.81" x2="408.25" y2="621.31"/><line class="uuid-41c47a7d-e40b-43e7-815a-ed097a7ce82f" x1="408.25" y1="560.28" x2="398.23" y2="579.61"/><line class="uuid-41c47a7d-e40b-43e7-815a-ed097a7ce82f" x1="420.71" y1="583" x2="405.62" y2="610.37"/></g><g><path class="uuid-59374ca3-6e81-4392-9139-829367d3a7fb" d="M421.58,593.07c-9.2-15.3-4.05-30.39,6.55-20.61,4.13-21.11,28.58-8.71,15.8,27.27,27.14,3.11-1.74,38.79-1.74,38.79l-21.48-.72c-21.2-21.36-16.71-54.95,.86-44.73Z"/><line class="uuid-41c47a7d-e40b-43e7-815a-ed097a7ce82f" x1="435.56" y1="578.59" x2="428.71" y2="631.4"/><line class="uuid-41c47a7d-e40b-43e7-815a-ed097a7ce82f" x1="446" y1="611.3" x2="430.18" y2="620.03"/><line class="uuid-41c47a7d-e40b-43e7-815a-ed097a7ce82f" x1="417.61" y1="602.22" x2="431.26" y2="611.7"/><line class="uuid-41c47a7d-e40b-43e7-815a-ed097a7ce82f" x1="424.31" y1="578.64" x2="434.19" y2="589.18"/></g><g><path class="uuid-6aa79d4a-3a27-44d8-80dd-4b4c9455ddf7" d="M328.06,606.09c-11.55-11.55,12.51-31.64,22.35-5.84,0-24.24,38.65-16.42,26.92,5.47,25.02,3.91,3.01,32.07,3.01,32.07h-53c-28.87-10.52-15.7-41.65,.72-31.7Z"/><polyline class="uuid-41c47a7d-e40b-43e7-815a-ed097a7ce82f" points="365.98 596.13 349.34 626.84 336.88 601.18"/><line class="uuid-41c47a7d-e40b-43e7-815a-ed097a7ce82f" x1="378.71" y1="613.99" x2="357.66" y2="611.49"/><line class="uuid-41c47a7d-e40b-43e7-815a-ed097a7ce82f" x1="323.03" y1="613.99" x2="343.1" y2="613.99"/></g><path class="uuid-1ca9d461-eef5-4747-b20f-203e3bde89d5" d="M185.64,194.97h112s-7.94-20.46-30.87-10.23c-29.98-20.55-49.1-1.43-49.1-1.43,0,0-9.06-11.31-32.03,11.66Z"/><path class="uuid-1ca9d461-eef5-4747-b20f-203e3bde89d5" d="M365.93,60.08h97.89s-3.53-14.29-22.93-9.26c-22.67-17.04-44.09,3.06-44.09,3.06,0,0-11.64-8.25-30.87,6.2Z"/><path class="uuid-1ca9d461-eef5-4747-b20f-203e3bde89d5" d="M0,58.08H82.02s-8.82-18.92-31.75-9.46C26.46,39.75,0,58.08,0,58.08Z"/><g><path class="uuid-59374ca3-6e81-4392-9139-829367d3a7fb" d="M402.66,297.08s12.74,2.94,19.6-17.64c6.86-20.58,17.64-32.34-9.8-49.97s-41.16,9.8-34.3,27.44c6.86,17.64-2.94,40.18,24.5,40.18Z"/><line class="uuid-41c47a7d-e40b-43e7-815a-ed097a7ce82f" x1="401.08" y1="238.88" x2="401.08" y2="322.81"/><line class="uuid-41c47a7d-e40b-43e7-815a-ed097a7ce82f" x1="410.73" y1="276.99" x2="400.84" y2="286.88"/><line class="uuid-41c47a7d-e40b-43e7-815a-ed097a7ce82f" x1="384.2" y1="248.05" x2="401.08" y2="264.93"/></g><g><path class="uuid-6aa79d4a-3a27-44d8-80dd-4b4c9455ddf7" d="M60.34,392.62s12.74,2.94,19.6-17.64c6.86-20.58,17.64-32.34-9.8-49.97-27.44-17.64-41.16,9.8-34.3,27.44,6.86,17.64-2.94,40.18,24.5,40.18Z"/><line class="uuid-41c47a7d-e40b-43e7-815a-ed097a7ce82f" x1="58.76" y1="334.43" x2="58.76" y2="418.36"/><line class="uuid-41c47a7d-e40b-43e7-815a-ed097a7ce82f" x1="68.4" y1="372.53" x2="58.52" y2="382.42"/><line class="uuid-41c47a7d-e40b-43e7-815a-ed097a7ce82f" x1="41.87" y1="343.59" x2="58.76" y2="360.47"/></g><g><path class="uuid-c349cae5-f844-4e42-bd08-7f1390a4744f" d="M221.03,296.76s19.6,8.19,19.6-30.2-9.74-57.99-24.47-54.07c-14.73,3.92-33.34,76.43,4.87,84.27Z"/><line class="uuid-41c47a7d-e40b-43e7-815a-ed097a7ce82f" x1="219.53" y1="228.71" x2="219.53" y2="323.08"/><line class="uuid-41c47a7d-e40b-43e7-815a-ed097a7ce82f" x1="230.77" y1="270.98" x2="219.54" y2="282.21"/><line class="uuid-41c47a7d-e40b-43e7-815a-ed097a7ce82f" x1="206.49" y1="248.31" x2="219.24" y2="261.06"/><line class="uuid-41c47a7d-e40b-43e7-815a-ed097a7ce82f" x1="225.16" y1="241.08" x2="219.7" y2="246.54"/></g><g><path class="uuid-6aa79d4a-3a27-44d8-80dd-4b4c9455ddf7" d="M359.08,318.41s35.28-4.06,35.28-27.58-24.5-21.56-24.5-35.28-42.14-29.4-42.14,16.66c0,23.52-18.62,46.2,31.36,46.2Z"/><line class="uuid-41c47a7d-e40b-43e7-815a-ed097a7ce82f" x1="354.92" y1="257.17" x2="354.92" y2="344"/><line class="uuid-41c47a7d-e40b-43e7-815a-ed097a7ce82f" x1="375.66" y1="287.56" x2="355.04" y2="308.18"/><line class="uuid-41c47a7d-e40b-43e7-815a-ed097a7ce82f" x1="339.97" y1="281.98" x2="354.8" y2="296.81"/><line class="uuid-41c47a7d-e40b-43e7-815a-ed097a7ce82f" x1="362.16" y1="262" x2="354.92" y2="269.23"/></g><g><path class="uuid-59374ca3-6e81-4392-9139-829367d3a7fb" d="M122.66,332.58s20.12,4.31,31.88-17.44c11.76-21.75-6.86-18.81-10.78-32.53-3.92-13.72-23.52-22.54-36.26,0-12.74,22.54-10.85,39.2,15.15,49.97Z"/><line class="uuid-41c47a7d-e40b-43e7-815a-ed097a7ce82f" x1="126.59" y1="279.25" x2="126.59" y2="363.18"/><line class="uuid-41c47a7d-e40b-43e7-815a-ed097a7ce82f" x1="140.03" y1="306.74" x2="126.93" y2="319.84"/><line class="uuid-41c47a7d-e40b-43e7-815a-ed097a7ce82f" x1="117.35" y1="294.79" x2="126.93" y2="304.36"/></g><g><path class="uuid-fa1db70c-5443-4793-a7e8-0238e93fc5fc" d="M408.64,392.97s20.12,4.31,31.88-17.44c11.76-21.75-6.86-18.81-10.78-32.53-3.92-13.72-23.52-22.54-36.26,0-12.74,22.54-10.85,39.2,15.15,49.97Z"/><line class="uuid-41c47a7d-e40b-43e7-815a-ed097a7ce82f" x1="412.57" y1="339.64" x2="412.57" y2="423.58"/><line class="uuid-41c47a7d-e40b-43e7-815a-ed097a7ce82f" x1="426" y1="367.14" x2="412.9" y2="380.24"/><line class="uuid-41c47a7d-e40b-43e7-815a-ed097a7ce82f" x1="403.33" y1="355.18" x2="412.9" y2="364.75"/></g><g><path class="uuid-fdb21c5c-595d-40d8-9f10-2fd775277b59" d="M190.1,349.06s27.63,17.69,34.27-22.11c6.63-39.79-16.03-59.14-39.79-35.37-23.77,23.77-11.61,40.35,5.53,57.48Z"/><line class="uuid-41c47a7d-e40b-43e7-815a-ed097a7ce82f" x1="201.88" y1="297.81" x2="201.88" y2="384.63"/><line class="uuid-41c47a7d-e40b-43e7-815a-ed097a7ce82f" x1="218.28" y1="310.83" x2="201.88" y2="327.23"/><line class="uuid-41c47a7d-e40b-43e7-815a-ed097a7ce82f" x1="182.59" y1="320.57" x2="201.88" y2="339.87"/><line class="uuid-41c47a7d-e40b-43e7-815a-ed097a7ce82f" x1="193.84" y1="305.36" x2="201.88" y2="313.41"/></g><g><path class="uuid-fa1db70c-5443-4793-a7e8-0238e93fc5fc" d="M79.78,296.98s27.63,17.69,34.27-22.11c6.63-39.79-16.03-59.14-39.79-35.37-23.77,23.77-11.61,40.35,5.53,57.48Z"/><line class="uuid-41c47a7d-e40b-43e7-815a-ed097a7ce82f" x1="91.56" y1="245.73" x2="91.56" y2="332.56"/><line class="uuid-41c47a7d-e40b-43e7-815a-ed097a7ce82f" x1="107.96" y1="258.75" x2="91.56" y2="275.15"/><line class="uuid-41c47a7d-e40b-43e7-815a-ed097a7ce82f" x1="72.27" y1="268.49" x2="91.56" y2="287.79"/><line class="uuid-41c47a7d-e40b-43e7-815a-ed097a7ce82f" x1="83.52" y1="253.28" x2="91.56" y2="261.33"/></g><g><path class="uuid-c349cae5-f844-4e42-bd08-7f1390a4744f" d="M292.65,367.19s27.63,17.69,34.27-22.11c6.63-39.79-16.03-59.14-39.79-35.37-23.77,23.77-11.61,40.35,5.53,57.48Z"/><line class="uuid-41c47a7d-e40b-43e7-815a-ed097a7ce82f" x1="304.43" y1="315.94" x2="304.43" y2="402.77"/><line class="uuid-41c47a7d-e40b-43e7-815a-ed097a7ce82f" x1="320.83" y1="328.97" x2="304.43" y2="345.37"/><line class="uuid-41c47a7d-e40b-43e7-815a-ed097a7ce82f" x1="285.14" y1="338.71" x2="304.43" y2="358"/><line class="uuid-41c47a7d-e40b-43e7-815a-ed097a7ce82f" x1="296.39" y1="323.5" x2="304.43" y2="331.54"/></g><path class="uuid-1ca9d461-eef5-4747-b20f-203e3bde89d5" d="M283.91,43.96h82.02s-8.82-18.92-31.75-9.46c-23.81-8.87-50.27,9.46-50.27,9.46Z"/><path class="uuid-1ca9d461-eef5-4747-b20f-203e3bde89d5" d="M279.79,213.4h49.97s-5.87-9.64-22.19-4.82c-15.98-9.42-27.78,4.82-27.78,4.82Z"/><path class="uuid-1ca9d461-eef5-4747-b20f-203e3bde89d5" d="M47.29,103.5h49.97s-5.87-9.64-22.19-4.82c-15.98-9.42-27.78,4.82-27.78,4.82Z"/></g></g><g><path class="uuid-27c4b72a-b736-48dd-bed9-b47e652f8f1b" d="M218.7,410.76s-17.82,4.67-14.73,23.36c3.31,20.02,24.85,46.69,24.85,46.69l-6.21,32.9-9.25,28.17,5.4,3.25s7.62-12.43,15.36-27.52c7.55-14.7,15.21-31.93,16.07-42.66,1.74-21.73-31.48-64.18-31.48-64.18Z"/><path class="uuid-a596bfe8-6fbc-471d-80ce-64f928547d21" d="M264.23,368.31s1.27,1.82,.52,7.29c.75,4.45,2.23,7.47-.97,7.03-.65,4.71-2.87,6.84-11.05,5.03-6.5-1.44-7.37-11.75-3.25-18.93,4.12-7.18,12.52-6.02,14.74-.42Z"/><polygon class="uuid-a596bfe8-6fbc-471d-80ce-64f928547d21" points="248.88 382.69 243.63 391.12 250.12 396.34 256.36 387.59 248.88 382.69"/><path class="uuid-138012cd-3bbb-4d2f-bc6b-51c4aab5c292" d="M213.36,541.87l5.4,3.25s7.41,4.43,4.94,10.95l-13.53-9.66,3.2-4.53Z"/><circle class="uuid-7bd6387f-d39f-4959-a817-6885785fa3ec" cx="171.22" cy="532.69" r="47.48" transform="translate(-115.55 52.23) rotate(-13.01)"/><circle class="uuid-7bd6387f-d39f-4959-a817-6885785fa3ec" cx="314.58" cy="532.69" r="47.48" transform="translate(-284.53 378.46) rotate(-45)"/><polygon class="uuid-7bd6387f-d39f-4959-a817-6885785fa3ec" points="239.48 532.69 171.22 532.69 208.1 470.19 291.67 470.19 314.58 532.69 239.48 532.69"/><path class="uuid-7bd6387f-d39f-4959-a817-6885785fa3ec" d="M195.49,444.1l42.82,88.59,53.36-62.5-8.8-26.09s22.15-4.17,22.15,3.68-9.1,7.85-9.1,7.85"/><path class="uuid-481f694d-7a06-469a-8a22-dd7d4ec4c31c" d="M206.19,449.67h-20.33c-1.84,0-3.34-1.5-3.34-3.34h0c0-1.84,1.5-3.34,3.34-3.34h20.33c1.84,0,3.34,1.5,3.34,3.34h0c0,1.84-1.5,3.34-3.34,3.34Z"/><path class="uuid-a596bfe8-6fbc-471d-80ce-64f928547d21" d="M298.64,439.85s9.86,1.59,6.37,7.93c-4.55-1.56-10.28-5.24-10.28-5.24l3.9-2.68Z"/><path class="uuid-138012cd-3bbb-4d2f-bc6b-51c4aab5c292" d="M235.68,515.98l5.39,2.4s8.14,2.86,7.02,9.75l-15.19-6.78,2.78-5.37Z"/><path class="uuid-481f694d-7a06-469a-8a22-dd7d4ec4c31c" d="M167.25,532.69c0,2.2,1.78,3.98,3.98,3.98s3.98-1.78,3.98-3.98-1.78-3.98-3.98-3.98-3.98,1.78-3.98,3.98Z"/><path class="uuid-481f694d-7a06-469a-8a22-dd7d4ec4c31c" d="M310.6,532.69c0,2.2,1.78,3.98,3.98,3.98s3.98-1.78,3.98-3.98-1.78-3.98-3.98-3.98-3.98,1.78-3.98,3.98Z"/><path class="uuid-481f694d-7a06-469a-8a22-dd7d4ec4c31c" d="M248.09,528.96l-15.83-6.88c-.4-.17-.59-.65-.41-1.05h0c.17-.4,.65-.59,1.05-.41l15.83,6.88c.4,.17,.59,.65,.41,1.05h0c-.17,.4-.65,.59-1.05,.41Z"/><path class="uuid-481f694d-7a06-469a-8a22-dd7d4ec4c31c" d="M222.96,556.25l-14.29-9.68c-.36-.25-.46-.74-.21-1.1h0c.25-.36,.74-.46,1.1-.21l14.29,9.68c.36,.25,.46,.74,.21,1.1h0c-.25,.36-.74,.46-1.1,.21Z"/><polyline class="uuid-7bd6387f-d39f-4959-a817-6885785fa3ec" points="216.26 550.75 238.31 532.69 240.49 524.79"/><path class="uuid-0417e300-2578-419c-ad50-e55dfc52e673" d="M206.6,413.95s-33.25,19.27,2.77,36.35l40.3,16.76-6.03,27.44-7.95,21.5,5.66,2.44s7.5-10.64,14.83-23.28c6.18-10.65,12.24-22.73,13.6-31.08,2.98-18.27-63.17-50.12-63.17-50.12Z"/><path class="uuid-c6e3d619-1982-4ed4-9a70-83d65640f4f6" d="M252.53,392.52c-9.47-9.47-21.04-3.98-30.2,3.81h0s-25.91,20.04-34.22,35.12c18.89,14.1,48.09-1.23,48.09-1.23l11.15-16.94c6.94-6.86,11.3-14.63,5.18-20.76Z"/><path class="uuid-c6e3d619-1982-4ed4-9a70-83d65640f4f6" d="M257.21,427.33s-27.15-28.84-11.79-35.84c8.04-3.66,23.19,31.68,23.19,31.68l30.04,16.69-.92,3.14s-32.46-4.24-40.52-15.66Z"/><path class="uuid-138012cd-3bbb-4d2f-bc6b-51c4aab5c292" d="M248.98,387.48s-4-.87-5.85-6.15c-1.85-5.28-.35-13.13,5.85-17.15,5.04-3.83,16.41-3.02,16.41,7.35,0,2.64-6.74,3.25-6.74,3.25,0,0-6.45,13.52-9.67,12.7Z"/><path class="uuid-a596bfe8-6fbc-471d-80ce-64f928547d21" d="M256.85,378.18s-.23-2.1-2.84-2.1-2.27,5.22,1.42,5.96"/><path class="uuid-138012cd-3bbb-4d2f-bc6b-51c4aab5c292" d="M256.36,376.57s1.63,5.63-1.66,13.35c3.98,3.98,8.04,1.55,9.23-2.41,1.19-3.95,.3-4.84,.3-4.84,0,0-6.91-.06-6.09-6.85"/><path class="uuid-c4af99d2-03b1-42d1-b6db-30f06bb80b23" d="M248.2,391.95s-10.54,3.56-2.38,20.51"/></g></g></g></svg>