<?xml version="1.0" encoding="UTF-8"?><svg id="uuid-134b299b-2be2-4fde-93cb-b66dbbd9f198" xmlns="http://www.w3.org/2000/svg" width="150.28mm" height="225mm" xmlns:xlink="http://www.w3.org/1999/xlink" viewBox="0 0 425.98 637.8"><defs><style>.uuid-18fea233-b101-4376-a58f-b2ef38b23c25{fill:#4b262f;}.uuid-9cb7abd1-8b97-4e32-9935-8b8c1f84d9e8{fill:#fff;}.uuid-e0dd6dae-cb42-4f80-afc8-27f06d6d14a5{fill:#f1b98a;}.uuid-6381017a-6242-4e82-9910-0391eaf7ba27{fill:#009149;}.uuid-b3df0956-2414-43d6-87c8-19453c10579e{fill:#add291;}.uuid-4c5c8edd-e099-40dc-9502-166220888e70{fill:#e94943;}.uuid-3b5b9d4e-faa7-4575-9cb6-d55c1a2af62f{clip-path:url(#uuid-6a8dcd99-8fec-4b2e-8929-56a5162d6978);}.uuid-cf89dad1-b266-42ed-9963-bd321ac69c0f{fill:#ed6961;}.uuid-57c1b90c-a2c7-43ed-8192-00da5bcc0e91{fill:#657e40;}.uuid-bfc015cb-b4a3-4c0a-b078-2cf10cd6dbb7{fill:#bbd36a;}.uuid-00410129-c664-418f-a45a-7002d3311d55{stroke:#4f3a17;}.uuid-00410129-c664-418f-a45a-7002d3311d55,.uuid-19ebbb32-a4bd-4021-b177-b96aa9709601,.uuid-48c6a6dc-0c00-4e68-a5d9-b61c072bb597,.uuid-d7ce8b2c-cb83-4f30-8d46-f9c9e4d9bdc0,.uuid-c1df2ac2-0644-4269-82f3-3dbb6d445dae{fill:none;}.uuid-00410129-c664-418f-a45a-7002d3311d55,.uuid-19ebbb32-a4bd-4021-b177-b96aa9709601,.uuid-d7ce8b2c-cb83-4f30-8d46-f9c9e4d9bdc0,.uuid-c1df2ac2-0644-4269-82f3-3dbb6d445dae{stroke-miterlimit:10;}.uuid-19ebbb32-a4bd-4021-b177-b96aa9709601{stroke:#f9eabf;stroke-width:.75px;}.uuid-ba4f26f6-a37d-4649-a85b-a6c645a7fa58{fill:#46b06b;}.uuid-17f53875-4942-4dc7-b69a-2b674bd9525a{fill:#8bc15c;}.uuid-05920930-1aad-4163-8405-6e6d9ae04cee{fill:#8dc295;}.uuid-55839037-6f34-4631-afc6-4bd5ab80dabd{fill:#fed79b;}.uuid-f5b61915-adf1-41f6-8a0d-02472d9411c9{fill:#114d3c;}.uuid-6a4eff47-be2d-457a-8c85-401d767304aa{fill:#fab548;}.uuid-8c8325be-5145-4240-b405-f939935dba55{fill:#afdcdf;}.uuid-0cc2b274-46d2-4947-80ad-a5e29c4df0e8{fill:#86c490;}.uuid-c5f42782-4098-4556-99ba-f656b79e4666{fill:#26b5b8;}.uuid-d7ce8b2c-cb83-4f30-8d46-f9c9e4d9bdc0{stroke:#114d3c;}.uuid-c1df2ac2-0644-4269-82f3-3dbb6d445dae{stroke:#4b262f;}.uuid-52e2689e-0b75-47e5-badc-16deec759184{fill:#a7ce7f;}</style><clipPath id="uuid-6a8dcd99-8fec-4b2e-8929-56a5162d6978"><rect class="uuid-48c6a6dc-0c00-4e68-a5d9-b61c072bb597" x=".79" width="425.2" height="637.8"/></clipPath></defs><g id="uuid-131fcc53-0ae5-42aa-ac35-3b056bc72d09"><g><g class="uuid-3b5b9d4e-faa7-4575-9cb6-d55c1a2af62f"><g><rect class="uuid-8c8325be-5145-4240-b405-f939935dba55" x=".79" width="425.2" height="637.8"/><rect class="uuid-b3df0956-2414-43d6-87c8-19453c10579e" x=".79" y="233.26" width="424.53" height="220.47"/><path class="uuid-c5f42782-4098-4556-99ba-f656b79e4666" d="M99.6,224.44s53.07-35.32,84.2-35.32,61.29,30.9,61.29,30.9c0,0,50.79-45.62,96.45-45.62s81.99,50.03,81.99,50.03l.87,76.45L27.52,249.45s29.4-50.03,72.09-25.02Z"/><path class="uuid-b3df0956-2414-43d6-87c8-19453c10579e" d="M.79,223.07s34.75-2.02,89.72,15.73c89.76,28.99,185.98,32.95,277.67,10.86,20.85-5.02,39.97-6.94,56.22-2.05,0,29.3,3.56,72.45,0,76.01S.79,323.63,.79,323.63v-100.56Z"/><path class="uuid-0cc2b274-46d2-4947-80ad-a5e29c4df0e8" d="M.79,424.86s161.68-38.55,425.2,5.29v206.17H.79v-211.47Z"/><path class="uuid-55839037-6f34-4631-afc6-4bd5ab80dabd" d="M.79,538.73s217.88-32.33,425.2,0v99.07H.79v-99.07Z"/><g><g><path class="uuid-05920930-1aad-4163-8405-6e6d9ae04cee" d="M357.03,599.35c13.29-27.37-18.77-39.88-23.46-12.51-18.38-9.7-13.29,17.2-13.29,17.2,0,0-14.86-16.42-24.24,0-9.38,16.42,21.45,33.75,21.45,33.75h41.13c38.09-21.9,23.44-56.43-1.59-38.44Z"/><line class="uuid-00410129-c664-418f-a45a-7002d3311d55" x1="325.19" y1="599.13" x2="329.26" y2="619.51"/><polyline class="uuid-00410129-c664-418f-a45a-7002d3311d55" points="310.83 607.04 339.91 626.72 346.42 588.22"/><line class="uuid-00410129-c664-418f-a45a-7002d3311d55" x1="370.67" y1="607.47" x2="341.8" y2="615.52"/></g><g><path class="uuid-17f53875-4942-4dc7-b69a-2b674bd9525a" d="M411.99,603.89c17.2-38.67-8.6-29.72-8.6-29.72,0,0,4.3-32.45-8.6-19.55-13.12-31.64-42.99-12.25-20.57,28.11-5.68-4.79-35.12-4.04-6.01,25.07-13.29,13.29,17.2,29.72,17.2,29.72h21.9c24.63-24.63,14.08-33.63,4.69-33.63Z"/><line class="uuid-00410129-c664-418f-a45a-7002d3311d55" x1="379.55" y1="556.85" x2="398.95" y2="637.58"/><line class="uuid-00410129-c664-418f-a45a-7002d3311d55" x1="366.82" y1="591.13" x2="390.53" y2="602.53"/><line class="uuid-00410129-c664-418f-a45a-7002d3311d55" x1="379.55" y1="620.58" x2="396.19" y2="626.08"/><line class="uuid-00410129-c664-418f-a45a-7002d3311d55" x1="396.19" y1="565.05" x2="386.17" y2="584.38"/><line class="uuid-00410129-c664-418f-a45a-7002d3311d55" x1="408.66" y1="587.78" x2="393.56" y2="615.15"/></g><g><path class="uuid-ba4f26f6-a37d-4649-a85b-a6c645a7fa58" d="M41.88,599.17c15.64-8.6,18.77-24.24,4.69-21.11,7.04-20.33-20.33-21.9-27.37,15.64-25.02-10.95-18.42,44.1-18.42,44.1H29.94c29.06-7.82,32.27-38.63,11.94-38.63Z"/><line class="uuid-00410129-c664-418f-a45a-7002d3311d55" x1="37.07" y1="579.62" x2="12.77" y2="637.51"/><line class="uuid-00410129-c664-418f-a45a-7002d3311d55" x1="11.6" y1="602.66" x2="20.89" y2="618.16"/><line class="uuid-00410129-c664-418f-a45a-7002d3311d55" x1="40.71" y1="609.07" x2="24.15" y2="610.41"/><line class="uuid-00410129-c664-418f-a45a-7002d3311d55" x1="46.77" y1="585.32" x2="32.94" y2="589.47"/></g><g><path class="uuid-57c1b90c-a2c7-43ed-8192-00da5bcc0e91" d="M100.15,605.75c11.55-11.55-12.51-31.64-22.35-5.84,0-24.24-38.65-16.42-26.92,5.47-25.02,3.91,1.73,32.41,1.73,32.41h45.67c40.35-21.99,18.29-42,1.87-32.05Z"/><polyline class="uuid-00410129-c664-418f-a45a-7002d3311d55" points="62.23 595.79 78.87 626.5 91.34 600.83"/><line class="uuid-00410129-c664-418f-a45a-7002d3311d55" x1="49.5" y1="613.65" x2="70.55" y2="611.15"/><line class="uuid-00410129-c664-418f-a45a-7002d3311d55" x1="105.18" y1="613.65" x2="85.11" y2="613.65"/></g></g><g><path class="uuid-ba4f26f6-a37d-4649-a85b-a6c645a7fa58" d="M46.28,273.96s-12.74,2.94-19.6-17.64-17.64-32.34,9.8-49.97c27.44-17.64,41.16,9.8,34.3,27.44-6.86,17.64,2.94,40.18-24.5,40.18Z"/><line class="uuid-00410129-c664-418f-a45a-7002d3311d55" x1="47.86" y1="215.77" x2="47.86" y2="299.7"/><line class="uuid-00410129-c664-418f-a45a-7002d3311d55" x1="38.21" y1="253.87" x2="48.1" y2="263.76"/><line class="uuid-00410129-c664-418f-a45a-7002d3311d55" x1="64.74" y1="224.93" x2="47.86" y2="241.81"/></g><g><path class="uuid-17f53875-4942-4dc7-b69a-2b674bd9525a" d="M388.6,382.3s-12.74,2.94-19.6-17.64c-6.86-20.58-17.64-32.34,9.8-49.97,27.44-17.64,41.16,9.8,34.3,27.44-6.86,17.64,2.94,40.18-24.5,40.18Z"/><line class="uuid-00410129-c664-418f-a45a-7002d3311d55" x1="390.18" y1="324.11" x2="390.18" y2="408.04"/><line class="uuid-00410129-c664-418f-a45a-7002d3311d55" x1="380.54" y1="362.21" x2="390.42" y2="372.1"/><line class="uuid-00410129-c664-418f-a45a-7002d3311d55" x1="407.07" y1="333.27" x2="390.18" y2="350.15"/></g><g><path class="uuid-57c1b90c-a2c7-43ed-8192-00da5bcc0e91" d="M227.91,273.64s-19.6,8.19-19.6-30.2,9.74-57.99,24.47-54.07c14.73,3.92,33.34,76.43-4.87,84.27Z"/><line class="uuid-00410129-c664-418f-a45a-7002d3311d55" x1="229.41" y1="205.6" x2="229.41" y2="299.96"/><line class="uuid-00410129-c664-418f-a45a-7002d3311d55" x1="218.16" y1="247.87" x2="229.39" y2="259.1"/><line class="uuid-00410129-c664-418f-a45a-7002d3311d55" x1="242.45" y1="225.2" x2="229.7" y2="237.95"/><line class="uuid-00410129-c664-418f-a45a-7002d3311d55" x1="223.78" y1="217.96" x2="229.24" y2="223.42"/></g><g><path class="uuid-17f53875-4942-4dc7-b69a-2b674bd9525a" d="M89.86,295.29s-35.28-4.06-35.28-27.58,24.5-21.56,24.5-35.28,42.14-29.4,42.14,16.66c0,23.52,18.62,46.2-31.36,46.2Z"/><line class="uuid-00410129-c664-418f-a45a-7002d3311d55" x1="94.02" y1="234.06" x2="94.02" y2="320.88"/><line class="uuid-00410129-c664-418f-a45a-7002d3311d55" x1="73.28" y1="264.45" x2="93.9" y2="285.07"/><line class="uuid-00410129-c664-418f-a45a-7002d3311d55" x1="108.97" y1="258.86" x2="94.14" y2="273.7"/><line class="uuid-00410129-c664-418f-a45a-7002d3311d55" x1="86.78" y1="238.88" x2="94.02" y2="246.12"/></g><g><path class="uuid-bfc015cb-b4a3-4c0a-b078-2cf10cd6dbb7" d="M326.28,309.46s-20.12,4.31-31.88-17.44c-11.76-21.75,6.86-18.81,10.78-32.53,3.92-13.72,23.52-22.54,36.26,0,12.74,22.54,10.85,39.2-15.15,49.97Z"/><line class="uuid-00410129-c664-418f-a45a-7002d3311d55" x1="322.35" y1="256.13" x2="322.35" y2="340.07"/><line class="uuid-00410129-c664-418f-a45a-7002d3311d55" x1="308.91" y1="283.63" x2="322.01" y2="296.73"/><line class="uuid-00410129-c664-418f-a45a-7002d3311d55" x1="331.58" y1="271.67" x2="322.01" y2="281.24"/></g><g><path class="uuid-52e2689e-0b75-47e5-badc-16deec759184" d="M40.3,378.8s-20.12,4.31-31.88-17.44c-11.76-21.75,6.86-18.81,10.78-32.53,3.92-13.72,23.52-22.54,36.26,0,12.74,22.54,10.85,39.2-15.15,49.97Z"/><line class="uuid-00410129-c664-418f-a45a-7002d3311d55" x1="36.37" y1="325.47" x2="36.37" y2="409.4"/><line class="uuid-00410129-c664-418f-a45a-7002d3311d55" x1="22.94" y1="352.96" x2="36.04" y2="366.06"/><line class="uuid-00410129-c664-418f-a45a-7002d3311d55" x1="45.61" y1="341" x2="36.04" y2="350.58"/></g><g><path class="uuid-05920930-1aad-4163-8405-6e6d9ae04cee" d="M258.84,325.94s-27.63,17.69-34.27-22.11c-6.63-39.79,16.03-59.14,39.79-35.37,23.77,23.77,11.61,40.35-5.53,57.48Z"/><line class="uuid-00410129-c664-418f-a45a-7002d3311d55" x1="247.06" y1="274.69" x2="247.06" y2="361.52"/><line class="uuid-00410129-c664-418f-a45a-7002d3311d55" x1="230.66" y1="287.72" x2="247.06" y2="304.12"/><line class="uuid-00410129-c664-418f-a45a-7002d3311d55" x1="266.35" y1="297.46" x2="247.06" y2="316.75"/><line class="uuid-00410129-c664-418f-a45a-7002d3311d55" x1="255.1" y1="282.25" x2="247.06" y2="290.29"/></g><g><path class="uuid-6381017a-6242-4e82-9910-0391eaf7ba27" d="M369.16,273.86s-27.63,17.69-34.27-22.11c-6.63-39.79,16.03-59.14,39.79-35.37,23.77,23.77,11.61,40.35-5.53,57.48Z"/><line class="uuid-00410129-c664-418f-a45a-7002d3311d55" x1="357.38" y1="222.62" x2="357.38" y2="309.44"/><line class="uuid-00410129-c664-418f-a45a-7002d3311d55" x1="340.97" y1="235.64" x2="357.38" y2="252.04"/><line class="uuid-00410129-c664-418f-a45a-7002d3311d55" x1="376.67" y1="245.38" x2="357.38" y2="264.67"/><line class="uuid-00410129-c664-418f-a45a-7002d3311d55" x1="365.42" y1="230.17" x2="357.38" y2="238.21"/></g><g><path class="uuid-57c1b90c-a2c7-43ed-8192-00da5bcc0e91" d="M156.29,344.08s-27.63,17.69-34.27-22.11c-6.63-39.79,16.03-59.14,39.79-35.37,23.77,23.77,11.61,40.35-5.53,57.48Z"/><line class="uuid-00410129-c664-418f-a45a-7002d3311d55" x1="144.51" y1="292.83" x2="144.51" y2="379.65"/><line class="uuid-00410129-c664-418f-a45a-7002d3311d55" x1="128.11" y1="305.85" x2="144.51" y2="322.25"/><line class="uuid-00410129-c664-418f-a45a-7002d3311d55" x1="163.8" y1="315.59" x2="144.51" y2="334.89"/><line class="uuid-00410129-c664-418f-a45a-7002d3311d55" x1="152.55" y1="300.38" x2="144.51" y2="308.43"/></g><path class="uuid-9cb7abd1-8b97-4e32-9935-8b8c1f84d9e8" d="M149.37,65.46h97.89s-3.53-14.29-22.93-9.26c-22.67-17.04-44.09,3.06-44.09,3.06,0,0-11.64-8.25-30.87,6.2Z"/><path class="uuid-9cb7abd1-8b97-4e32-9935-8b8c1f84d9e8" d="M319.83,35.43h82.02s-8.82-18.92-31.75-9.46c-23.81-8.87-50.27,9.46-50.27,9.46Z"/><path class="uuid-9cb7abd1-8b97-4e32-9935-8b8c1f84d9e8" d="M27.52,37.64H162.86s-14.63-24.26-39.02-12.13c-31.7-19.62-47.55,1.32-47.55,1.32,0,0-21.95-8.67-48.77,10.81Z"/></g></g><g><path class="uuid-ba4f26f6-a37d-4649-a85b-a6c645a7fa58" d="M288,445.79s-5.37-5.27-4.34-13.43c1.03-8.16,10.74-3.48,9.94-12.05-.8-8.57,5.7-19.24,14.51-10.43,8.81,8.81-4.8,17.51,1.14,21.51,5.94,4,7.43,9.14,1.14,14.4"/><path class="uuid-d7ce8b2c-cb83-4f30-8d46-f9c9e4d9bdc0" d="M302.45,411.9s-4.43,19.72-2.91,35.09"/><line class="uuid-d7ce8b2c-cb83-4f30-8d46-f9c9e4d9bdc0" x1="289.41" y1="433.99" x2="299" y2="441.49"/><line class="uuid-d7ce8b2c-cb83-4f30-8d46-f9c9e4d9bdc0" x1="307.48" y1="433.99" x2="299.27" y2="437.23"/><line class="uuid-d7ce8b2c-cb83-4f30-8d46-f9c9e4d9bdc0" x1="297" y1="416.06" x2="300.84" y2="420.81"/><path class="uuid-9cb7abd1-8b97-4e32-9935-8b8c1f84d9e8" d="M204.67,397.46c-5.65,6.86-16.17,17.22-26.07,23.56-7.95,5.09-18.75,.38-20-8.97-1.56-11.57,6.02-23.49,24.2-26.36,29.36-5.39,34.66,3.82,34.66,3.82,0,0-4.57-2.03-12.79,7.95Z"/><g><path class="uuid-e0dd6dae-cb42-4f80-afc8-27f06d6d14a5" d="M247.91,452.16c-.81-6.07-11.12-13.19-23.62-19.68l-9.27,22.66,17.28,4.09-9.69,49.65,5.98,1.5s21.76-39.88,19.32-58.22Z"/><path class="uuid-6a4eff47-be2d-457a-8c85-401d767304aa" d="M177.51,412.85s-29.72,24.36,8.58,35.43l28.95,6.86,9.27-22.66c-20.47-10.64-46.79-19.63-46.79-19.63Z"/></g><path class="uuid-e0dd6dae-cb42-4f80-afc8-27f06d6d14a5" d="M234.71,367.06s1.27,1.82,.52,7.29c.75,4.45,2.23,7.47-.97,7.03-.65,4.71-2.87,6.84-11.05,5.03-6.5-1.44-7.37-11.75-3.25-18.93,4.12-7.18,12.52-6.02,14.74-.42Z"/><polygon class="uuid-e0dd6dae-cb42-4f80-afc8-27f06d6d14a5" points="219.37 382.69 214.12 391.12 220.61 396.34 228.91 384.7 219.37 382.69"/><path class="uuid-f5b61915-adf1-41f6-8a0d-02472d9411c9" d="M222.62,508.89l5.7,1.5s8.49,1.52,8.49,8.49l-16.08-4.25,1.88-5.75Z"/><circle class="uuid-c1df2ac2-0644-4269-82f3-3dbb6d445dae" cx="141.71" cy="532.69" r="47.48" transform="translate(-335.16 256.22) rotate(-45)"/><path class="uuid-18fea233-b101-4376-a58f-b2ef38b23c25" d="M236.95,519.7l-16.73-4.25c-.42-.11-.68-.54-.58-.97h0c.11-.42,.54-.68,.97-.58l16.73,4.25c.42,.11,.68,.54,.58,.97h0c-.11,.42-.54,.68-.97,.58Z"/><circle class="uuid-c1df2ac2-0644-4269-82f3-3dbb6d445dae" cx="285.07" cy="532.69" r="47.48" transform="translate(-84.22 54.51) rotate(-9.52)"/><polygon class="uuid-c1df2ac2-0644-4269-82f3-3dbb6d445dae" points="209.97 532.69 141.71 532.69 175.84 470.19 262.15 470.19 285.07 532.69 209.97 532.69"/><path class="uuid-c1df2ac2-0644-4269-82f3-3dbb6d445dae" d="M165.98,444.1l42.82,88.59,53.36-62.5-8.8-26.09s22.15-4.17,22.15,3.68-9.1,7.85-9.1,7.85"/><path class="uuid-18fea233-b101-4376-a58f-b2ef38b23c25" d="M176.68,449.67h-20.33c-1.84,0-3.34-1.5-3.34-3.34h0c0-1.84,1.5-3.34,3.34-3.34h20.33c1.84,0,3.34,1.5,3.34,3.34h0c0,1.84-1.5,3.34-3.34,3.34Z"/><path class="uuid-e0dd6dae-cb42-4f80-afc8-27f06d6d14a5" d="M269.13,439.85s9.86,1.59,6.37,7.93c-4.55-1.56-10.28-5.24-10.28-5.24l3.9-2.68Z"/><path class="uuid-cf89dad1-b266-42ed-9963-bd321ac69c0f" d="M177.51,412.85s26.7-39.14,45.51-20.33c14.21,14.21-36.27,39.84-36.27,39.84l-9.23-19.51Z"/><path class="uuid-18fea233-b101-4376-a58f-b2ef38b23c25" d="M137.73,532.69c0,2.2,1.78,3.98,3.98,3.98s3.98-1.78,3.98-3.98-1.78-3.98-3.98-3.98-3.98,1.78-3.98,3.98Z"/><path class="uuid-9cb7abd1-8b97-4e32-9935-8b8c1f84d9e8" d="M218.14,411.42l-1.37-1.1c5.24-6.55,7.03-11.93,5.33-16-2.73-6.54-13.71-7.75-13.82-7.77l.18-1.74c.49,.05,12.12,1.33,15.26,8.83,1.97,4.71,.09,10.69-5.58,17.78Z"/><path class="uuid-9cb7abd1-8b97-4e32-9935-8b8c1f84d9e8" d="M200.17,418.76c-11.91,0-22.94-6.65-23.12-6.76l.92-1.49c1.15,.71,28.24,17.01,42.02-4.24l1.47,.95c-5.73,8.83-13.68,11.54-21.28,11.54Z"/><path class="uuid-18fea233-b101-4376-a58f-b2ef38b23c25" d="M281.09,532.69c0,2.2,1.78,3.98,3.98,3.98s3.98-1.78,3.98-3.98-1.78-3.98-3.98-3.98-3.98,1.78-3.98,3.98Z"/><path class="uuid-e0dd6dae-cb42-4f80-afc8-27f06d6d14a5" d="M227.69,427.33s-19.2-31.04-11.79-35.84c7.42-4.8,23.19,31.68,23.19,31.68l30.04,16.69-.92,3.14s-32.46-4.24-40.52-15.66Z"/><polyline class="uuid-c1df2ac2-0644-4269-82f3-3dbb6d445dae" points="186.74 550.75 208.8 532.69 228.78 516.8"/><path class="uuid-f5b61915-adf1-41f6-8a0d-02472d9411c9" d="M183.84,541.87l5.4,3.25s7.41,4.43,4.94,10.95l-13.53-9.66,3.2-4.53Z"/><path class="uuid-18fea233-b101-4376-a58f-b2ef38b23c25" d="M193.44,556.25l-14.29-9.68c-.36-.25-.46-.74-.21-1.1h0c.25-.36,.74-.46,1.1-.21l14.29,9.68c.36,.25,.46,.74,.21,1.1h0c-.25,.36-.74,.46-1.1,.21Z"/><line class="uuid-19ebbb32-a4bd-4021-b177-b96aa9709601" x1="218.36" y1="431.61" x2="209.38" y2="451.38"/><g><path class="uuid-e0dd6dae-cb42-4f80-afc8-27f06d6d14a5" d="M205.5,442.77l-26.57,13.38c9.01,10.89,22.59,22.45,22.59,22.45l-17.68,63.28,5.4,3.25s29.69-48.45,31.43-70.18c.71-8.94-6.47-21.03-15.17-32.18Z"/><path class="uuid-6a4eff47-be2d-457a-8c85-401d767304aa" d="M177.51,412.85s-20.19,6.54-17.09,25.23c1.38,8.35,5.82,20.39,12.27,28.18l32.81-23.49c-12.44-15.93-27.99-29.91-27.99-29.91Z"/></g><polygon class="uuid-6a4eff47-be2d-457a-8c85-401d767304aa" points="281.6 443.82 317.48 443.82 311.54 483.5 286.29 483.5 281.6 443.82"/><rect class="uuid-6a4eff47-be2d-457a-8c85-401d767304aa" x="281.6" y="443.82" width="35.88" height="6.34"/><path class="uuid-4c5c8edd-e099-40dc-9502-166220888e70" d="M213.41,409.89l15.5-8.75s-9.6-15.06-15.81-11c-8.22,5.37,.31,19.75,.31,19.75Z"/><path class="uuid-f5b61915-adf1-41f6-8a0d-02472d9411c9" d="M219.31,385.22s-3.43-2.96-4.67-6.29c-1.24-3.34-.77-10.28,1.43-12.49-6.29-6.29-1.14-14.01,5.05-11.44,5.91-3.53,11.44-.57,8.96,5.72,7.25,2.67,10.68,9.92,4.48,13.35-6.2,3.43-8.1,1.53-11.06,5.72-1.81,3.05-1.43,7.34-4.2,5.43Z"/><path class="uuid-e0dd6dae-cb42-4f80-afc8-27f06d6d14a5" d="M226.56,378.05s-.23-2.1-2.84-2.1-2.27,5.22,1.42,5.96"/><line class="uuid-c1df2ac2-0644-4269-82f3-3dbb6d445dae" x1="261.03" y1="466.86" x2="319.3" y2="466.86"/><line class="uuid-c1df2ac2-0644-4269-82f3-3dbb6d445dae" x1="263.83" y1="474.78" x2="316.41" y2="474.78"/><polyline class="uuid-c1df2ac2-0644-4269-82f3-3dbb6d445dae" points="258.72 460 321.65 460 312.99 485.21 267.4 485.21 312.99 485.21 314.17 481.8 266.41 481.8"/><polygon class="uuid-18fea233-b101-4376-a58f-b2ef38b23c25" points="267 481.8 314.17 481.8 312.99 485.21 267.4 485.21 267 481.8"/><line class="uuid-c1df2ac2-0644-4269-82f3-3dbb6d445dae" x1="276.73" y1="460.48" x2="276.73" y2="483.32"/><line class="uuid-c1df2ac2-0644-4269-82f3-3dbb6d445dae" x1="304.17" y1="460.48" x2="304.17" y2="483.32"/><line class="uuid-19ebbb32-a4bd-4021-b177-b96aa9709601" x1="169.47" y1="456.77" x2="197.15" y2="437.18"/><line class="uuid-19ebbb32-a4bd-4021-b177-b96aa9709601" x1="283.96" y1="450.15" x2="314.47" y2="450.15"/></g></g></g></svg>