<?xml version="1.0" encoding="UTF-8"?><svg id="uuid-8d083b06-14c9-4e0a-9ca7-8e52d20c65e3" xmlns="http://www.w3.org/2000/svg" width="156.89mm" height="232.03mm" xmlns:xlink="http://www.w3.org/1999/xlink" viewBox="0 0 444.72 657.73"><defs><style>.uuid-fee542cb-d827-4424-8496-3e47b1b0be53{fill:#4b262f;}.uuid-ed817b72-ea6d-4217-8754-c15bd5eefc55{fill:#fff;}.uuid-97805b66-be12-491e-ab09-002e4a54b644{fill:#f1b98a;}.uuid-5facd4bb-029c-4dc2-be3c-738e0e83f423{fill:#97d1cd;}.uuid-7350f797-0018-4efa-9515-e8e4d6759f59{fill:#ee7171;}.uuid-3248cd77-bc9c-4960-b212-29dbc7106936{fill:#f18c85;}.uuid-c5bf0bce-3a7a-4821-9f1d-51b8589902f7{fill:#d36968;}.uuid-96b273d7-5d5b-4262-a2ff-9ff986306f37{stroke:#621313;}.uuid-96b273d7-5d5b-4262-a2ff-9ff986306f37,.uuid-251d2321-7431-419d-b2fc-25b79095cf71,.uuid-f9908c33-9796-46ba-8964-a58cbea7faf1,.uuid-79826f52-2c5b-44ac-b264-cf03c0e053c1,.uuid-c4d93721-81eb-4cd0-aa9f-e7097da41838{fill:none;}.uuid-96b273d7-5d5b-4262-a2ff-9ff986306f37,.uuid-251d2321-7431-419d-b2fc-25b79095cf71,.uuid-79826f52-2c5b-44ac-b264-cf03c0e053c1,.uuid-c4d93721-81eb-4cd0-aa9f-e7097da41838{stroke-miterlimit:10;}.uuid-0133b55e-bd1b-4151-a02f-c9bc35e1bb39{fill:#4cb4ab;}.uuid-b096e0b6-a6eb-4996-858b-5e8a1e6f989c{clip-path:url(#uuid-a4c3b7c9-53d1-42aa-82ed-11cfda589205);}.uuid-cb315361-3d31-46ab-8ca5-880c1285912a{fill:#e2939e;}.uuid-251d2321-7431-419d-b2fc-25b79095cf71{stroke:#6abab3;}.uuid-fbb47bb7-8f28-493b-ab1e-dca869b6a599{fill:#f5a8a3;}.uuid-9eabc5b3-6e9d-40c0-81b8-ffb3d51d92bd{fill:#0f9083;}.uuid-71c72690-e3dc-4f9e-9cd9-9ca973a6ae3c{fill:#e6b6d0;}.uuid-79826f52-2c5b-44ac-b264-cf03c0e053c1{stroke:#4cb4ab;}.uuid-876f0a91-3b66-49c3-a63b-7f46e950fed5{fill:#fce1d5;}.uuid-c4d93721-81eb-4cd0-aa9f-e7097da41838{stroke:#4b262f;}.uuid-2214e66c-b284-458d-8e6e-8535ea18818c{fill:#c25e5d;}.uuid-884b608a-a898-48ed-afba-264c99ea6782{fill:#fad2d0;}</style><clipPath id="uuid-a4c3b7c9-53d1-42aa-82ed-11cfda589205"><rect class="uuid-f9908c33-9796-46ba-8964-a58cbea7faf1" x="13.47" width="425.2" height="637.8"/></clipPath></defs><g id="uuid-cc4f861b-452c-422a-942f-8e5f24dd1a61"><g><g class="uuid-b096e0b6-a6eb-4996-858b-5e8a1e6f989c"><g><rect class="uuid-884b608a-a898-48ed-afba-264c99ea6782" x="13.47" width="425.2" height="637.8"/><circle class="uuid-7350f797-0018-4efa-9515-e8e4d6759f59" cx="226.07" cy="257.31" r="85" transform="translate(-115.73 235.22) rotate(-45)"/><path class="uuid-fbb47bb7-8f28-493b-ab1e-dca869b6a599" d="M13.47,219.8s34.75-1.74,89.72,13.55c89.76,24.97,185.98,28.39,277.67,9.35,20.85-4.33,39.97-5.98,56.22-1.76,0,25.24,3.56,62.41,0,65.48s-423.61,0-423.61,0v-86.62Z"/><rect class="uuid-5facd4bb-029c-4dc2-be3c-738e0e83f423" x="13.47" y="287.49" width="424.53" height="220.47"/><rect class="uuid-0133b55e-bd1b-4151-a02f-c9bc35e1bb39" x="13.47" y="377" width="424.53" height="71.83"/><path class="uuid-876f0a91-3b66-49c3-a63b-7f46e950fed5" d="M13.47,428.37s161.68-38.18,425.2,5.24v204.19H13.47v-209.43Z"/><g><g><path class="uuid-cb315361-3d31-46ab-8ca5-880c1285912a" d="M365.07,549.57s-27.03-8.48-26.75-27.63,14.22-17.41,9.3-35.11c-4.92-17.69-2.73-34,15.89-23.48,18.63,10.52,3.6,37.13,19.56,46.14,15.96,9.02,1.49,34.65,1.49,34.65l-19.49,5.42Z"/><line class="uuid-96b273d7-5d5b-4262-a2ff-9ff986306f37" x1="355.9" y1="476.6" x2="375.87" y2="548.39"/><line class="uuid-96b273d7-5d5b-4262-a2ff-9ff986306f37" x1="348.76" y1="524.78" x2="373.04" y2="538.2"/><line class="uuid-96b273d7-5d5b-4262-a2ff-9ff986306f37" x1="379.65" y1="516.18" x2="370.89" y2="531.7"/><line class="uuid-96b273d7-5d5b-4262-a2ff-9ff986306f37" x1="354.32" y1="507.85" x2="366.51" y2="514.73"/><line class="uuid-96b273d7-5d5b-4262-a2ff-9ff986306f37" x1="368.33" y1="486.94" x2="361.93" y2="498.28"/><line class="uuid-96b273d7-5d5b-4262-a2ff-9ff986306f37" x1="352.54" y1="484.97" x2="359.69" y2="489.01"/><line class="uuid-96b273d7-5d5b-4262-a2ff-9ff986306f37" x1="363.95" y1="471.17" x2="357.19" y2="483.14"/></g><g><path class="uuid-2214e66c-b284-458d-8e6e-8535ea18818c" d="M402.24,545.12s-24.48-12.39-18.77-35.72c5.71-23.33-1.2-24.91-10.25-45.17-9.06-20.25,23.75-12.74,16.78-29.87-6.97-17.13,3.22-29.49,11.37-23.74s4.92,31.81,17.75,36.47c12.84,4.66,15.54,14.07,11.61,37.6s25.73,16.12,6.55,54.38c-20.03,3.46-35.05,6.05-35.05,6.05Z"/><line class="uuid-96b273d7-5d5b-4262-a2ff-9ff986306f37" x1="397.68" y1="429.32" x2="417.43" y2="543.74"/><line class="uuid-96b273d7-5d5b-4262-a2ff-9ff986306f37" x1="381.56" y1="457.81" x2="405.77" y2="474.9"/><line class="uuid-96b273d7-5d5b-4262-a2ff-9ff986306f37" x1="424.18" y1="464.13" x2="407.71" y2="487.47"/><line class="uuid-96b273d7-5d5b-4262-a2ff-9ff986306f37" x1="390.33" y1="512.1" x2="414.96" y2="529.48"/><line class="uuid-96b273d7-5d5b-4262-a2ff-9ff986306f37" x1="425.68" y1="502.89" x2="413.32" y2="520.39"/></g><g><path class="uuid-71c72690-e3dc-4f9e-9cd9-9ca973a6ae3c" d="M91.39,508.99c-8.16-16.21,16.8-58.07,13.21-65.21-3.59-7.13-17.18-12.81-25.16,11.36s-12.8,13.56-30.36,34.31,4.35,46.24,4.35,46.24l15.01,4.96c13.74-2,31.1-15.46,22.95-31.67Z"/><line class="uuid-96b273d7-5d5b-4262-a2ff-9ff986306f37" x1="90.69" y1="451.27" x2="61.33" y2="540.16"/><line class="uuid-96b273d7-5d5b-4262-a2ff-9ff986306f37" x1="54.69" y1="499.92" x2="66.68" y2="523.73"/><line class="uuid-96b273d7-5d5b-4262-a2ff-9ff986306f37" x1="68.91" y1="481.34" x2="76.02" y2="495.46"/><line class="uuid-96b273d7-5d5b-4262-a2ff-9ff986306f37" x1="81.89" y1="508.9" x2="69.52" y2="515.13"/></g><g><path class="uuid-3248cd77-bc9c-4960-b212-29dbc7106936" d="M13.09,543.89s-20.69-20.56-8.8-43.6c11.89-23.04-.04-28.74,13.84-48.94,13.88-20.21,8.6-41.67,28.83-39.7,20.23,1.97,8.91,36.66,11.99,51.66s-9.93,32.11-.76,54.45c9.17,22.34-9.69,29.58-9.69,29.58l-35.4-3.45Z"/><line class="uuid-96b273d7-5d5b-4262-a2ff-9ff986306f37" x1="42.66" y1="428.08" x2="31.04" y2="547.4"/><line class="uuid-96b273d7-5d5b-4262-a2ff-9ff986306f37" x1="23.04" y1="460.69" x2="37.52" y2="478.29"/><line class="uuid-96b273d7-5d5b-4262-a2ff-9ff986306f37" x1="53.33" y1="445.24" x2="39.64" y2="456.5"/><line class="uuid-96b273d7-5d5b-4262-a2ff-9ff986306f37" x1="48.78" y1="491.98" x2="34.99" y2="503.32"/><line class="uuid-96b273d7-5d5b-4262-a2ff-9ff986306f37" x1="10.12" y1="508.87" x2="31.95" y2="535.41"/></g></g><path class="uuid-fbb47bb7-8f28-493b-ab1e-dca869b6a599" d="M13.47,540.2s217.88-32.33,425.2,0v97.6H13.47v-97.6Z"/><path class="uuid-ed817b72-ea6d-4217-8754-c15bd5eefc55" d="M3.53,47.78H115.53s-7.94-20.46-30.87-10.23c-29.98-20.55-49.1-1.43-49.1-1.43,0,0-9.06-11.31-32.03,11.66Z"/><path class="uuid-ed817b72-ea6d-4217-8754-c15bd5eefc55" d="M41.11,194.17H123.13s-8.82-18.92-31.75-9.46c-23.81-8.87-50.27,9.46-50.27,9.46Z"/><path class="uuid-ed817b72-ea6d-4217-8754-c15bd5eefc55" d="M309.59,33.39h49.97s-5.87-9.64-22.19-4.82c-15.98-9.42-27.78,4.82-27.78,4.82Z"/><path class="uuid-ed817b72-ea6d-4217-8754-c15bd5eefc55" d="M368.68,21.14h49.97s-5.87-9.64-22.19-4.82c-15.98-9.42-27.78,4.82-27.78,4.82Z"/><path class="uuid-ed817b72-ea6d-4217-8754-c15bd5eefc55" d="M109.28,209.62h49.97s-5.87-9.64-22.19-4.82c-15.98-9.42-27.78,4.82-27.78,4.82Z"/><path class="uuid-ed817b72-ea6d-4217-8754-c15bd5eefc55" d="M277.47,226.03h135.34s-14.63-24.26-39.02-12.13c-31.7-19.62-47.55,1.32-47.55,1.32,0,0-21.95-8.67-48.77,10.81Z"/><g><g><path class="uuid-3248cd77-bc9c-4960-b212-29dbc7106936" d="M88.07,599.63c-13.29-27.37,18.77-39.88,23.46-12.51,18.38-9.7,13.29,17.2,13.29,17.2,0,0,14.86-16.42,24.24,0,9.38,16.42-22.89,33.47-22.89,33.47h-45.7c-38.09-21.9-17.43-56.15,7.6-38.17Z"/><line class="uuid-96b273d7-5d5b-4262-a2ff-9ff986306f37" x1="119.9" y1="599.4" x2="115.84" y2="619.79"/><polyline class="uuid-96b273d7-5d5b-4262-a2ff-9ff986306f37" points="134.26 607.31 105.19 627 98.68 588.5"/><line class="uuid-96b273d7-5d5b-4262-a2ff-9ff986306f37" x1="74.43" y1="607.75" x2="103.29" y2="615.8"/></g><g><path class="uuid-c5bf0bce-3a7a-4821-9f1d-51b8589902f7" d="M315.54,607.35c-11.55-11.55,12.51-31.64,22.35-5.84,0-24.24,38.65-16.42,26.92,5.47,25.02,3.91,1.7,30.81,1.7,30.81h-54.03c-36.37-18.01-13.35-40.4,3.07-30.45Z"/><polyline class="uuid-96b273d7-5d5b-4262-a2ff-9ff986306f37" points="353.46 597.39 336.82 628.1 324.35 602.43"/><line class="uuid-96b273d7-5d5b-4262-a2ff-9ff986306f37" x1="366.19" y1="615.25" x2="345.14" y2="612.74"/><line class="uuid-96b273d7-5d5b-4262-a2ff-9ff986306f37" x1="310.51" y1="615.25" x2="330.58" y2="615.25"/></g><g><path class="uuid-5facd4bb-029c-4dc2-be3c-738e0e83f423" d="M19.16,637.8s-23.77-20.28-18.37-38.65c5.4-18.37,18.37-12.96,18.37-31.33s6.48-33.49,21.61-18.37c15.12,15.12-6.48,36.73,6.48,49.7,12.96,12.96-5.37,38.65-5.37,38.65H19.16Z"/><line class="uuid-96b273d7-5d5b-4262-a2ff-9ff986306f37" x1="29.89" y1="558.42" x2="29.89" y2="637.8"/><line class="uuid-96b273d7-5d5b-4262-a2ff-9ff986306f37" x1="10.09" y1="602.92" x2="29.89" y2="622.36"/><line class="uuid-96b273d7-5d5b-4262-a2ff-9ff986306f37" x1="42.17" y1="602.92" x2="29.56" y2="615.52"/><line class="uuid-96b273d7-5d5b-4262-a2ff-9ff986306f37" x1="19.99" y1="588.1" x2="29.89" y2="598"/><line class="uuid-96b273d7-5d5b-4262-a2ff-9ff986306f37" x1="39.1" y1="571.72" x2="29.89" y2="580.92"/><line class="uuid-96b273d7-5d5b-4262-a2ff-9ff986306f37" x1="24.41" y1="565.58" x2="30.22" y2="571.39"/><line class="uuid-96b273d7-5d5b-4262-a2ff-9ff986306f37" x1="39.1" y1="555.35" x2="29.38" y2="565.07"/></g><g><path class="uuid-c5bf0bce-3a7a-4821-9f1d-51b8589902f7" d="M82.34,591.53c-6.16-13.12,15.18-38.69,3.94-42.75-11.24-4.06-22.59,10.6-39.54,40.79s-9.49,63.14-9.49,63.14l13.92,5.03c21.86-10.26,37.33-53.08,31.17-66.2Z"/><line class="uuid-96b273d7-5d5b-4262-a2ff-9ff986306f37" x1="77.78" y1="562.58" x2="44.31" y2="655.25"/><line class="uuid-96b273d7-5d5b-4262-a2ff-9ff986306f37" x1="44.48" y1="611.01" x2="53.41" y2="630.05"/><line class="uuid-96b273d7-5d5b-4262-a2ff-9ff986306f37" x1="75.42" y1="605.14" x2="59.75" y2="612.5"/><line class="uuid-96b273d7-5d5b-4262-a2ff-9ff986306f37" x1="60.87" y1="577.68" x2="67.32" y2="591.42"/></g><g><path class="uuid-5facd4bb-029c-4dc2-be3c-738e0e83f423" d="M384.44,652.35s-13.98-8.54-13.98-25.46c0-24.02-4.44-24.54-16.06-43.44-11.62-18.9,21.89-15.73,12.74-31.81-9.14-16.08-.66-29.66,8.18-25.02,8.84,4.64,9.03,30.9,22.36,33.84,13.33,2.94,17.24,11.92,16.42,35.76-.82,23.84,27.62,12.62,13.59,53.06-19.41,6.04-43.25,3.06-43.25,3.06Z"/><line class="uuid-96b273d7-5d5b-4262-a2ff-9ff986306f37" x1="373.58" y1="543.97" x2="408.09" y2="654.84"/><line class="uuid-96b273d7-5d5b-4262-a2ff-9ff986306f37" x1="361.31" y1="574.33" x2="387.55" y2="588.11"/><line class="uuid-96b273d7-5d5b-4262-a2ff-9ff986306f37" x1="404.4" y1="575.03" x2="391.12" y2="600.32"/><line class="uuid-96b273d7-5d5b-4262-a2ff-9ff986306f37" x1="377.1" y1="627.01" x2="403.79" y2="641.02"/><line class="uuid-96b273d7-5d5b-4262-a2ff-9ff986306f37" x1="410.94" y1="613.26" x2="400.98" y2="632.23"/></g><g><path class="uuid-0133b55e-bd1b-4151-a02f-c9bc35e1bb39" d="M439.27,602.77c-12.83-12.83-2.26-60.41-7.9-66.06-5.65-5.65-20.33-6.78-20.33,18.68s-7.9,16.89-18.07,42.11c-10.16,25.21,18.63,42.54,18.63,42.54h15.81c12.42-6.21,24.69-24.44,11.86-37.26Z"/><line class="uuid-96b273d7-5d5b-4262-a2ff-9ff986306f37" x1="420.51" y1="546.42" x2="420.51" y2="640.03"/><line class="uuid-96b273d7-5d5b-4262-a2ff-9ff986306f37" x1="401.59" y1="603.91" x2="420.44" y2="622.76"/><line class="uuid-96b273d7-5d5b-4262-a2ff-9ff986306f37" x1="409.26" y1="581.81" x2="420.44" y2="592.99"/><line class="uuid-96b273d7-5d5b-4262-a2ff-9ff986306f37" x1="430.23" y1="603.91" x2="420.44" y2="613.7"/></g></g><g><line class="uuid-251d2321-7431-419d-b2fc-25b79095cf71" x1="21.04" y1="355.75" x2="175.46" y2="355.75"/><line class="uuid-251d2321-7431-419d-b2fc-25b79095cf71" x1="82.12" y1="348.58" x2="236.54" y2="348.58"/><line class="uuid-251d2321-7431-419d-b2fc-25b79095cf71" x1="197.83" y1="306.76" x2="352.25" y2="306.76"/><line class="uuid-251d2321-7431-419d-b2fc-25b79095cf71" x1="29.53" y1="296.9" x2="183.95" y2="296.9"/><line class="uuid-251d2321-7431-419d-b2fc-25b79095cf71" x1="258.9" y1="299.59" x2="413.32" y2="299.59"/><line class="uuid-251d2321-7431-419d-b2fc-25b79095cf71" x1="277.11" y1="329.63" x2="431.53" y2="329.63"/></g></g></g><g><g><path class="uuid-ed817b72-ea6d-4217-8754-c15bd5eefc55" d="M131.35,482.96l-5.17-36.52s17.92-9.8,43.15,0c-4.53,28.64-5.4,36.56-5.4,36.56l-32.58-.05Z"/><line class="uuid-79826f52-2c5b-44ac-b264-cf03c0e053c1" x1="129.21" y1="450.75" x2="166.29" y2="450.75"/><line class="uuid-79826f52-2c5b-44ac-b264-cf03c0e053c1" x1="127.94" y1="458.9" x2="167.38" y2="458.9"/><line class="uuid-79826f52-2c5b-44ac-b264-cf03c0e053c1" x1="129.09" y1="466.99" x2="166.15" y2="466.99"/><line class="uuid-79826f52-2c5b-44ac-b264-cf03c0e053c1" x1="130.34" y1="475.86" x2="164.87" y2="475.86"/><line class="uuid-79826f52-2c5b-44ac-b264-cf03c0e053c1" x1="126.78" y1="450.75" x2="168.64" y2="450.75"/><path class="uuid-79826f52-2c5b-44ac-b264-cf03c0e053c1" d="M137.62,450.75s-2.65-19.62,10.13-19.62,10.77,19.62,10.77,19.62"/></g><path class="uuid-97805b66-be12-491e-ab09-002e4a54b644" d="M247.39,368.31s1.27,1.82,.52,7.29c.75,4.45,2.23,7.47-.97,7.03-.65,4.71-2.87,6.84-11.05,5.03-6.5-1.44-7.37-11.75-3.25-18.93,4.12-7.18,12.52-6.02,14.74-.42Z"/><polygon class="uuid-97805b66-be12-491e-ab09-002e4a54b644" points="232.05 382.69 226.8 391.12 233.29 396.34 239.53 387.59 232.05 382.69"/><path class="uuid-ed817b72-ea6d-4217-8754-c15bd5eefc55" d="M216.66,525.71l5.18,2.82s7.89,3.49,6.23,10.27l-14.61-7.95,3.19-5.14Z"/><path class="uuid-97805b66-be12-491e-ab09-002e4a54b644" d="M195.66,421.7s-34.65,16.6-.09,36.45l42.3,21.63-21.22,45.93,5.45,2.88s28.2-33.99,32.6-51.96c4.4-17.98-59.05-54.92-59.05-54.92Z"/><circle class="uuid-c4d93721-81eb-4cd0-aa9f-e7097da41838" cx="154.39" cy="532.69" r="47.48" transform="translate(-115.98 48.44) rotate(-13.01)"/><circle class="uuid-c4d93721-81eb-4cd0-aa9f-e7097da41838" cx="297.75" cy="532.69" r="47.48" transform="translate(-112.3 80.72) rotate(-13.01)"/><polygon class="uuid-c4d93721-81eb-4cd0-aa9f-e7097da41838" points="222.65 532.69 154.39 532.69 191.27 470.19 274.83 470.19 297.75 532.69 222.65 532.69"/><path class="uuid-fee542cb-d827-4424-8496-3e47b1b0be53" d="M228.01,539.62l-15.24-8.1c-.39-.21-.53-.69-.33-1.08h0c.21-.39,.69-.53,1.08-.33l15.24,8.1c.39,.21,.53,.69,.33,1.08h0c-.21,.39-.69,.53-1.08,.33Z"/><path class="uuid-c4d93721-81eb-4cd0-aa9f-e7097da41838" d="M178.66,444.1l42.82,88.59,53.36-62.5-8.8-26.09s22.15-4.17,22.15,3.68-9.1,7.85-9.1,7.85"/><path class="uuid-fee542cb-d827-4424-8496-3e47b1b0be53" d="M189.36,449.67h-20.33c-1.84,0-3.34-1.5-3.34-3.34h0c0-1.84,1.5-3.34,3.34-3.34h20.33c1.84,0,3.34,1.5,3.34,3.34h0c0,1.84-1.5,3.34-3.34,3.34Z"/><path class="uuid-97805b66-be12-491e-ab09-002e4a54b644" d="M281.81,439.85s9.86,1.59,6.37,7.93c-4.55-1.56-10.28-5.24-10.28-5.24l3.9-2.68Z"/><path class="uuid-97805b66-be12-491e-ab09-002e4a54b644" d="M189.48,415.25s31.08-39.06,46.21-22.72c13.66,14.74-29.53,36.15-29.53,36.15l-16.68-13.43Z"/><path class="uuid-fee542cb-d827-4424-8496-3e47b1b0be53" d="M150.41,532.69c0,2.2,1.78,3.98,3.98,3.98s3.98-1.78,3.98-3.98-1.78-3.98-3.98-3.98-3.98,1.78-3.98,3.98Z"/><path class="uuid-ed817b72-ea6d-4217-8754-c15bd5eefc55" d="M182.18,421.7s18.71-22.85,32.41-29.26c14.79,10.85,19.73,22.07,19.73,22.07,0,0-16.28,12.86-25.61,14.72-6.89,1.38-26.53-7.54-26.53-7.54Z"/><path class="uuid-fee542cb-d827-4424-8496-3e47b1b0be53" d="M293.77,532.69c0,2.2,1.78,3.98,3.98,3.98s3.98-1.78,3.98-3.98-1.78-3.98-3.98-3.98-3.98,1.78-3.98,3.98Z"/><path class="uuid-97805b66-be12-491e-ab09-002e4a54b644" d="M240.38,427.33s-19.2-31.04-11.79-35.84c7.42-4.8,23.19,31.68,23.19,31.68l30.04,16.69-.92,3.14s-32.46-4.24-40.52-15.66Z"/><polyline class="uuid-c4d93721-81eb-4cd0-aa9f-e7097da41838" points="233.85 549.3 221.48 532.69 214.98 532.69"/><path class="uuid-ed817b72-ea6d-4217-8754-c15bd5eefc55" d="M228.02,541.99l6.19,1.15s8.49,1.55,8.46,8.53l-16.06-4.31,1.41-5.37Z"/><path class="uuid-97805b66-be12-491e-ab09-002e4a54b644" d="M189.48,415.25s-17.47,12.7-8.02,29.12c10.12,17.59,39.64,35.01,39.64,35.01l6.92,62.61,6.19,1.15s10.82-55.78,4.83-76.74c-5.99-20.96-49.57-51.15-49.57-51.15Z"/><path class="uuid-fee542cb-d827-4424-8496-3e47b1b0be53" d="M242.05,552.1l-16.78-4.06c-.43-.1-.69-.53-.59-.96h0c.1-.43,.53-.69,.96-.59l16.78,4.06c.43,.1,.69,.53,.59,.96h0c-.1,.43-.53,.69-.96,.59Z"/><path class="uuid-ed817b72-ea6d-4217-8754-c15bd5eefc55" d="M189.48,415.25s-27.06,14.92,0,43.77c27.06,28.85,21.24,63.94,21.24,63.94,0,0,27.77-11.55,35.09-37.74,7.32-26.19-19.88-50.65-56.33-69.96Z"/><path class="uuid-9eabc5b3-6e9d-40c0-81b8-ffb3d51d92bd" d="M240.86,362.15s-10.69-3.07-17.26,10.3c-6.57,13.36-34.11-14.9-42.27,5.84-27.38,3.14-24.45,19.13-15.62,22.86-11.9,11.9,13.43,31.74,32.93,16.2,12.27,9.65,26.72,6.36,33.51-17.95,3.81-12.06,1.83-25.83,8.72-26.72,6.44,3.33,10.16-.4,10.16-.4,0,0-.13-10.12-10.16-10.12Z"/><polygon class="uuid-c4d93721-81eb-4cd0-aa9f-e7097da41838" points="184.1 454.77 122.1 454.77 129.71 485.21 180.24 485.21 184.1 454.77"/><line class="uuid-c4d93721-81eb-4cd0-aa9f-e7097da41838" x1="124.2" y1="463.16" x2="183.04" y2="463.16"/><line class="uuid-c4d93721-81eb-4cd0-aa9f-e7097da41838" x1="126.34" y1="473.6" x2="181.95" y2="473.6"/><polygon class="uuid-fee542cb-d827-4424-8496-3e47b1b0be53" points="128.68 481.1 180.76 481.1 180.24 485.21 129.71 485.21 128.68 481.1"/><line class="uuid-c4d93721-81eb-4cd0-aa9f-e7097da41838" x1="133.81" y1="454.77" x2="133.81" y2="483.15"/><line class="uuid-c4d93721-81eb-4cd0-aa9f-e7097da41838" x1="147.75" y1="454.77" x2="147.75" y2="483.15"/><line class="uuid-c4d93721-81eb-4cd0-aa9f-e7097da41838" x1="161.69" y1="454.77" x2="161.69" y2="483.15"/><line class="uuid-c4d93721-81eb-4cd0-aa9f-e7097da41838" x1="175.63" y1="454.77" x2="175.63" y2="483.15"/></g></g></g></svg>