<?xml version="1.0" encoding="UTF-8"?><svg id="uuid-f4b4ae37-689a-4557-9e45-1821c3b7a251" xmlns="http://www.w3.org/2000/svg" width="179.59" height="238.99" xmlns:xlink="http://www.w3.org/1999/xlink" viewBox="0 0 179.59 238.99"><defs><style>.uuid-7f887315-f2e8-45f2-868b-625b5cb6d253{fill:#fff;}.uuid-284419c6-56e7-4143-9e8b-e40fa1dcddf8{clip-path:url(#uuid-da6b837d-9f6c-4f3f-8557-fc950fe89b51);}.uuid-d2f08d4d-c634-4ea9-9253-e48e99294148{fill:none;}.uuid-b0d84cae-d2b6-40d7-9c7d-9a9ad8cfe7e7{fill:#6ccc41;}</style><clipPath id="uuid-da6b837d-9f6c-4f3f-8557-fc950fe89b51"><rect class="uuid-d2f08d4d-c634-4ea9-9253-e48e99294148" x="25.44" y="77.6" width="92.22" height="81.1"/></clipPath></defs><g id="uuid-c4678488-09e8-437e-a76c-7da82197b21f"><rect class="uuid-b0d84cae-d2b6-40d7-9c7d-9a9ad8cfe7e7" x="25.44" y="77.6" width="92.22" height="81.1"/><g class="uuid-284419c6-56e7-4143-9e8b-e40fa1dcddf8"><path class="uuid-7f887315-f2e8-45f2-868b-625b5cb6d253" d="M38.7,108.5c-.16,0-.31-.04-.45-.12-.37-.22-.53-.68-.38-1.08l2.95-7.86-6.61-.25c-.31-.01-.58-.18-.74-.44-.15-.26-.16-.59-.02-.86l7.19-13.98c.16-.3,.47-.51,.82-.48l8.85,.24c.35,0,.66,.22,.8,.54,.14,.32,.07,.69-.16,.95l-8.3,9.11,6.94-.22c.37,0,.68,.19,.83,.51,.15,.32,.1,.7-.13,.97l-10.91,12.67c-.17,.2-.42,.31-.68,.31Zm-3.02-11.05l6.45,.24c.29,.01,.55,.16,.71,.4,.16,.24,.19,.54,.09,.81l-1.62,4.31,6.3-7.32-7.02,.22c-.37,.02-.69-.19-.84-.52-.15-.33-.09-.71,.15-.97l8.41-9.23-6.34-.17-6.29,12.23Z"/><path class="uuid-7f887315-f2e8-45f2-868b-625b5cb6d253" d="M76.88,114.75c-.12,.04-.25,.04-.38,.01-.33-.08-.56-.39-.54-.74l.43-6.67-5.09,1.34c-.24,.06-.49,0-.66-.17-.18-.17-.26-.41-.22-.65l2.25-12.31c.05-.27,.24-.5,.51-.56l6.8-1.86c.27-.07,.55,.02,.73,.23,.18,.21,.22,.51,.1,.76l-4.22,8.86,5.24-1.77c.28-.09,.56-.01,.75,.19,.19,.21,.24,.51,.13,.77l-5.39,12.17c-.09,.2-.25,.33-.44,.39Zm-4.86-7.72l4.97-1.3c.22-.06,.46,0,.63,.14,.18,.15,.27,.37,.26,.59l-.24,3.66,3.11-7.03-5.29,1.79c-.28,.1-.57,.01-.76-.2-.19-.21-.23-.52-.11-.78l4.27-8.98-4.87,1.33-1.97,10.77Z"/><path class="uuid-7f887315-f2e8-45f2-868b-625b5cb6d253" d="M31.92,128.08c-.1-.1-.18-.24-.22-.39-.1-.4,.1-.81,.47-.98l7.23-3.28-4.25-4.59c-.2-.21-.27-.51-.2-.79,.07-.28,.28-.5,.56-.59l14.16-4.54c.31-.1,.66-.03,.87,.22l5.76,6.08c.23,.24,.29,.59,.17,.9-.12,.31-.41,.51-.74,.53l-11.65,.55,4.79,4.49c.25,.25,.33,.58,.22,.9-.11,.32-.4,.54-.73,.56l-15.77,1.18c-.25,.02-.49-.08-.66-.25Zm5.37-9.41l4.15,4.48c.18,.2,.26,.47,.21,.74-.05,.27-.23,.49-.48,.6l-3.97,1.8,9.11-.68-4.84-4.55c-.26-.23-.33-.59-.21-.91s.41-.54,.75-.55l11.8-.55-4.12-4.35-12.39,3.97Z"/><path class="uuid-7f887315-f2e8-45f2-868b-625b5cb6d253" d="M100.89,142.29c23.39,0,42.41-19.03,42.41-42.42,0-12.4-5.43-24.14-14.89-32.22-2.57-2.2-5.23-6.56-5.23-10.06v-9.19h4.06V26.99c0-8.05-3.47-15.26-8.94-20.21C115.81,2.85,109.19,.13,101.16,.01c-.09,0-.18-.01-.27-.01-.03,0-.06,0-.09,0-.06,0-.12,0-.18,0-8.96,0-16.25,3.23-18.21,7.79-2.28,2.3-4.14,5.04-5.49,8.06l-.69-.08-.17,1.54,.25,.03c-1.13,3-1.77,6.24-1.77,9.65v21.42h4.06v9.19c0,3.5-2.66,7.86-5.24,10.06-9.46,8.08-14.89,19.82-14.89,32.22,0,23.39,19.03,42.42,42.42,42.42Zm-.36-139.57c6.19,0,11.21,1.51,11.46,3.4h-22.92c.25-1.89,5.28-3.4,11.46-3.4Zm-17.29,8.76h35.29c2.27,2.72,3.94,5.96,4.84,9.53l-43.21-4.79c.84-1.71,1.88-3.3,3.08-4.74Zm-3.77,6.22l44.26,4.91c.26,1.43,.41,2.89,.41,4.39v3.38l-46.42-5.15c.19-2.65,.78-5.19,1.75-7.53Zm-1.83,9.3c0-.07,0-.15,0-.22l46.36,5.14,.14-1.26v9l-46.51-5.16v-7.5Zm0,18.32v-9.26l46.37,5.14,.14-1.26v5.38h-46.51Zm31.8,59.26c-1.14-.44-2.37-.66-3.58-.66-1.53,0-3.02,.34-4.3,.96-1.16-.62-2.5-.96-3.88-.96-.88,0-1.77,.14-2.62,.43-.07-.76-.37-1.54-.95-2.27-1.15-1.44-3.29-2.57-5.66-2.57-.24,0-.49,.03-.73,.06l7.14-24.47c1.16,2.5,3.67,4.24,6.6,4.24s5.54-1.8,6.67-4.37l8.19,24.57c-.09,0-.18-.02-.27-.02-2.37,0-4.5,1.14-5.66,2.57-.64,.8-.94,1.67-.95,2.5Zm-6.46,2.57c1.61,2.21,.95,5.03-1.42,6.61-2.63-1.57-3.37-4.4-1.58-6.61,.43-.53,.97-.97,1.58-1.33,.55,.36,1.04,.81,1.42,1.33Zm-7.27-35.11v-23.63h11.48v23.63c0,3.17-2.58,5.74-5.74,5.74s-5.74-2.58-5.74-5.74Zm-20.33-2.03c3.14-2.68,6.32-7.81,6.32-12.41v-9.19h12.46v23.52l-8.26,28.32,.47,.14,.07,.2c.11-.04,.23-.05,.35-.08l.6,.18,.1-.34c2.49-.37,4.84,.74,6.02,2.21,.56,.69,.8,1.41,.79,2.09-.09,.04-.18,.07-.26,.11l.24,.33c-.05,.25-.14,.49-.27,.72l.67,.39c.19-.32,.31-.66,.37-1.01,1.85-.73,3.97-.64,5.68,.15-.62,.39-1.18,.86-1.62,1.41-2.11,2.6-1.18,5.94,2.02,7.72l.24,.33c.07-.03,.13-.07,.2-.11,.08,.04,.14,.08,.22,.11l.38-.47c2.7-1.81,3.46-5.05,1.61-7.58-.38-.53-.86-.98-1.4-1.36,2.1-.92,4.79-.97,7.02,.03l.1-.12c.07,.31,.17,.62,.34,.9l.67-.39c-.57-.97-.39-2.15,.5-3.25,1.11-1.39,3.26-2.43,5.59-2.24l.13,.4,.77-.26c.19,.04,.39,.07,.58,.14l.12-.37h0s.12-.37,.12-.37c-.09-.03-.17-.04-.26-.06l-9.29-27.88v-23.5h11.35v9.19c0,4.61,3.18,9.73,6.32,12.41,8.77,7.49,13.8,18.37,13.8,29.86,0,21.68-17.64,39.32-39.32,39.32s-39.32-17.64-39.32-39.32c0-11.49,5.03-22.38,13.8-29.86Z"/><g><path class="uuid-7f887315-f2e8-45f2-868b-625b5cb6d253" d="M70.87,130.66c-16.54,16.54-16.54,43.45,0,59.98,8.77,8.77,20.91,13.23,33.31,12.25,3.37-.27,8.34,.94,10.81,3.41l6.5,6.5-2.87,2.87,15.14,15.14c5.69,5.69,13.25,8.33,20.61,7.96,4.54,1.02,11.13-1.73,16.9-7.33,.06-.06,.14-.12,.2-.18,.02-.02,.04-.05,.06-.07,.04-.04,.09-.08,.13-.12,6.34-6.34,9.2-13.77,7.37-18.39-.02-3.24-.63-6.49-1.82-9.58l.54-.43-.97-1.21-.2,.16c-1.32-2.92-3.16-5.67-5.57-8.07l-15.14-15.14-2.87,2.87-6.5-6.5c-2.47-2.47-3.68-7.44-3.41-10.82,.98-12.4-3.49-24.54-12.25-33.31-16.54-16.54-43.45-16.54-59.99,0Zm98.95,98.44c-4.37,4.37-9,6.86-10.51,5.7l16.21-16.21c1.16,1.51-1.33,6.14-5.7,10.51Zm6.03-18.42l-24.96,24.96c-3.53-.32-7-1.43-10.16-3.32l33.94-27.17c.61,1.81,1.01,3.66,1.18,5.53Zm-1.73-7.07l-34.77,27.83c-1.19-.82-2.33-1.75-3.4-2.81l-2.39-2.39,36.46-29.18c1.74,2.01,3.12,4.22,4.09,6.56Zm-5.28-7.87c.05,.05,.1,.11,.15,.16l-36.41,29.15,.79,.99-6.36-6.36,36.53-29.24,5.3,5.3Zm-12.96-12.96l6.55,6.55-36.42,29.15,.79,.99-3.81-3.81,32.89-32.89Zm-64.39-19.42c1.12-.5,2.14-1.21,3-2.07,1.08-1.08,1.9-2.38,2.37-3.72,1.26-.38,2.45-1.09,3.42-2.06,.62-.62,1.15-1.35,1.55-2.15,.59,.49,1.35,.83,2.28,.93,1.83,.2,4.15-.51,5.82-2.18,.17-.17,.32-.37,.48-.56l12.26,22.35c-2.58-.95-5.59-.4-7.66,1.67-2.11,2.11-2.64,5.19-1.63,7.81l-23.16-11.58c.07-.06,.14-.11,.2-.18,1.67-1.67,2.38-3.99,2.18-5.82-.11-1.02-.52-1.84-1.1-2.44Zm2.75-6.39c-2.7-.42-4.23-2.89-3.67-5.68,2.97-.75,5.49,.73,5.79,3.56,.07,.68,0,1.37-.17,2.06-.65,.13-1.3,.16-1.95,.06Zm29.96,19.69l16.71,16.71-8.12,8.12-16.71-16.71c-2.24-2.24-2.24-5.88,0-8.12s5.88-2.24,8.12,0Zm15.81-12.94c-.33,4.12,1.05,9.99,4.31,13.25l6.5,6.5-8.81,8.81-16.63-16.63-14.19-25.87-.43,.24-.19-.1c-.05,.11-.13,.2-.19,.3l-.55,.3,.17,.31c-1.5,2.02-3.94,2.9-5.82,2.69-.88-.09-1.56-.43-2.03-.92,.03-.09,.08-.17,.11-.26l-.4-.06c-.14-.21-.25-.44-.32-.7l-.75,.2c.09,.36,.25,.68,.45,.98-.79,1.83-2.35,3.26-4.13,3.91,.16-.72,.22-1.44,.15-2.14-.35-3.33-3.37-5.03-6.89-4.03l-.4-.06c-.02,.07-.04,.15-.06,.22-.08,.03-.16,.05-.23,.08l.06,.61c-.63,3.19,1.12,6.01,4.22,6.5,.64,.1,1.3,.08,1.95-.02-.84,2.13-2.7,4.08-4.98,4.94v.15c-.25-.17-.54-.31-.86-.4l-.2,.75c1.09,.28,1.79,1.25,1.95,2.65,.19,1.77-.59,4.03-2.36,5.54l-.37-.19-.36,.73c-.17,.11-.32,.22-.51,.31l.18,.34h0s.18,.34,.18,.34c.08-.04,.15-.1,.23-.14l26.29,13.14,16.62,16.62-8.03,8.03-6.5-6.5c-3.26-3.26-9.13-4.63-13.25-4.31-11.5,.91-22.75-3.23-30.88-11.36-15.33-15.33-15.33-40.28,0-55.61,15.33-15.33,40.28-15.33,55.61,0,8.13,8.13,12.26,19.38,11.36,30.88Z"/><path class="uuid-7f887315-f2e8-45f2-868b-625b5cb6d253" d="M46.84,229.85c-25.83,0-46.84-21.01-46.84-46.84s21.01-46.84,46.84-46.84,46.84,21.01,46.84,46.84-21.01,46.84-46.84,46.84Zm0-90.68c-24.17,0-43.84,19.67-43.84,43.84s19.67,43.84,43.84,43.84,43.84-19.67,43.84-43.84-19.67-43.84-43.84-43.84Z"/></g></g></g></svg>