<?xml version="1.0" encoding="UTF-8"?><svg id="uuid-fdc657de-f6b4-4fb3-91d1-5674fba0e4cb" xmlns="http://www.w3.org/2000/svg" width="126.14" height="215.68" xmlns:xlink="http://www.w3.org/1999/xlink" viewBox="0 0 126.14 215.68"><defs><style>.uuid-98b7e817-fab7-494d-aa9d-eab9d9bcff8a{fill:#f07f54;}.uuid-e1f8c5e2-0d25-4d25-b26a-7da0a5a3fc31{clip-path:url(#uuid-70ef3a26-437d-4a9c-a682-70705de4532a);}.uuid-9d09a00e-1630-4a4d-a8e8-4cf6fd076e40{fill:none;}.uuid-c906c837-9d38-4069-9d81-bf8a0a129e27{fill:#ededed;}</style><clipPath id="uuid-70ef3a26-437d-4a9c-a682-70705de4532a"><rect class="uuid-9d09a00e-1630-4a4d-a8e8-4cf6fd076e40" x="13.27" y="25.76" width="92.22" height="171.73"/></clipPath></defs><g id="uuid-0184fadf-0f2d-4fc6-aaec-a89fe3f871eb"><rect class="uuid-c906c837-9d38-4069-9d81-bf8a0a129e27" x="13.27" y="25.76" width="92.22" height="171.73"/><g class="uuid-e1f8c5e2-0d25-4d25-b26a-7da0a5a3fc31"><path class="uuid-98b7e817-fab7-494d-aa9d-eab9d9bcff8a" d="M27.82,112.59c-.84,.94-5.07,5.69-5.49,7.5-.5,2.15,1.02,4.34,3.39,4.89,2.37,.55,4.7-.75,5.2-2.89,.42-1.81-1.28-7.94-1.62-9.15-.17-.61-1.06-.81-1.49-.34Zm1.41,9.1c-.28,1.21-1.68,1.92-3.11,1.59-1.43-.33-2.37-1.59-2.09-2.8,.19-.84,2.21-3.42,4.02-5.52,.7,2.68,1.37,5.89,1.18,6.73Zm18.95-24.03c-1.3-2.51-8.11-5.09-14.58-6.59-6.47-1.5-13.72-2.19-16-.51-.31,.07-.57,.32-.64,.65l-9.34,40.21c-.69,2.95,7.14,6.94,14.59,8.67,7.45,1.73,16.24,1.6,16.92-1.35l9.34-40.21c.08-.33-.05-.66-.29-.87Zm-8.23,29.88c-.46,.82-5.89,1.29-14.65-.75-8.77-2.04-13.43-4.85-13.48-5.77l3.63-15.64c2.71,2.34,9.21,4.37,13.57,5.38,4.36,1.01,11.09,2.06,14.55,1.15l-3.63,15.63Zm4.12-17.73c-.46,.82-5.88,1.29-14.65-.75-8.77-2.04-13.44-4.85-13.48-5.77l2.14-9.2c2.71,2.34,9.21,4.37,13.57,5.38,4.36,1.01,11.09,2.06,14.55,1.15l-2.13,9.18Zm-10.86-17.04c8.18,1.9,13.15,4.61,13.46,5.76,0,0,0,0,0,.01-.53,.81-5.93,1.26-14.63-.76-8.72-2.03-13.38-4.82-13.47-5.76,0,0,0-.01,.01-.02,.79-.89,6.45-1.14,14.62,.76Zm-10.59,45.63c-8.26-1.92-13.35-5.56-13.29-6.58l2.02-8.71c2.71,2.34,9.21,4.37,13.57,5.38,4.36,1.01,11.09,2.06,14.55,1.15l-2.02,8.7c-.4,.95-6.57,1.97-14.83,.06Z"/><path d="M93.14,94.37c.81,1.34,1.59,2.63,2.34,3.8l-4.54,3.19c-.44,.31-.65,.86-.54,1.39,.12,.53,.54,.93,1.07,1.03l18.62,3.31c.08,.01,.16,.02,.24,.02,.63,0,1.18-.44,1.31-1.07,.59-2.89,1.05-5.44,1.51-7.96,.59-3.27,1.15-6.35,1.96-10.12,.12-.54-.11-1.09-.57-1.4-.46-.3-1.06-.29-1.51,.02-1.28,.9-2.14,1.49-3.03,2.09-.43,.29-.87,.59-1.37,.93-.32-.56-.65-1.17-1-1.8-2.47-4.5-5.54-10.11-10.15-10.67-3.39-.41-7.76-.69-11.99-.96-2.22-.14-4.35-.28-6.1-.42-.42-.05-.72-.06-1.02,.06-4.93,2.01-7.9,7.57-10.53,12.48-.77,1.45-1.51,2.81-2.26,4.06-.19,.32-.24,.7-.15,1.05,.1,.35,.34,.65,.66,.83l13.15,6.97c.63,.33,1.4,.12,1.77-.49l7.93-13.01c1.49,2.2,2.91,4.54,4.2,6.66Zm-5.42-9.8l-8.34,13.68-10.8-5.72c.54-.95,1.07-1.94,1.62-2.97,2.47-4.62,5.02-9.39,8.9-11.15,0,0,.01,0,.02,0,1.82,.15,3.96,.28,6.2,.42,4.2,.27,8.53,.54,11.84,.94,3.25,.4,5.95,5.33,8.13,9.3,.63,1.14,1.22,2.22,1.79,3.14,.19,.31,.51,.53,.87,.6,.36,.08,.73,0,1.03-.21,1.03-.72,1.79-1.23,2.53-1.73,.1-.07,.2-.14,.31-.21-.49,2.46-.9,4.72-1.3,6.92-.38,2.13-.77,4.27-1.24,6.63l-14.16-2.51,2.96-2.08c.6-.42,.75-1.24,.34-1.84-.92-1.38-1.93-3.04-2.99-4.79-1.63-2.69-3.48-5.75-5.45-8.46-.25-.38-.71-.61-1.14-.6-.46,0-.88,.25-1.12,.64Zm-8.59,43.74l-15.19-1.14c1.28-2.34,2.73-4.68,4.03-6.79,.82-1.33,1.61-2.61,2.31-3.8l4.9,2.59c.48,.25,1.06,.19,1.48-.15,.42-.34,.59-.91,.43-1.42l-5.54-18.09c-.21-.7-.94-1.1-1.64-.9-2.82,.79-5.28,1.53-7.71,2.27-3.19,.96-6.21,1.87-9.95,2.87-.53,.14-.92,.6-.99,1.14-.06,.55,.22,1.08,.71,1.34,1.37,.72,2.28,1.22,3.21,1.73,.47,.26,.94,.52,1.48,.81-.36,.55-.75,1.13-1.16,1.72-2.88,4.25-6.46,9.53-4.87,13.9,1.19,3.23,2.95,7.3,4.65,11.23,.87,2,1.7,3.92,2.35,5.49,.06,.16,.11,.3,.18,.44,.08,.18,.2,.34,.35,.47,4.03,3.47,10.31,3.59,15.86,3.7,1.65,.03,3.21,.06,4.68,.17,.03,0,.07,0,.1,0,.33,0,.66-.12,.9-.35,.27-.25,.43-.6,.44-.97l.23-14.89c.01-.71-.53-1.3-1.24-1.36Zm-1.65,14.81c-1.1-.05-2.23-.07-3.41-.09-5.22-.1-10.61-.2-13.92-2.85,0-.01,0-.02-.01-.03-.69-1.66-1.52-3.59-2.4-5.61-1.61-3.71-3.43-7.93-4.59-11.08-1.13-3.08,2.03-7.73,4.57-11.47,.73-1.08,1.43-2.1,1.99-3.04,.19-.31,.24-.69,.14-1.05-.1-.35-.34-.65-.66-.82-1.12-.6-1.93-1.04-2.72-1.47-.1-.05-.2-.11-.3-.16,2.43-.69,4.64-1.36,6.8-2.01,2.05-.62,4.12-1.24,6.4-1.9l4.21,13.76-3.2-1.69c-.64-.34-1.44-.1-1.79,.53-.81,1.45-1.82,3.09-2.9,4.83-1.66,2.68-3.54,5.73-5.06,8.73-.02,.03-.05,.11-.07,.15-.16,.4-.12,.85,.1,1.21,.23,.36,.61,.6,1.04,.63l15.97,1.2-.19,12.23Zm40.13-37.52c-.19-.32-.5-.55-.86-.63-.36-.08-.74-.01-1.04,.19l-12.38,8.25c-.59,.39-.77,1.18-.42,1.79l7.66,13.18c-2.69,.28-5.47,.41-7.99,.53-1.52,.07-2.98,.15-4.32,.24l-.64-5.52c-.06-.54-.44-.99-.96-1.13-.52-.15-1.08,.03-1.42,.46l-11.76,14.82c-.45,.57-.37,1.39,.19,1.86,2.28,1.91,4.31,3.54,6.33,5.15,2.57,2.06,5.01,4.01,7.91,6.5,.25,.21,.56,.32,.87,.32,.22,0,.43-.05,.63-.16,.49-.26,.76-.79,.7-1.34-.19-1.59-.29-2.64-.4-3.74-.05-.5-.1-1-.16-1.57,.64-.01,1.33-.02,2.04-.02,5.14-.03,11.54-.06,14.24-3.86,1.97-2.79,4.31-6.52,6.57-10.13,1.17-1.87,2.3-3.67,3.26-5.15,.09-.13,.16-.24,.23-.35,.11-.17,.17-.36,.19-.56,.58-5.29-2.89-10.55-5.95-15.18-.91-1.38-1.77-2.68-2.51-3.95Zm5.8,18.56c-.99,1.52-2.12,3.33-3.3,5.22-2.24,3.58-4.56,7.28-6.49,10-1.9,2.68-7.53,2.71-12.06,2.73-1.29,0-2.51,.01-3.59,.08-.37,.02-.71,.19-.94,.48-.24,.28-.35,.65-.31,1.01,.14,1.22,.23,2.11,.31,2.98,.02,.15,.03,.3,.05,.45-1.91-1.59-3.68-3-5.41-4.39-1.7-1.36-3.41-2.74-5.28-4.28l8.94-11.27,.42,3.6c.08,.72,.73,1.26,1.45,1.18,1.62-.15,3.51-.24,5.51-.34,3.18-.16,6.79-.33,10.18-.79,.45-.05,.85-.32,1.05-.73,.2-.4,.19-.89-.04-1.28l-8.06-13.85,10.17-6.77c.58,.93,1.2,1.88,1.85,2.86,2.88,4.36,5.85,8.87,5.55,13.11l-.02,.02Z"/><path class="uuid-98b7e817-fab7-494d-aa9d-eab9d9bcff8a" d="M51.34,.58c-.37-.55-1.09-.74-1.68-.44L.73,24.62c-.58,.29-.86,.96-.66,1.58l13.54,42.21c.12,.37,.39,.66,.74,.81,.35,.15,.76,.14,1.1-.04l22.43-11.22,1.58,13.65-6.85,3.42c-.65,.32-.91,1.12-.59,1.76l2.3,4.59c.32,.65,1.12,.91,1.76,.59l39.59-19.81c.65-.32,.91-1.12,.59-1.76l-2.3-4.59c-.32-.65-1.12-.91-1.76-.59l-8.86,4.43-9.97-9.45,22.13-11.07s.02,0,.03-.01c.65-.33,.91-1.12,.59-1.76-.07-.14-.16-.26-.26-.36L51.34,.58ZM9.73,47.72l8.87-4.44,2.9,7.77-9.23,4.62-2.55-7.95Zm-3.36-10.48l8.4-4.2,2.9,7.77-8.76,4.38-2.55-7.95ZM60.73,19.26l-8.6,4.3-4.28-7.08,8.24-4.12,4.64,6.9Zm-10.96,5.49l-8.52,4.26-3.89-7.28,8.13-4.07,4.28,7.08Zm-18.85,9.43l-3.3-7.57,7.39-3.7,3.89,7.28-7.98,3.99Zm9.22-1.67l3.89,7.28-8.75,4.38-3.3-7.57,8.16-4.08Zm-4.01-13.1l-4.01-7.5s-.02-.02-.03-.04l7.64-3.82c.02,.06,.03,.12,.06,.18l4.34,7.18-8,4.01Zm-2.35,1.18l-7.2,3.6-3.36-7.71s-.06-.08-.09-.13l6.64-3.32s.01,.08,.03,.11l3.97,7.44Zm-12.97-3.06l3.41,7.84-8,4-2.93-7.84c-.03-.07-.08-.12-.12-.19l7.64-3.82s0,0,0,.01Zm4.46,10.25l3.3,7.57-8.52,4.26-2.91-7.77,8.13-4.07Zm-4.3,14.31l8.65-4.33,3.3,7.57-9.04,4.52-2.9-7.77Zm12.99,5.66l3.3,7.57-9.56,4.78-2.91-7.77,9.16-4.59Zm2.36-1.18l8.94-4.47,3.89,7.28-9.53,4.77-3.3-7.57Zm11.3-5.65l9.17-4.59,4.28,7.08-9.56,4.78-3.89-7.28Zm-1.24-2.32l-3.89-7.28,8.65-4.33,4.28,7.08-9.04,4.52Zm7.12-12.78l8.72-4.36,4.64,6.9-9.08,4.54-4.28-7.08Zm1.12-15.66l-8.13,4.07-4.43-7.34,7.75-3.88,4.81,7.15ZM2.91,26.47l7.92-3.96,3.01,8.05-8.29,4.15-2.64-8.23Zm10.18,31.73l9.34-4.67,2.9,7.77-9.7,4.85-2.55-7.95Zm60.23,2.21l-37.24,18.63-1.12-2.24,37.24-18.63,1.12,2.24Zm-31.36,9.95l-1.58-13.65,10.48-5.25,9.97,9.45-18.88,9.44Zm21.46-28.12l-4.28-7.08,9.2-4.6,4.64,6.9-9.56,4.78Z"/><path class="uuid-98b7e817-fab7-494d-aa9d-eab9d9bcff8a" d="M58.27,163.52h-5.64v-9.92c0-.61-.5-1.11-1.11-1.11h-3.13c-.61,0-1.11,.5-1.11,1.11v9.92h-15.34v-9.92c0-.61-.5-1.11-1.11-1.11h-3.12c-.61,0-1.11,.5-1.11,1.11v9.92h-5.64c-.61,0-1.11,.5-1.11,1.11v5.95c0,.61,.5,1.11,1.11,1.11H58.27c.61,0,1.11-.5,1.11-1.11v-5.95c0-.61-.5-1.11-1.11-1.11Zm-8.77-8.81h.9v8.81h-.9v-8.81Zm-20.69,0h.9v8.81h-.9v-8.81Zm28.34,14.76H22.06v-3.73H57.16v3.73Zm.24,3.63H21.82c-.61,0-1.11,.5-1.11,1.11v13.21c0,.13,.02,.26,.07,.38l4.59,12.74c.16,.44,.58,.74,1.05,.74h9.44v13.29c0,.61,.5,1.11,1.11,1.11h5.3c.61,0,1.11-.5,1.11-1.11v-13.29h9.44c.47,0,.89-.29,1.05-.74l4.59-12.74c.04-.12,.06-.25,.06-.38v-13.21c0-.61-.5-1.11-1.11-1.11Zm-16.25,40.35h-3.07v-12.18h3.07v12.18Zm15.14-26.23l-4.26,11.83H27.19l-4.26-11.83v-11.9H56.29v11.9Zm-25.46,.98c1.47,0,2.67-1.2,2.67-2.67s-1.2-2.67-2.67-2.67-2.67,1.2-2.67,2.67,1.2,2.67,2.67,2.67Zm0-3.13c.25,0,.45,.2,.45,.45s-.2,.45-.45,.45-.45-.2-.45-.45,.2-.45,.45-.45Zm17.57,3.13c1.47,0,2.67-1.2,2.67-2.67s-1.2-2.67-2.67-2.67-2.67,1.2-2.67,2.67,1.2,2.67,2.67,2.67Zm0-3.13c.25,0,.45,.2,.45,.45s-.2,.45-.45,.45-.45-.2-.45-.45,.2-.45,.45-.45Z"/><path d="M73.76,191.41c-.17,.01-.34-.01-.5-.09-.42-.2-.64-.68-.51-1.13l2.44-8.72-7.13,.34c-.33,.02-.64-.14-.83-.41-.19-.27-.23-.62-.1-.92l6.44-15.69c.14-.34,.45-.6,.83-.6l9.53-.56c.38-.02,.73,.18,.91,.51,.18,.33,.14,.74-.09,1.04l-8.07,10.56,7.44-.88c.4-.04,.75,.14,.94,.47,.19,.33,.17,.74-.05,1.05l-10.55,14.63c-.17,.23-.43,.37-.7,.4Zm-4.27-11.59l6.95-.33c.31-.01,.61,.12,.8,.36,.19,.24,.26,.56,.17,.86l-1.34,4.79,6.1-8.45-7.52,.89c-.39,.06-.76-.14-.95-.48-.19-.34-.16-.75,.07-1.06l8.18-10.7-6.83,.4-5.63,13.73Z"/><path d="M88.18,42.41c-.17,.01-.34-.01-.5-.09-.42-.2-.64-.68-.51-1.13l2.44-8.72-7.13,.34c-.33,.02-.64-.14-.83-.41-.19-.27-.23-.62-.1-.92l6.44-15.69c.14-.34,.45-.6,.83-.6l9.53-.56c.38-.02,.73,.18,.91,.51,.18,.33,.14,.74-.09,1.04l-8.07,10.56,7.44-.88c.4-.04,.75,.14,.94,.47,.19,.33,.17,.74-.05,1.05l-10.55,14.63c-.17,.23-.43,.37-.7,.4Zm-4.27-11.59l6.95-.33c.31-.01,.61,.12,.8,.36,.19,.24,.26,.56,.17,.86l-1.34,4.79,6.1-8.45-7.52,.89c-.39,.06-.76-.14-.95-.48-.19-.34-.16-.75,.07-1.06l8.18-10.7-6.83,.4-5.63,13.73Z"/><path class="uuid-98b7e817-fab7-494d-aa9d-eab9d9bcff8a" d="M101.58,204.75c-.28,.02-.56-.02-.83-.15-.7-.34-1.05-1.12-.84-1.87l4.05-14.44-11.8,.57c-.54,.03-1.06-.23-1.38-.67-.31-.44-.38-1.02-.17-1.52l10.66-25.98c.23-.57,.75-.99,1.38-.99l15.78-.93c.62-.04,1.21,.29,1.5,.84,.29,.55,.24,1.22-.14,1.72l-13.37,17.49,12.31-1.46c.66-.06,1.24,.23,1.56,.77,.32,.55,.29,1.23-.08,1.74l-17.47,24.22c-.28,.39-.71,.62-1.16,.66Zm-7.08-19.2l11.51-.55c.51-.02,1,.2,1.32,.6,.32,.4,.43,.93,.29,1.42l-2.22,7.93,10.1-14-12.45,1.47c-.65,.09-1.26-.24-1.57-.79-.32-.56-.27-1.25,.12-1.76l13.54-17.72-11.31,.67-9.32,22.74Z"/><path class="uuid-98b7e817-fab7-494d-aa9d-eab9d9bcff8a" d="M93.06,67.16c-.09,.06-.2,.1-.32,.11-.31,.02-.59-.19-.66-.49l-1.41-5.88-4.05,2.52c-.19,.12-.42,.13-.62,.03-.2-.09-.33-.29-.36-.5l-1.34-11.25c-.03-.25,.07-.5,.29-.62l5.38-3.42c.21-.14,.48-.13,.69,0,.21,.14,.32,.38,.29,.63l-1.28,8.79,4.05-2.93c.22-.15,.48-.16,.7-.03,.22,.13,.34,.38,.31,.63l-1.4,11.96c-.02,.19-.13,.36-.28,.46Zm-6.26-5.38l3.95-2.45c.18-.11,.39-.13,.58-.05,.19,.08,.33,.24,.38,.45l.77,3.23,.81-6.91-4.1,2.96c-.21,.16-.49,.16-.71,.03-.22-.13-.34-.39-.3-.64l1.3-8.9-3.85,2.45,1.17,9.84Z"/><path class="uuid-98b7e817-fab7-494d-aa9d-eab9d9bcff8a" d="M55.75,94.62c-.09,.01-.18,0-.26-.04-.22-.1-.34-.34-.28-.58l1.14-4.57-3.7,.29c-.17,.01-.34-.06-.44-.2-.1-.14-.13-.32-.07-.48l3.11-8.26c.07-.18,.23-.32,.42-.32l4.95-.44c.2-.02,.38,.08,.48,.25,.1,.17,.09,.38-.03,.54l-4.04,5.62,3.85-.57c.21-.03,.39,.06,.5,.23,.11,.17,.1,.38,0,.55l-5.26,7.77c-.08,.12-.22,.2-.36,.22Zm-2.4-5.96l3.61-.28c.16-.01,.32,.05,.42,.18,.1,.12,.14,.29,.1,.44l-.62,2.51,3.04-4.49-3.9,.58c-.2,.04-.4-.06-.5-.23-.1-.17-.1-.39,.02-.55l4.09-5.69-3.54,.31-2.72,7.23Z"/></g></g></svg>