<?xml version="1.0" encoding="UTF-8"?><svg id="uuid-9884af53-bda2-44dd-b4f3-c97d76cbd288" xmlns="http://www.w3.org/2000/svg" width="92.22" height="81.1" viewBox="0 0 92.22 81.1"><defs><style>.uuid-6414c423-5955-47dc-8f3f-49e2652a8d9f{fill:#4accd4;}.uuid-87b7d4fb-3b88-46f0-8d4f-b21fa6932224{fill:#ededed;}</style></defs><g id="uuid-553929a9-5cff-4ef7-9877-1d29226a4584"><rect class="uuid-87b7d4fb-3b88-46f0-8d4f-b21fa6932224" width="92.22" height="81.1"/><g><g><path class="uuid-6414c423-5955-47dc-8f3f-49e2652a8d9f" d="M66.9,42.99c6.92,6.27,9.97,11.95,8.35,14.77-1.04,1.8-3.84,2.18-6,2.18-3.03,0-6.82-.73-10.96-2.07,.53-2.84,.94-5.94,1.18-9.23,2.73-1.85,5.23-3.75,7.43-5.65Z"/><path class="uuid-6414c423-5955-47dc-8f3f-49e2652a8d9f" d="M47.37,9.47c3.24,0,6.64,5.47,8.62,14.6-2.78,.97-5.67,2.18-8.62,3.61-2.95-1.43-5.85-2.64-8.62-3.61,1.98-9.13,5.36-14.6,8.62-14.6Z"/><path class="uuid-6414c423-5955-47dc-8f3f-49e2652a8d9f" d="M35.26,48.64c.24,3.28,.64,6.38,1.19,9.23-4.15,1.33-7.93,2.07-10.96,2.07-2.17,0-4.95-.38-6-2.19-1.27-2.18,.3-6.06,4.3-10.63,1.19-1.37,2.56-2.74,4.07-4.11,2.22,1.91,4.71,3.81,7.39,5.63Z"/></g><g><path d="M67.14,40.54c7.31,6.71,10.86,13.21,8.6,17.11-.83,1.45-2.86,3.2-7.74,3.2-3.22,0-7.12-.73-11.38-2.09-2.15,9.67-6.02,16-10.5,16s-8.35-6.33-10.51-16c-4.25,1.35-8.15,2.09-11.37,2.09-4.89,0-6.91-1.74-7.75-3.2-1.75-3.03-.14-7.64,4.53-12.98,1.19-1.37,2.56-2.75,4.07-4.13-1.51-1.38-2.89-2.76-4.07-4.13-4.67-5.34-6.28-9.95-4.53-12.98,.84-1.45,2.86-3.2,7.75-3.2,3.22,0,7.12,.73,11.37,2.09,2.17-9.67,6.02-16,10.51-16s8.35,6.33,10.5,16c4.26-1.35,8.16-2.09,11.38-2.09,4.87,0,6.91,1.74,7.75,3.2,2.24,3.9-1.31,10.4-8.62,17.11Zm-1.49-1.33c6.92-6.27,9.97-11.96,8.35-14.77-1.04-1.81-3.84-2.19-6-2.19-3.03,0-6.82,.74-10.96,2.07,.53,2.85,.94,5.95,1.18,9.23,2.73,1.85,5.23,3.76,7.43,5.66Zm8.35,17.43c1.62-2.82-1.43-8.49-8.35-14.77-2.2,1.9-4.7,3.8-7.43,5.65-.23,3.29-.64,6.38-1.18,9.23,4.14,1.33,7.93,2.07,10.96,2.07,2.15,0,4.95-.38,6-2.18Zm-9.86-16.1c-1.73-1.47-3.65-2.95-5.77-4.44,.07,1.45,.1,2.93,.1,4.44s-.03,2.99-.1,4.44c2.12-1.49,4.04-2.98,5.77-4.44Zm-7.69,0c0-2.03-.07-3.99-.18-5.86-1.57-1.04-3.23-2.07-4.99-3.09-1.72-.99-3.44-1.91-5.16-2.76-1.72,.85-3.45,1.78-5.16,2.76-1.73,1-3.4,2.03-5,3.1-.11,1.88-.18,3.83-.18,5.85s.07,3.97,.18,5.85c1.6,1.05,3.26,2.1,4.99,3.1,1.72,.99,3.45,1.91,5.17,2.76,1.72-.86,3.44-1.78,5.16-2.76,1.75-1.02,3.42-2.05,4.99-3.09,.11-1.88,.18-3.83,.18-5.86Zm-.36-8.39c-.22-2.56-.56-4.96-.95-7.17-2.18,.77-4.43,1.69-6.72,2.74,1.29,.67,2.59,1.38,3.87,2.12,1.31,.76,2.56,1.53,3.8,2.31Zm-.95,23.96c.4-2.22,.73-4.62,.95-7.18-1.22,.79-2.49,1.55-3.8,2.31-1.29,.75-2.59,1.45-3.87,2.13,2.29,1.05,4.54,1.97,6.72,2.74Zm-.4-33.15c-1.98-9.13-5.37-14.6-8.62-14.6s-6.64,5.47-8.62,14.6c2.76,.97,5.66,2.18,8.62,3.61,2.94-1.43,5.84-2.64,8.62-3.61Zm-8.62,49.77c3.24,0,6.64-5.47,8.62-14.6-2.78-.97-5.67-2.19-8.62-3.61-2.95,1.43-5.85,2.64-8.62,3.61,1.98,9.13,5.36,14.6,8.62,14.6Zm-6.18-42.89c1.3-.74,2.59-1.45,3.87-2.12-2.29-1.05-4.54-1.98-6.71-2.74-.41,2.22-.73,4.62-.97,7.18,1.24-.79,2.5-1.57,3.8-2.32Zm3.87,23.53c-1.29-.68-2.58-1.38-3.87-2.13-1.3-.74-2.55-1.52-3.8-2.32,.23,2.58,.56,4.97,.97,7.19,2.17-.77,4.42-1.69,6.71-2.74Zm-9.8-19.81c.24-3.29,.64-6.38,1.19-9.24-4.15-1.32-7.93-2.07-10.96-2.07-2.17,0-4.95,.38-6,2.19-1.27,2.19,.3,6.06,4.3,10.64,1.19,1.37,2.56,2.74,4.07,4.11,2.22-1.91,4.71-3.81,7.39-5.63Zm1.19,23.19c-.54-2.84-.94-5.95-1.19-9.23-2.69-1.82-5.17-3.72-7.39-5.63-1.51,1.37-2.89,2.74-4.07,4.11-4,4.56-5.56,8.45-4.3,10.63,1.04,1.81,3.83,2.19,6,2.19,3.03,0,6.81-.73,10.96-2.07Zm-1.43-16.21c0-1.5,.03-2.98,.1-4.42-2.04,1.44-3.97,2.92-5.73,4.42,1.75,1.5,3.69,2.98,5.73,4.42-.07-1.45-.1-2.92-.1-4.42Z"/><path d="M46.12,34.28c3.45,0,6.25,2.81,6.25,6.26s-2.8,6.25-6.25,6.25-6.26-2.8-6.26-6.25,2.8-6.26,6.26-6.26Z"/></g></g></g></svg>