<?xml version="1.0" encoding="UTF-8"?><svg id="uuid-28a29404-a6f3-4c7e-bfe0-3d728573671c" xmlns="http://www.w3.org/2000/svg" width="130.24" height="207.28" xmlns:xlink="http://www.w3.org/1999/xlink" viewBox="0 0 130.24 207.28"><defs><style>.uuid-d6298af6-2487-4051-814f-5894f27b7457{clip-path:url(#uuid-0dc0c6df-584b-4ae2-8231-99b0bcbcc2b7);}.uuid-ba985277-9e90-4b72-9202-d1f8248afb54{fill:#f07f54;}.uuid-f25ed772-60b1-4846-b57c-db4d70f0d8a5{fill:none;}.uuid-d97f173f-23bb-415a-8fee-b0a95ef5eb74{fill:#ededed;}</style><clipPath id="uuid-0dc0c6df-584b-4ae2-8231-99b0bcbcc2b7"><rect class="uuid-f25ed772-60b1-4846-b57c-db4d70f0d8a5" x="11.97" y="6.56" width="92.22" height="172.67"/></clipPath></defs><g id="uuid-4b83f00e-e346-45cc-b933-aac4c4f5520a"><rect class="uuid-d97f173f-23bb-415a-8fee-b0a95ef5eb74" x="11.97" y="6.56" width="92.22" height="172.67"/><g class="uuid-d6298af6-2487-4051-814f-5894f27b7457"><path class="uuid-ba985277-9e90-4b72-9202-d1f8248afb54" d="M30.1,111.2c.09,.14,.22,.25,.37,.32,0,0,.01,0,.02,0,.46,.22,1.01,.03,1.23-.42,.03-.07,.06-.14,.07-.2,.6-1.31,2.13-4.81,2.04-6.07-.08-1.06-.73-1.99-1.74-2.48-.56-.28-1.2-.4-1.84-.35-.94,.07-1.82,.5-2.41,1.18-.53,.61-.79,1.37-.73,2.14,.09,1.33,2.32,4.83,3,5.88Zm-.88-6.82c.27-.31,.69-.51,1.15-.55,.32-.02,.63,.03,.9,.17,.42,.21,.69,.57,.72,.97,.03,.44-.56,2.08-1.26,3.77-.94-1.57-1.76-3.1-1.79-3.55-.03-.36,.14-.64,.29-.81Zm5.46,5.34c.09,.11,.19,.19,.31,.25,.17,.08,.37,.11,.57,.08,1.23-.22,5.3-1,6.34-1.83,.6-.49,.98-1.2,1.06-2,.09-.9-.19-1.83-.79-2.57-.33-.41-.75-.75-1.22-.98-1.13-.55-2.39-.44-3.3,.3-1.04,.84-2.64,4.67-3.1,5.83-.13,.31-.07,.66,.14,.92Zm4.12-5.32c.35-.28,.86-.31,1.34-.08,.23,.11,.43,.28,.6,.48,.29,.36,.43,.8,.39,1.22-.02,.22-.11,.53-.39,.76-.35,.28-2.03,.74-3.82,1.12,.74-1.67,1.54-3.22,1.88-3.5Zm-3.04,13.89c.46,.22,1.01,.03,1.23-.42,.22-.46,.03-1.01-.42-1.23l-11.26-5.51c-.46-.22-1.01-.03-1.23,.42-.22,.46-.03,1.01,.42,1.23l.52,.25L.16,149.4c-.29,.42-.18,.99,.24,1.28,.04,.03,.08,.05,.12,.07,.4,.2,.9,.07,1.16-.31l4.81-7.03,7.24,3.54-4.53,9.26c-.22,.46-.03,1.01,.42,1.23,.46,.22,1.01,.03,1.23-.42l4.53-9.26,7.24,3.55-2.61,8.11c-.14,.44,.07,.91,.47,1.11,.04,.02,.08,.04,.12,.05,.48,.16,1-.11,1.16-.59l13.49-41.94,.52,.25Zm-6.44-3.16s-.03,.03-.04,.06l-3.95,8.07-3.8-1.86,5.16-7.55,2.63,1.29Zm-9.35,8.54l2.2,5.27-7.12,1.93,4.93-7.21Zm-.9,12.35l-1.19,2.43-2.38-4.19,3.57,1.75Zm-2.99-3.52l5.44-1.48-1.64,3.34-3.8-1.86Zm4.65,4.32l3.83,1.88-5.11,.73,1.28-2.61Zm.81-1.65l1.75-3.57,2.32,5.56-4.06-1.99Zm-8.45-1.43l3.47,6.11-8.48,1.22,5.01-7.33Zm13.06,6.59l-2.6,8.07-4.05-7.12,6.65-.95Zm-1.47-10.17l5.19-1.41-2.52,7.82-2.67-6.42Zm.28-1.98l1.21-2.47,2.82,1.38-4.03,1.09Zm-1.54-1.04l-1.46-3.5,2.56,1.25-1.1,2.25Zm-14.08,15.6l6.93-1-1.73,3.54-5.2-2.55Zm8.67-.36l3.64,6.39-5.46-2.67,1.82-3.72Zm12.78-16.47l-3.8-1.86,3.95-8.07s0-.05,.02-.07l2.63,1.29-2.8,8.71Z"/><path class="uuid-ba985277-9e90-4b72-9202-d1f8248afb54" d="M50.9,137.06c0-.41-.26-.78-.65-.89-.39-.11-.82,.04-1.03,.4-.52,.84-1.32,1.87-2.26,3.07-2.45,3.14-5.73,7.35-7.57,12.74-.71-.74-1.4-1.42-2.03-2.05-1.13-1.13-2.11-2.11-2.76-2.91-.25-.31-.68-.42-1.06-.27-.37,.15-.6,.54-.56,.94l.11,1.01c.31,2.9,.7,6.51,.2,8.5-.8,3.25-2.46,5.51-4.22,7.9-1.24,1.68-2.51,3.42-3.54,5.58-3.84,8.06,2.74,14.28,9.69,19.3,.12,.09,.26,.13,.4,.15-.41,.09-.72,.44-.72,.87v3.37c0,.5,.41,.91,.91,.91h24.51c.5,0,.91-.41,.91-.91v-3.37c0-.45-.34-.81-.77-.88,.12-.03,.23-.07,.34-.14,5.67-4.09,10.98-9.29,7.42-16.75l-.42-.87c-1.91-4-3.07-6.42-4.24-11.16-.44-1.77-.09-4.98,.18-7.57l.1-.91c.04-.4-.19-.78-.56-.94-.37-.15-.8-.04-1.06,.27-.58,.72-1.45,1.59-2.47,2.61-.42,.42-.87,.87-1.33,1.34-.74-.91-1.53-1.75-2.3-2.58-2.02-2.16-3.93-4.2-4.83-7.21-.59-1.97-.5-5.6-.43-8.52l.02-1.02Zm8.52,56.79h-22.69v-1.55h22.69v1.55Zm-4.61-38.79c.97,1.03,1.97,2.1,2.82,3.26,.16,.22,.41,.35,.68,.37,.26,.01,.53-.08,.72-.28,.71-.74,1.4-1.43,2.04-2.07,.24-.24,.48-.48,.71-.71-.23,2.35-.36,4.73,.05,6.38,1.21,4.92,2.4,7.4,4.36,11.51l.42,.87c2.93,6.15-1.4,10.52-6.61,14.32h-23.93c-6.25-4.54-12.1-10.09-8.87-16.86,.96-2,2.18-3.67,3.37-5.29,1.78-2.43,3.63-4.94,4.52-8.54,.47-1.88,.28-4.76,.02-7.41,.31,.32,.65,.65,.99,.99,.93,.93,1.99,1.99,3.06,3.14,.22,.24,.56,.34,.88,.27,.32-.08,.58-.32,.66-.64,1.61-5.78,5.14-10.31,7.72-13.63,.21-.27,.42-.54,.62-.8-.04,2.6,.01,5.37,.54,7.17,1.02,3.43,3.17,5.72,5.25,7.94Zm-6.57-4.31c-.35,.56-.89,1.26-1.52,2.07-1.62,2.08-3.77,4.84-5.07,8.37-.37-.38-.73-.74-1.07-1.07-.77-.77-1.44-1.43-1.87-1.97-.25-.32-.68-.42-1.06-.27-.37,.15-.6,.54-.56,.94l.07,.7c.21,1.96,.47,4.4,.15,5.72-.54,2.17-1.65,3.69-2.84,5.3-.85,1.16-1.74,2.36-2.45,3.87-3.09,6.48,3.79,11.44,6.72,13.56,.16,.11,.34,.17,.53,.17h16.78c.19,0,.38-.06,.53-.17,3.97-2.87,7.7-6.52,5.17-11.82l-.28-.59c-1.3-2.73-2.09-4.37-2.88-7.59-.29-1.16-.05-3.34,.13-5.09l.06-.61c.04-.4-.19-.78-.56-.94-.37-.15-.8-.04-1.06,.27-.38,.48-.97,1.06-1.66,1.75-.23,.22-.46,.46-.7,.7-.45-.54-.92-1.04-1.38-1.53-1.36-1.45-2.64-2.82-3.24-4.82-.39-1.31-.33-3.77-.28-5.75l.02-.69c0-.41-.26-.78-.65-.89-.39-.11-.82,.05-1.03,.39Zm3.86,13.01c.69,.73,1.33,1.43,1.91,2.2,.16,.22,.41,.35,.68,.37,.26,0,.53-.09,.72-.28,.46-.48,.9-.92,1.31-1.33-.11,1.36-.13,2.69,.11,3.67,.84,3.39,1.65,5.1,3.01,7.93l.28,.59c1.8,3.78-.42,6.5-4.36,9.39h-16.18c-4.35-3.17-8-6.72-5.91-11.12,.64-1.35,1.47-2.48,2.28-3.57,1.24-1.68,2.51-3.42,3.14-5.94,.28-1.15,.23-2.75,.09-4.37,.04,.04,.08,.08,.12,.12,.64,.64,1.35,1.35,2.08,2.14,.22,.24,.56,.34,.88,.27,.32-.08,.58-.32,.66-.64,1.06-3.82,3.39-6.86,5.13-9.1,0,1.55,.07,3.06,.39,4.14,.72,2.41,2.21,4.01,3.66,5.55Z"/><path class="uuid-ba985277-9e90-4b72-9202-d1f8248afb54" d="M43.85,45.64c1.17-1.22,2.13-2.46,2.88-3.52l-1.36,27.64c0,.17,.05,.33,.17,.45s.27,.19,.44,.19h4.65s0,0,.01,0c.34,0,.61-.27,.61-.61,0-.05,0-.11-.02-.16l-1.38-28.06c0-.15-.07-.29-.18-.4l-.69-.69c.24-.11,.47-.26,.66-.46,.04-.04,.08-.1,.11-.14,.02,.01,.04,.04,.06,.05,1.41,.67,3.63,1.59,6.14,2.21,3.05,.75,5.86,.86,7.27,.86,.8,0,1.28-.03,1.3-.04,.26-.02,.48-.21,.55-.46,.06-.26-.05-.52-.27-.66-.14-.09-3.47-2.13-7.97-3.23-2.57-.63-5.01-.82-6.61-.86-.06,0-.13,.02-.19,.04-.11-.24-.26-.46-.46-.65-.23-.22-.5-.36-.79-.45,.01-.04,.03-.09,.03-.13,0-.06,0-.12-.02-.17-.11-1.54-.4-3.85-1.11-6.3-1.3-4.46-3.48-7.7-3.57-7.83-.15-.22-.42-.32-.67-.24-.25,.07-.43,.3-.44,.57,0,.16-.11,4.07,1.19,8.52,.73,2.51,1.75,4.64,2.48,5.99,.02,.03,.04,.05,.06,.08-.01,.01-.03,.02-.04,.03-.49,.51-.66,1.21-.52,1.85-.05,.02-.1,.03-.14,.06-1.22,.84-3.04,2.21-4.78,4.04-3.21,3.35-4.93,6.86-5,7-.11,.24-.06,.52,.13,.7,.12,.11,.27,.17,.42,.17,.1,0,.2-.02,.29-.07,.14-.08,3.58-1.94,6.79-5.29Zm6.95-6.67c1.51,.07,3.58,.27,5.73,.8,2.2,.54,4.13,1.32,5.49,1.97-1.47-.06-3.56-.25-5.78-.8-2.16-.53-4.1-1.3-5.45-1.91,0-.02,0-.04,0-.06Zm-.81,30.21h-3.37l1.35-27.38,.28-.33,.39,.39,1.35,27.32Zm-1.23-30.01c-.31,.32-.85,.33-1.17,.03-.33-.32-.34-.84-.03-1.17,.16-.17,.37-.26,.6-.26,.22,0,.42,.08,.57,.23,.16,.15,.25,.36,.26,.58,0,.22-.08,.43-.23,.59Zm-3.41-8.43c-.63-2.17-.92-4.23-1.04-5.74,.7,1.34,1.57,3.23,2.2,5.4,.62,2.12,.9,4.13,1.03,5.6-.02,0-.04,0-.06,.01-.67-1.29-1.51-3.15-2.13-5.28Zm-6.82,17.83c.81-1.28,2.02-2.97,3.58-4.6,1.45-1.52,2.97-2.72,4.11-3.53,.03,.03,.06,.06,.09,.09,0,0,.02,.02,.02,.02-.77,1.17-1.9,2.74-3.35,4.25-1.56,1.63-3.21,2.91-4.45,3.77Z"/><path d="M107.24,98.09c0-10.93-8.89-19.83-19.83-19.83s-19.83,8.89-19.83,19.83,8.89,19.83,19.83,19.83,19.83-8.89,19.83-19.83Zm-19.83,17.41c-9.6,0-17.41-7.81-17.41-17.41s7.81-17.41,17.41-17.41,17.41,7.81,17.41,17.41-7.81,17.41-17.41,17.41Zm-1.21-40.65h0s0-13.81,0-13.81c0-.67,.54-1.21,1.21-1.21h0c.67,0,1.21,.54,1.21,1.21v13.81c0,.67-.54,1.21-1.21,1.21s-1.21-.54-1.21-1.21Zm-15.71-1.86l-3.45-5.98c-.08-.15-.13-.3-.15-.46-.06-.47,.16-.95,.6-1.2,.58-.33,1.32-.13,1.65,.44l3.45,5.98,3.45,5.98c.08,.15,.13,.3,.15,.46,.06,.47-.16,.95-.6,1.2-.19,.11-.4,.16-.6,.16-.42,0-.82-.22-1.05-.61l-3.45-5.98Zm-3.45,15.24c-.23,.39-.63,.61-1.05,.61-.21,0-.41-.05-.6-.16l-11.96-6.91c-.58-.33-.78-1.07-.44-1.65,.34-.58,1.08-.78,1.65-.44l11.96,6.91c.58,.33,.78,1.07,.44,1.65Zm-4.21,13.12h-13.81c-.67,0-1.21-.54-1.21-1.21s.54-1.21,1.21-1.21h13.81c.67,0,1.21,.54,1.21,1.21s-.54,1.21-1.21,1.21Zm4.12,12.26l-11.96,6.91c-.19,.11-.4,.16-.6,.16-.42,0-.82-.22-1.05-.6-.33-.58-.14-1.32,.44-1.65l11.96-6.91c.58-.34,1.32-.14,1.65,.44,.33,.58,.14,1.32-.44,1.65Zm9.26,6.91c.58,.33,.78,1.07,.44,1.65l-6.9,11.96c-.22,.39-.63,.61-1.05,.61-.21,0-.41-.05-.6-.16-.58-.33-.78-1.07-.44-1.65l6.9-11.96c.33-.58,1.07-.78,1.65-.44Zm10.71,18.02v-13.81c0-.67,.54-1.21,1.21-1.21s1.21,.54,1.21,1.21v13.81c0,.67-.54,1.21-1.21,1.21s-1.21-.54-1.21-1.21Zm12.59-16.72c-.33-.58-.14-1.32,.44-1.65,.58-.33,1.32-.13,1.65,.44l6.9,11.96c.33,.58,.14,1.32-.44,1.65-.19,.11-.4,.16-.6,.16-.42,0-.83-.22-1.05-.61l-6.9-11.96Zm23.06-2.35c-.22,.39-.63,.61-1.05,.61-.21,0-.41-.05-.6-.16l-11.96-6.9c-.58-.33-.78-1.07-.44-1.65,.34-.58,1.07-.78,1.65-.44l11.96,6.9c.58,.33,.78,1.07,.44,1.65Zm5.18-20.03c0,.67-.54,1.21-1.21,1.21h-13.81c-.67,0-1.21-.54-1.21-1.21s.54-1.21,1.21-1.21h13.81c.67,0,1.21,.54,1.21,1.21Zm-19.58-11.82c-.33-.58-.14-1.32,.44-1.65l11.96-6.9c.58-.34,1.32-.14,1.65,.44,.33,.58,.14,1.32-.44,1.65l-11.96,6.9c-.19,.11-.4,.16-.6,.16-.42,0-.82-.22-1.05-.61Zm-8.82-8.56c-.58-.33-.78-1.07-.44-1.65l6.9-11.96c.33-.58,1.08-.78,1.65-.44,.58,.33,.78,1.07,.44,1.65l-6.9,11.96c-.23,.39-.63,.61-1.05,.61-.2,0-.41-.05-.6-.16Z"/><path class="uuid-ba985277-9e90-4b72-9202-d1f8248afb54" d="M102.29,56.59c.06,.14,.12,.28,.2,.41,1.04,1.86,3.39,2.53,5.26,1.5,1.86-1.04,2.53-3.39,1.5-5.26-.08-.13-.16-.26-.25-.39,6.97-8.33,5.86-21.33-3.24-37.69-.16-.3-.47-.48-.81-.49-.34-.01-.66,.16-.84,.44-.47,.73-.9,1.49-1.3,2.27-.62-.98-1.25-1.95-1.92-2.89h0c-1.31-1.84-2.71-3.57-4.15-5.13h0c-1.57-1.7-3.2-3.22-4.84-4.5,0,0,0,0,0,0-1.97-1.54-3.92-2.72-5.8-3.54,0,0-.01-.01-.02-.02-.09-.04-.17-.06-.26-.1-.31-.13-.61-.25-.92-.36-.15-.06-.31-.11-.46-.16-.31-.1-.62-.19-.93-.27-.16-.04-.31-.08-.47-.12-.33-.08-.66-.14-.99-.19-.17-.03-.34-.04-.5-.06-.23-.03-.46-.04-.69-.05-.16,0-.33-.02-.49-.02-.25,0-.5,.01-.75,.03-.01,0-.02,0-.04,0-.02,0-.04,0-.06,0-.13,.01-.27,.02-.4,.04-.3,.04-.6,.08-.89,.15-.12,.03-.24,.06-.36,.09-.24,.06-.48,.14-.71,.22-.11,.04-.21,.07-.32,.12-.33,.13-.65,.28-.96,.45-.31,.17-.61,.37-.89,.58-.09,.07-.18,.14-.26,.21-.2,.16-.39,.32-.57,.5-.09,.08-.18,.17-.26,.26-.21,.22-.42,.45-.61,.7-.07,.09-.14,.18-.2,.27-.18,.24-.34,.49-.5,.75-.08,.13-.15,.26-.23,.4-.12,.21-.23,.43-.34,.65-.07,.14-.13,.28-.2,.42-.15,.34-.29,.69-.41,1.05-.03,.09-.06,.19-.09,.29-.1,.33-.2,.67-.29,1.02-.03,.14-.07,.28-.1,.43-.07,.33-.14,.68-.19,1.03-.01,.08-.03,.16-.05,.24,0,0,0,.02,0,.03-.3,2.03-.33,4.31-.05,6.8h0c.23,2.09,.65,4.27,1.27,6.48h0c.56,2.03,1.29,4.12,2.17,6.23h0c.02,.05,.05,.11,.07,.16-1.84-.78-3.79-1.56-5.87-2.32-.38-.14-.8-.03-1.06,.28-.26,.31-.31,.74-.11,1.09,16.66,29.95,29.57,29.04,35.19,27.96ZM72.48,10.89c.25-.03,.51-.08,.77-.13,.29,1.25,.7,2.62,1.22,4.09-.05,.02-.1,.04-.16,.05-.34,.1-.68,.19-1.01,.29-.29,.08-.58,.15-.86,.22-.12-1.62-.1-3.13,.05-4.51Zm2.87-7.01c.06-.06,.12-.12,.18-.17,.14-.13,.29-.25,.44-.37,.01,0,.02-.02,.04-.03l2.08,3.74c-1.12,.56-2.24,1.02-3.34,1.36-.25-1.77-.15-3.04,.13-3.94,0-.02,0-.04,0-.07,.02-.03,.04-.05,.06-.07,.13-.16,.27-.31,.41-.45Zm2.92-1.7c.08-.02,.16-.04,.24-.06,.19-.05,.39-.08,.59-.11,.07-.01,.14-.02,.21-.03,.11-.01,.22-.02,.32-.02,.88,.26,1.94,.83,3.22,1.88-.91,.81-1.96,1.58-3.1,2.27l-2.08-3.74s.03-.01,.04-.02c.18-.06,.36-.13,.54-.18Zm11.56,3.54c-.21,.21-.42,.42-.64,.62-.22,.21-.45,.41-.68,.62-.99-1.22-1.94-2.3-2.86-3.21,.11-.12,.22-.25,.32-.37,1.25,.6,2.54,1.38,3.86,2.34Zm6.06,5.95c.05-.06,.11-.12,.17-.18,.98,1.11,1.93,2.3,2.84,3.55-.1,.13-.2,.26-.3,.39-.14,.18-.29,.36-.44,.54-.19,.22-.39,.45-.59,.67-.16,.18-.33,.36-.5,.54-.21,.22-.43,.44-.66,.66-.13,.12-.26,.25-.39,.37-.85-1.47-1.69-2.86-2.51-4.15,.05-.05,.1-.09,.15-.14,.23-.21,.45-.42,.67-.64,.16-.16,.33-.32,.49-.48,.22-.22,.43-.44,.64-.67,.14-.16,.29-.31,.43-.47Zm1.99,13.82c-1.59,1.33-3.36,2.57-5.28,3.7l-2.39-4.3c.29-.17,.59-.34,.87-.52,.19-.11,.36-.23,.55-.35,.37-.23,.73-.47,1.09-.71,.21-.14,.41-.29,.61-.43,.32-.22,.63-.45,.94-.68,.21-.16,.41-.32,.62-.48,.22-.17,.44-.34,.65-.51,.76,1.34,1.54,2.76,2.35,4.28Zm-10.4,10.9c-.43-.72-.85-1.42-1.26-2.11,1.88-.66,3.77-1.48,5.63-2.47l2.41,4.33c-1.45,.77-2.8,1.39-4.21,1.92-.81-.55-1.67-1.11-2.58-1.67Zm-4.64-8.07c.18-.06,.36-.13,.53-.2,.24-.09,.49-.18,.73-.27,.36-.14,.71-.29,1.07-.44,.23-.1,.46-.19,.69-.29,.39-.17,.78-.36,1.18-.55,.2-.09,.39-.18,.59-.28,.3-.15,.6-.31,.9-.47l2.39,4.31c-1.88,.99-3.79,1.82-5.68,2.46-.86-1.49-1.66-2.91-2.4-4.26Zm10.93-8.17c-.2,.16-.4,.32-.6,.47-.29,.22-.59,.43-.89,.65-.2,.14-.4,.29-.6,.43-.34,.23-.69,.46-1.05,.68-.18,.11-.35,.23-.53,.34-.27,.17-.55,.32-.82,.48l-2.4-4.31c.24-.14,.48-.27,.71-.42,.17-.1,.33-.21,.5-.32,.33-.21,.66-.42,.99-.63,.19-.13,.38-.26,.57-.39,.29-.2,.58-.4,.86-.61,.2-.14,.39-.29,.58-.44,.26-.2,.53-.4,.78-.61,.06-.05,.12-.09,.18-.14,.8,1.28,1.65,2.67,2.52,4.18-.26,.21-.52,.42-.79,.63Zm-3.1-6.19c-.24,.2-.5,.39-.75,.58-.18,.14-.36,.28-.55,.42-.27,.2-.54,.39-.82,.58-.18,.13-.36,.25-.54,.38-.31,.21-.63,.41-.94,.61-.16,.1-.32,.21-.48,.31-.21,.13-.43,.25-.65,.38l-2.41-4.32c.57-.34,1.15-.67,1.7-1.03,.27-.17,.52-.36,.78-.54,.54-.37,1.07-.73,1.58-1.11,.21-.16,.41-.32,.61-.48,.87,1.16,1.8,2.48,2.78,3.98-.11,.09-.21,.18-.32,.26Zm-4.3-5.26c-.48,.36-.98,.7-1.48,1.04-.25,.17-.49,.35-.74,.51-.5,.33-1.03,.63-1.56,.94l-1.89-3.4c1.33-.81,2.54-1.71,3.59-2.67,.83,.82,1.74,1.83,2.73,3.06-.22,.17-.43,.34-.65,.51Zm-5.46,3.43c-.54,.28-1.08,.57-1.62,.83-.27,.13-.55,.24-.82,.36-.56,.25-1.11,.49-1.67,.71-.18,.07-.35,.13-.53,.19-.52-1.48-.9-2.78-1.16-3.91,1.29-.38,2.62-.91,3.92-1.57l1.89,3.4Zm-3.49,3.72c.59-.23,1.19-.49,1.78-.75,.29-.13,.58-.24,.87-.38,.6-.28,1.18-.59,1.77-.9l2.41,4.32c-.22,.12-.44,.24-.66,.35-.17,.09-.34,.16-.51,.25-.34,.16-.68,.33-1.02,.48-.2,.09-.4,.17-.61,.26-.31,.13-.62,.27-.93,.39-.21,.09-.43,.16-.64,.25-.3,.11-.59,.23-.89,.33-.05,.02-.09,.03-.14,.05-.75-1.63-1.39-3.11-1.92-4.46,.16-.06,.32-.12,.48-.18Zm3.17,6.06c.22-.09,.45-.17,.67-.26,.32-.13,.65-.27,.97-.41,.21-.09,.42-.18,.63-.27,.36-.16,.71-.33,1.06-.5,.18-.09,.36-.17,.54-.26,.24-.12,.49-.25,.73-.38l2.4,4.31c-.28,.15-.56,.3-.85,.44-.19,.09-.38,.18-.57,.27-.38,.18-.75,.36-1.13,.53-.23,.1-.46,.19-.68,.29-.34,.14-.68,.29-1.02,.42-.24,.09-.48,.18-.72,.26-.24,.09-.47,.17-.71,.25-.82-1.55-1.56-3-2.22-4.35,.3-.11,.6-.22,.9-.33Zm10.8-14.99c1.13,.93,2.25,1.98,3.36,3.13-.08,.09-.15,.18-.23,.27-.14,.16-.29,.32-.44,.48-.19,.2-.38,.4-.57,.6-.16,.16-.31,.32-.47,.47-.18,.18-.38,.36-.57,.54-.95-1.43-1.86-2.74-2.76-3.93,.02-.02,.04-.03,.06-.05,.29-.25,.55-.51,.82-.76,.26-.25,.55-.49,.8-.74Zm-18.57,1.96c.02-.07,.04-.13,.05-.2,0,.06,.01,.12,.02,.18-.02,0-.05,.01-.07,.02Zm-.17,8.47c.34-.08,.7-.19,1.05-.29,.36-.1,.72-.19,1.09-.3,.12-.04,.24-.06,.36-.1,.54,1.39,1.16,2.86,1.88,4.41-.07,.02-.14,.04-.2,.06-.28,.08-.56,.15-.83,.22-.22,.05-.44,.11-.66,.15-.27,.06-.54,.12-.81,.17-.22,.04-.43,.08-.65,.12-.12,.02-.23,.03-.34,.05-.39-1.53-.69-3.04-.89-4.5Zm2.29,6.21c.29-.06,.59-.12,.88-.18,.22-.05,.45-.11,.68-.16,.3-.07,.59-.15,.89-.24,.16-.04,.32-.09,.48-.13,.66,1.38,1.4,2.83,2.19,4.33-.02,0-.04,.01-.06,.02-.25,.07-.49,.13-.74,.19-.3,.07-.6,.15-.89,.21-.25,.05-.49,.1-.73,.14-.29,.05-.58,.1-.86,.15-.24,.04-.47,.06-.71,.09-.16,.02-.32,.03-.48,.05-.58-1.45-1.09-2.88-1.51-4.29,.08-.01,.16-.03,.23-.04,.21-.04,.43-.08,.65-.12Zm1.43,6.32c.06,0,.12-.02,.18-.03,.21-.03,.43-.06,.64-.1,.33-.05,.67-.1,1-.17,.23-.04,.47-.1,.7-.15,.33-.07,.66-.15,.99-.23,.24-.06,.49-.13,.73-.2,.12-.03,.24-.06,.36-.1,.74,1.36,1.54,2.78,2.38,4.24-.35,.1-.7,.2-1.04,.28-1.72-.91-3.57-1.81-5.56-2.72-.13-.28-.26-.56-.39-.84Zm18.84,7.94l2.39,4.3c-.45,.24-.9,.47-1.36,.69-1.25-1.1-2.67-2.25-4.29-3.43,1.07-.45,2.14-.96,3.26-1.56Zm3.34,6l1.54,2.76c-.68-.75-1.45-1.54-2.31-2.36,.26-.13,.51-.27,.77-.4Zm3.23,1.85l-1.55-2.79c.25-.15,.5-.29,.74-.44,.25,1.13,.53,2.21,.81,3.23Zm-1.23-5.26c-.41,.26-.84,.52-1.27,.77l-2.4-4.31c1.01-.59,1.97-1.21,2.91-1.87,.16,1.87,.42,3.68,.76,5.41Zm-.88-7.68c-1.17,.87-2.42,1.69-3.72,2.45l-2.4-4.32c1.9-1.11,3.66-2.34,5.26-3.64,.3,.58,.61,1.17,.92,1.77-.08,1.25-.09,2.5-.06,3.73Zm1.05-9.89c-.42,.45-.88,.9-1.35,1.34-.8-1.49-1.58-2.92-2.35-4.27,.03-.02,.05-.05,.08-.07,.19-.17,.37-.35,.55-.52,.25-.24,.48-.48,.72-.72,.17-.17,.33-.34,.5-.52,.23-.25,.45-.51,.67-.76,.14-.17,.29-.33,.42-.5,.04-.05,.08-.09,.11-.13,.62,.91,1.21,1.84,1.77,2.78-.44,1.09-.82,2.21-1.13,3.37Zm-.59,26.74s0,.04,.02,.05c.07,.14,.18,.25,.3,.33,1.02,1.27,1.79,2.36,2.39,3.23l.26,.37c.16,.23,.42,.38,.7,.4,.28,.03,.56-.07,.76-.26,0,0,.02-.01,.03-.02,.17,0,.34-.01,.5-.1,.18-.1,.3-.26,.39-.43,.32-.24,.48-.66,.35-1.06l-.31-.94c-1.57-4.69-4.49-13.42-3.84-22.29,.31-4.2,1.39-7.99,3.22-11.29,8.16,15.31,8.9,27.27,2.12,34.65-.18,.2-.27,.46-.25,.72,.02,.26,.15,.51,.35,.68,.2,.16,.35,.35,.47,.56,.52,.93,.18,2.12-.75,2.64-.94,.52-2.12,.18-2.64-.75-.12-.22-.2-.46-.23-.71-.03-.27-.17-.51-.39-.67-.22-.16-.5-.22-.76-.16-4.55,.96-16.45,3.46-32.69-24.51,17.74,6.94,25.87,14.52,30.03,19.58Z"/><path d="M83.99,171.6c-.14,.1-.3,.16-.48,.18-.47,.04-.89-.25-1.02-.7l-2.4-8.73-5.93,3.97c-.27,.18-.62,.21-.92,.08-.3-.13-.51-.41-.56-.73l-2.58-16.76c-.06-.37,.08-.75,.41-.94l7.87-5.4c.31-.21,.72-.23,1.04-.03,.32,.19,.5,.56,.46,.93l-1.47,13.21,5.92-4.59c.32-.24,.71-.27,1.05-.09,.34,.18,.53,.55,.5,.93l-1.49,17.97c-.02,.29-.17,.54-.39,.7Zm-9.64-7.73l5.78-3.87c.26-.17,.58-.21,.87-.1,.29,.11,.51,.35,.59,.65l1.32,4.79,.86-10.39-5.98,4.64c-.31,.25-.72,.27-1.06,.08-.34-.19-.53-.56-.49-.95l1.49-13.39-5.64,3.87,2.26,14.67Z"/><path class="uuid-ba985277-9e90-4b72-9202-d1f8248afb54" d="M125.41,206.81c-.35,.25-.76,.42-1.22,.46-1.19,.11-2.28-.65-2.6-1.8l-6.14-22.3-15.14,10.14c-.7,.47-1.59,.55-2.36,.21-.77-.34-1.31-1.05-1.44-1.88l-6.59-42.8c-.14-.93,.21-1.9,1.04-2.4l20.1-13.78c.79-.54,1.83-.58,2.66-.08,.82,.49,1.29,1.42,1.18,2.38l-3.74,33.74,15.11-11.72c.83-.61,1.82-.68,2.68-.22,.86,.47,1.36,1.39,1.28,2.36l-3.81,45.89c-.06,.74-.44,1.38-1.01,1.79Zm-24.62-19.73l14.76-9.89c.66-.44,1.48-.54,2.23-.26,.74,.28,1.3,.89,1.51,1.65l3.37,12.24,2.2-26.52-15.28,11.85c-.79,.64-1.85,.69-2.71,.2-.86-.48-1.35-1.43-1.24-2.42l3.79-34.18-14.4,9.88,5.77,37.45Z"/><path class="uuid-ba985277-9e90-4b72-9202-d1f8248afb54" d="M28.07,70.75c-.24,.17-.52,.28-.82,.31-.81,.07-1.55-.44-1.76-1.22l-4.17-15.13-10.27,6.88c-.47,.32-1.08,.37-1.6,.14-.52-.23-.89-.71-.98-1.27L3.99,31.42c-.1-.63,.14-1.29,.71-1.63l13.64-9.35c.54-.37,1.24-.39,1.8-.05,.56,.33,.87,.97,.8,1.61l-2.54,22.9,10.25-7.95c.56-.41,1.24-.46,1.82-.15,.58,.32,.92,.95,.87,1.6l-2.59,31.14c-.04,.5-.3,.94-.68,1.21Zm-16.71-13.39l10.02-6.71c.45-.3,1.01-.36,1.51-.18,.5,.19,.88,.6,1.03,1.12l2.29,8.3,1.49-18-10.37,8.04c-.53,.44-1.25,.46-1.84,.14s-.92-.97-.84-1.64l2.57-23.2-9.77,6.7,3.91,25.41Z"/><path d="M58.52,31.37c-.12,.04-.24,.04-.37,.02-.33-.08-.56-.38-.54-.72l.32-6.57-4.99,1.39c-.23,.06-.48,0-.66-.15-.18-.16-.26-.4-.22-.64l2.02-12.15c.04-.26,.23-.5,.49-.56l6.66-1.94c.26-.08,.55,0,.72,.21,.18,.21,.22,.5,.11,.75l-4.01,8.78,5.12-1.82c.28-.09,.55-.02,.74,.18,.19,.2,.24,.5,.14,.75l-5.1,12.06c-.08,.19-.24,.33-.43,.39Zm-4.9-7.52l4.87-1.36c.22-.06,.45-.01,.62,.13,.18,.14,.27,.36,.26,.58l-.18,3.61,2.95-6.97-5.18,1.85c-.27,.1-.56,.02-.75-.19-.19-.21-.24-.51-.12-.76l4.06-8.9-4.77,1.39-1.77,10.63Z"/><path class="uuid-ba985277-9e90-4b72-9202-d1f8248afb54" d="M31.67,10.96c.12-.04,.24-.04,.37-.02,.33,.08,.56,.38,.54,.72l-.32,6.57,4.99-1.39c.23-.06,.48,0,.66,.15,.18,.16,.26,.4,.22,.64l-2.02,12.15c-.04,.26-.23,.5-.49,.56l-6.66,1.94c-.26,.08-.55,0-.72-.21-.18-.21-.22-.5-.11-.75l4.01-8.78-5.12,1.82c-.28,.09-.55,.02-.74-.18-.19-.2-.24-.5-.14-.75l5.1-12.06c.08-.19,.24-.33,.43-.39Zm4.9,7.52l-4.87,1.36c-.22,.06-.45,.01-.62-.13-.18-.14-.27-.36-.26-.58l.18-3.61-2.95,6.97,5.18-1.85c.27-.1,.56-.02,.75,.19s.24,.51,.12,.76l-4.06,8.9,4.77-1.39,1.77-10.63Z"/><path d="M19.4,94.37c-.13-.1-.24-.24-.3-.41-.17-.43,0-.93,.39-1.17l7.73-4.73-5.46-4.6c-.25-.21-.38-.54-.33-.86,.04-.33,.25-.61,.55-.75l15.39-7.12c.34-.16,.74-.13,1.02,.13l7.37,6.07c.29,.24,.41,.63,.32,.99-.1,.36-.4,.64-.77,.7l-13.1,2.25,6.05,4.42c.32,.24,.45,.61,.37,.98-.08,.37-.38,.66-.75,.74l-17.68,3.54c-.28,.06-.57-.02-.78-.19Zm4.76-11.4l5.32,4.48c.24,.2,.36,.5,.34,.81-.02,.31-.19,.59-.46,.75l-4.24,2.59,10.22-2.05-6.12-4.47c-.33-.23-.46-.62-.37-1s.39-.66,.77-.73l13.28-2.28-5.28-4.35-13.47,6.23Z"/></g></g></svg>