<?xml version="1.0" encoding="UTF-8"?><svg id="uuid-ec7c300b-66aa-4ec7-aa2f-fc330c9a6ab2" xmlns="http://www.w3.org/2000/svg" width="196.21" height="81.1" viewBox="0 0 196.21 81.1"><defs><style>.uuid-40c6a5b5-8cb9-4c8e-a4ed-cfa1d341632e{fill:#fff;}.uuid-7c58cae1-1c36-471a-97c8-3ece2c6b0391{fill:#6ccc41;}</style></defs><g id="uuid-1758a25d-2469-4e2e-a634-1fce5dc3f035"><rect class="uuid-7c58cae1-1c36-471a-97c8-3ece2c6b0391" width="196.21" height="81.1"/><g><path d="M53.11,11.31c-9.61,0-17.43,7.82-17.43,17.43,0,5.1,2.23,9.92,6.12,13.24,1.06,.9,2.15,2.7,2.15,4.14v3.78h-1.67v8.8c0,3.31,1.43,6.27,3.68,8.31,1.02,1.61,3.74,2.73,7.04,2.78,.04,0,.07,0,.11,0,.01,0,.02,0,.04,0,.02,0,.05,0,.07,0,3.68,0,6.68-1.33,7.49-3.2,.94-.95,1.7-2.07,2.25-3.31l.28,.03,.07-.63h-.1c.46-1.24,.73-2.58,.73-3.98v-8.8h-1.67v-3.78c0-1.44,1.1-3.23,2.15-4.14,3.89-3.32,6.12-8.15,6.12-13.24,0-9.61-7.82-17.43-17.44-17.43Zm.15,57.37c-2.54,0-4.61-.62-4.71-1.4h9.42c-.1,.78-2.17,1.4-4.71,1.4Zm7.11-3.6h-14.51c-.93-1.12-1.62-2.45-1.99-3.92l17.76,1.97c-.35,.7-.77,1.36-1.27,1.95Zm1.55-2.56l-18.19-2.02c-.11-.59-.17-1.19-.17-1.8v-1.39l19.08,2.12c-.08,1.09-.32,2.13-.72,3.1Zm.75-3.82s0,.06,0,.09l-19.06-2.11-.06,.52v-3.7l19.12,2.12v3.08Zm0-7.53v3.81l-19.06-2.11-.06,.52v-2.21h19.12Zm-13.07-24.36c.47,.18,.97,.27,1.47,.27,.63,0,1.24-.14,1.77-.39,.48,.25,1.03,.39,1.59,.39,.36,0,.73-.06,1.08-.17,.03,.31,.15,.63,.39,.93,.47,.59,1.35,1.06,2.33,1.06,.1,0,.2-.01,.3-.02l-2.93,10.06c-.48-1.03-1.51-1.74-2.71-1.74s-2.28,.74-2.74,1.8l-3.37-10.1s.07,0,.11,0c.97,0,1.85-.47,2.33-1.06,.26-.33,.38-.68,.39-1.03Zm2.66-1.06c-.66-.91-.39-2.07,.58-2.72,1.08,.65,1.38,1.81,.65,2.72-.18,.22-.4,.4-.65,.55-.23-.15-.43-.33-.58-.55Zm2.99,14.43v9.71h-4.72v-9.71c0-1.3,1.06-2.36,2.36-2.36s2.36,1.06,2.36,2.36Zm8.36,.83c-1.29,1.1-2.6,3.21-2.6,5.1v3.78h-5.12v-9.67l3.4-11.64-.19-.06-.03-.08s-.1,.02-.14,.03l-.25-.07-.04,.14c-1.02,.15-1.99-.3-2.47-.91-.23-.28-.33-.58-.32-.86,.04-.02,.07-.03,.11-.05l-.1-.14c.02-.1,.06-.2,.11-.3l-.27-.16c-.08,.13-.13,.27-.15,.42-.76,.3-1.63,.26-2.33-.06,.26-.16,.48-.35,.67-.58,.87-1.07,.48-2.44-.83-3.17l-.1-.14s-.05,.03-.08,.05c-.03-.01-.06-.03-.09-.05l-.16,.19c-1.11,.74-1.42,2.07-.66,3.12,.16,.22,.36,.4,.57,.56-.86,.38-1.97,.4-2.88-.01l-.04,.05c-.03-.13-.07-.25-.14-.37l-.27,.16c.23,.4,.16,.88-.2,1.34-.46,.57-1.34,1-2.3,.92l-.05-.16-.32,.11c-.08-.02-.16-.03-.24-.06l-.05,.15h0s-.05,.15-.05,.15c.04,.01,.07,.02,.11,.03l3.82,11.46v9.66h-4.67v-3.78c0-1.89-1.31-4-2.6-5.1-3.61-3.08-5.67-7.55-5.67-12.28,0-8.91,7.25-16.16,16.16-16.16s16.16,7.25,16.16,16.16c0,4.72-2.07,9.2-5.67,12.28Z"/><path d="M143.11,11.31c-9.61,0-17.43,7.82-17.43,17.43,0,5.1,2.23,9.92,6.12,13.24,1.06,.9,2.15,2.7,2.15,4.14v3.78h-1.67v8.8c0,3.31,1.43,6.27,3.68,8.31,1.02,1.61,3.74,2.73,7.04,2.78,.04,0,.07,0,.11,0,.01,0,.02,0,.04,0,.02,0,.05,0,.07,0,3.68,0,6.68-1.33,7.49-3.2,.94-.95,1.7-2.07,2.25-3.31l.28,.03,.07-.63h-.1c.46-1.24,.73-2.58,.73-3.98v-8.8h-1.67v-3.78c0-1.44,1.1-3.23,2.15-4.14,3.89-3.32,6.12-8.15,6.12-13.24,0-9.61-7.82-17.43-17.44-17.43Zm.15,57.37c-2.54,0-4.61-.62-4.71-1.4h9.42c-.1,.78-2.17,1.4-4.71,1.4Zm7.11-3.6h-14.51c-.93-1.12-1.62-2.45-1.99-3.92l17.76,1.97c-.35,.7-.77,1.36-1.27,1.95Zm1.55-2.56l-18.19-2.02c-.11-.59-.17-1.19-.17-1.8v-1.39l19.08,2.12c-.08,1.09-.32,2.13-.72,3.1Zm.75-3.82s0,.06,0,.09l-19.06-2.11-.06,.52v-3.7l19.12,2.12v3.08Zm0-7.53v3.81l-19.06-2.11-.06,.52v-2.21h19.12Zm-13.07-24.36c.47,.18,.97,.27,1.47,.27,.63,0,1.24-.14,1.77-.39,.48,.25,1.03,.39,1.59,.39,.36,0,.73-.06,1.08-.17,.03,.31,.15,.63,.39,.93,.47,.59,1.35,1.06,2.33,1.06,.1,0,.2-.01,.3-.02l-2.93,10.06c-.48-1.03-1.51-1.74-2.71-1.74s-2.28,.74-2.74,1.8l-3.37-10.1s.07,0,.11,0c.97,0,1.85-.47,2.33-1.06,.26-.33,.38-.68,.39-1.03Zm2.66-1.06c-.66-.91-.39-2.07,.58-2.72,1.08,.65,1.38,1.81,.65,2.72-.18,.22-.4,.4-.65,.55-.23-.15-.43-.33-.58-.55Zm2.99,14.43v9.71h-4.72v-9.71c0-1.3,1.06-2.36,2.36-2.36s2.36,1.06,2.36,2.36Zm8.36,.83c-1.29,1.1-2.6,3.21-2.6,5.1v3.78h-5.12v-9.67l3.4-11.64-.19-.06-.03-.08s-.1,.02-.14,.03l-.25-.07-.04,.14c-1.02,.15-1.99-.3-2.47-.91-.23-.28-.33-.58-.32-.86,.04-.02,.07-.03,.11-.05l-.1-.14c.02-.1,.06-.2,.11-.3l-.27-.16c-.08,.13-.13,.27-.15,.42-.76,.3-1.63,.26-2.33-.06,.26-.16,.48-.35,.67-.58,.87-1.07,.48-2.44-.83-3.17l-.1-.14s-.05,.03-.08,.05c-.03-.01-.06-.03-.09-.05l-.16,.19c-1.11,.74-1.42,2.07-.66,3.12,.16,.22,.36,.4,.57,.56-.86,.38-1.97,.4-2.88-.01l-.04,.05c-.03-.13-.07-.25-.14-.37l-.27,.16c.23,.4,.16,.88-.2,1.34-.46,.57-1.34,1-2.3,.92l-.05-.16-.32,.11c-.08-.02-.16-.03-.24-.06l-.05,.15h0s-.05,.15-.05,.15c.04,.01,.07,.02,.11,.03l3.82,11.46v9.66h-4.67v-3.78c0-1.89-1.31-4-2.6-5.1-3.61-3.08-5.67-7.55-5.67-12.28,0-8.91,7.25-16.16,16.16-16.16s16.16,7.25,16.16,16.16c0,4.72-2.07,9.2-5.67,12.28Z"/><path class="uuid-40c6a5b5-8cb9-4c8e-a4ed-cfa1d341632e" d="M99.18,69.79c9.61,0,17.43-7.82,17.43-17.43,0-5.1-2.23-9.92-6.12-13.24-1.06-.9-2.15-2.7-2.15-4.14v-3.78h1.67v-8.8c0-3.31-1.43-6.27-3.68-8.31-1.02-1.61-3.74-2.73-7.04-2.78-.04,0-.07,0-.11,0-.01,0-.02,0-.04,0-.02,0-.05,0-.07,0-3.68,0-6.68,1.33-7.49,3.2-.94,.95-1.7,2.07-2.25,3.31l-.28-.03-.07,.63h.1c-.46,1.24-.73,2.58-.73,3.98v8.8h1.67v3.78c0,1.44-1.1,3.23-2.15,4.14-3.89,3.32-6.12,8.15-6.12,13.24,0,9.61,7.82,17.43,17.44,17.43Zm-.15-57.37c2.54,0,4.61,.62,4.71,1.4h-9.42c.1-.78,2.17-1.4,4.71-1.4Zm-7.11,3.6h14.51c.93,1.12,1.62,2.45,1.99,3.92l-17.76-1.97c.35-.7,.77-1.36,1.27-1.95Zm-1.55,2.56l18.19,2.02c.11,.59,.17,1.19,.17,1.8v1.39l-19.08-2.12c.08-1.09,.32-2.13,.72-3.1Zm-.75,3.82s0-.06,0-.09l19.06,2.11,.06-.52v3.7l-19.12-2.12v-3.08Zm0,7.53v-3.81l19.06,2.11,.06-.52v2.21h-19.12Zm13.07,24.36c-.47-.18-.97-.27-1.47-.27-.63,0-1.24,.14-1.77,.39-.48-.25-1.03-.39-1.59-.39-.36,0-.73,.06-1.08,.17-.03-.31-.15-.63-.39-.93-.47-.59-1.35-1.06-2.33-1.06-.1,0-.2,.01-.3,.02l2.93-10.06c.48,1.03,1.51,1.74,2.71,1.74s2.28-.74,2.74-1.8l3.37,10.1s-.07,0-.11,0c-.97,0-1.85,.47-2.33,1.06-.26,.33-.38,.68-.39,1.03Zm-2.66,1.06c.66,.91,.39,2.07-.58,2.72-1.08-.65-1.38-1.81-.65-2.72,.18-.22,.4-.4,.65-.55,.23,.15,.43,.33,.58,.55Zm-2.99-14.43v-9.71h4.72v9.71c0,1.3-1.06,2.36-2.36,2.36s-2.36-1.06-2.36-2.36Zm-8.36-.83c1.29-1.1,2.6-3.21,2.6-5.1v-3.78h5.12v9.67l-3.4,11.64,.19,.06,.03,.08s.1-.02,.14-.03l.25,.07,.04-.14c1.02-.15,1.99,.3,2.47,.91,.23,.28,.33,.58,.32,.86-.04,.02-.07,.03-.11,.05l.1,.14c-.02,.1-.06,.2-.11,.3l.27,.16c.08-.13,.13-.27,.15-.42,.76-.3,1.63-.26,2.33,.06-.26,.16-.48,.35-.67,.58-.87,1.07-.48,2.44,.83,3.17l.1,.14s.05-.03,.08-.05c.03,.01,.06,.03,.09,.05l.16-.19c1.11-.74,1.42-2.07,.66-3.12-.16-.22-.36-.4-.57-.56,.86-.38,1.97-.4,2.88,.01l.04-.05c.03,.13,.07,.25,.14,.37l.27-.16c-.23-.4-.16-.88,.2-1.34,.46-.57,1.34-1,2.3-.92l.05,.16,.32-.11c.08,.02,.16,.03,.24,.06l.05-.15h0s.05-.15,.05-.15c-.04-.01-.07-.02-.11-.03l-3.82-11.46v-9.66h4.67v3.78c0,1.89,1.31,4,2.6,5.1,3.61,3.08,5.67,7.55,5.67,12.28,0,8.91-7.25,16.16-16.16,16.16s-16.16-7.25-16.16-16.16c0-4.72,2.07-9.2,5.67-12.28Z"/></g></g></svg>