<?xml version="1.0" encoding="UTF-8"?><svg id="uuid-9c1b0741-2f18-4b87-b47c-e5ae7e2cc195" xmlns="http://www.w3.org/2000/svg" width="92.22" height="81.1" viewBox="0 0 92.22 81.1"><defs><style>.uuid-e26d49c9-be4c-4e8e-b90c-c93f9f04c355{fill:#f07f54;}</style></defs><g id="uuid-abad145c-9463-45e2-bf70-4c8c3527743d"><rect class="uuid-e26d49c9-be4c-4e8e-b90c-c93f9f04c355" width="92.22" height="81.1"/><g><path d="M70.7,48.54H23.2c-1.75,0-3.18-1.42-3.18-3.18s1.42-3.18,3.18-3.18h47.5c1.75,0,3.18,1.43,3.18,3.18s-1.43,3.18-3.18,3.18Zm-47.5-4.85c-.92,0-1.68,.75-1.68,1.68s.75,1.68,1.68,1.68h47.5c.92,0,1.68-.75,1.68-1.68s-.75-1.68-1.68-1.68H23.2Z"/><path d="M19.6,45.3c.04-.1-.3-.3-.9-.63-.59-.33-1.46-.8-2.2-1.57-.75-.76-1.21-1.87-1.06-3.21,.13-1.34,.73-2.83,1.48-4.37l.59-1.19,.13-.25h0s0-.02,0-.02c0,0,0,0,.01,0,0,0,0,0,.01,0,.02,.01-.03-.02,.09,.05,.33,.21,.65,.4,.97,.58l1.82,.99c1.13,.61,2.08,1.18,2.73,1.76,1.33,1.14,1.48,2.24,1.72,2.2,.1,0,.18-.29,.12-.8-.06-.51-.35-1.27-1-2.03-.64-.77-1.62-1.5-2.74-2.21l-1.74-1.08c-.3-.19-.6-.38-.89-.58l-.37-.26c-.15-.1-.3-.21-.45-.32l-.92-.69-1.07,2.04-.61,1.21c-.77,1.6-1.41,3.25-1.48,4.89-.03,.82,.11,1.63,.43,2.33,.32,.71,.82,1.28,1.34,1.7,1.06,.85,2.11,1.18,2.82,1.36,.72,.17,1.14,.18,1.17,.08Z"/><path d="M78.28,34.93l-.61-1.21-1.07-2.04-.92,.69c-.15,.12-.3,.22-.45,.32l-.37,.26c-.29,.2-.59,.39-.89,.58l-1.74,1.08c-1.11,.71-2.09,1.44-2.74,2.21-.66,.76-.94,1.52-1.01,2.03-.07,.52,.02,.8,.12,.8,.24,.04,.39-1.06,1.72-2.2,.65-.58,1.6-1.15,2.73-1.76l1.82-.99c.32-.18,.65-.37,.97-.58,.12-.07,.07-.04,.09-.05,0,0,.01,0,.01,0,0,0,0,0,.01,0v.02s0,0,0,0l.13,.25,.59,1.19c.75,1.54,1.35,3.03,1.48,4.37,.15,1.34-.31,2.45-1.06,3.21-.74,.77-1.62,1.24-2.2,1.57-.6,.33-.94,.52-.9,.63,.04,.1,.45,.09,1.17-.08,.71-.19,1.76-.52,2.82-1.37,.52-.42,1.02-1,1.34-1.7,.33-.7,.47-1.52,.43-2.33-.06-1.64-.71-3.28-1.48-4.89Z"/><path d="M68.92,51.17v-3.05h-2.99v3.05h-2.98v-3.05h-3.32v3.05h-3.31v-3.05h-3.69v3.05h-3.59v-3.05h-4.19v3.05h-3.59v-3.05h-3.69v3.05h-3.31v-3.05h-3.32v3.05h-2.98v-3.05h-2.99v3.05h-3.01l-4.41,13.41h60.75l-5.51-13.41h-3.9Zm-48.73,11.52l3.16-9.63h48.2l3.95,9.63H20.19Z"/><path d="M27.06,39.55c.55,.48,.94,.64,1.01,.57,.09-.08-.14-.39-.47-.93-.33-.54-.75-1.34-.79-2.37-.06-1.02,.29-2.26,.99-3.56,.69-1.3,1.7-2.67,2.83-4.07l.23-.28,.06-.07s0,0,0,0h0s0,0,0,0c0,0,0,0,0,0l.22,.19c.33,.28,.65,.55,.98,.8,.65,.5,1.3,.95,1.91,1.36,1.22,.82,2.26,1.54,2.97,2.25,1.44,1.41,1.67,2.68,1.93,2.63,.1-.01,.17-.34,.08-.92-.09-.58-.39-1.44-1.09-2.33-.69-.9-1.75-1.78-2.9-2.67-.58-.45-1.18-.91-1.78-1.4-.3-.25-.59-.5-.88-.77l-.24-.22-.45-.44-.89-.89-1.58,1.89c-1.16,1.45-2.19,2.91-2.87,4.39-.69,1.46-1,2.98-.74,4.24,.24,1.26,.94,2.13,1.47,2.6Z"/><path d="M55.49,36.08c.26,.05,.5-1.22,1.93-2.63,.71-.71,1.75-1.43,2.97-2.25,.61-.41,1.26-.86,1.91-1.36,.33-.25,.65-.52,.98-.8l.22-.19s0,0,0,0h0s0,0,0,.01l.06,.07,.23,.28c1.13,1.4,2.13,2.77,2.83,4.07,.7,1.3,1.05,2.53,.99,3.56-.05,1.03-.47,1.83-.79,2.37-.33,.54-.56,.85-.47,.93,.08,.07,.47-.09,1.02-.57,.53-.47,1.24-1.34,1.47-2.6,.25-1.26-.05-2.78-.74-4.24-.69-1.47-1.71-2.94-2.87-4.39l-1.58-1.89-.89,.89-.45,.44-.24,.22c-.29,.26-.59,.52-.88,.77-.59,.49-1.2,.95-1.78,1.4-1.16,.89-2.22,1.77-2.9,2.67-.7,.9-1,1.75-1.09,2.33-.09,.59-.02,.91,.08,.92Z"/><path d="M40.45,35.71c1.48,1.98,2.83,3.01,3.09,2.91,.31-.11-.53-1.33-1.55-3.31-.98-1.96-2.14-4.83-.42-7.67,.82-1.42,2.09-2.71,3.15-3.96,1.08-1.25,1.92-2.49,2.34-3.58,.04-.09,.06-.18,.09-.27,.03,.09,.05,.18,.09,.27,.42,1.09,1.26,2.33,2.34,3.58,1.06,1.26,2.34,2.54,3.15,3.96,1.73,2.84,.56,5.71-.42,7.67-1.02,1.98-1.86,3.21-1.55,3.31,.26,.09,1.61-.93,3.09-2.91,.72-.99,1.46-2.24,1.83-3.73,.38-1.48,.22-3.24-.75-4.88-.95-1.64-2.36-2.96-3.49-4.15-1.15-1.18-2.05-2.24-2.62-3.2-1.15-1.9-1.24-3.25-1.61-3.24-.02,0-.04,.02-.05,.03-.02,0-.04-.03-.05-.03-.37,0-.46,1.34-1.61,3.24-.57,.95-1.47,2.02-2.62,3.2-1.12,1.18-2.53,2.5-3.49,4.15-.97,1.64-1.13,3.41-.75,4.88,.37,1.49,1.11,2.73,1.83,3.73Z"/></g></g></svg>