<?xml version="1.0" encoding="UTF-8"?><svg id="uuid-fc29a1a6-abd1-45da-9e7e-b82997e2da06" xmlns="http://www.w3.org/2000/svg" width="92.22" height="81.1" viewBox="0 0 92.22 81.1"><defs><style>.uuid-3168f0d7-a19c-436f-9f4f-5a11442e571c{fill:#4accd4;}.uuid-55da4be4-7814-4de9-94f2-81645d98c148{fill:#ededed;}</style></defs><g id="uuid-b77c0626-93fe-4034-95ba-d5a3099ca42f"><rect class="uuid-55da4be4-7814-4de9-94f2-81645d98c148" width="92.22" height="81.1"/><g><g><path class="uuid-3168f0d7-a19c-436f-9f4f-5a11442e571c" d="M72.52,42.39c2.36,3.56,4.78,7.25,4.54,10.71v.02c-.83,1.24-1.74,2.72-2.72,4.27-1.83,2.92-3.73,5.94-5.3,8.17-1.55,2.19-6.15,2.21-9.85,2.24-1.06,0-2.06,.01-2.93,.06-.3,.02-.58,.16-.78,.38-.19,.23-.28,.53-.24,.83,.11,1,.18,1.73,.25,2.43,.01,.13,.02,.25,.04,.37-1.56-1.3-3-2.46-4.42-3.59-1.39-1.12-2.79-2.24-4.31-3.5l7.31-9.21,.35,2.93c.06,.59,.59,1.03,1.18,.96,1.33-.12,2.87-.19,4.51-.28,2.61-.12,5.55-.26,8.33-.64,.37-.05,.68-.26,.85-.6,.17-.32,.16-.72-.02-1.05l-6.59-11.32,8.3-5.54c.48,.77,.99,1.54,1.51,2.34Z"/><path class="uuid-3168f0d7-a19c-436f-9f4f-5a11442e571c" d="M67.31,25.92c.08-.05,.17-.11,.25-.17-.4,2.02-.73,3.86-1.06,5.66-.31,1.73-.64,3.49-1.01,5.41l-11.57-2.06,2.42-1.69c.49-.35,.61-1.01,.28-1.51-.74-1.12-1.57-2.48-2.44-3.91-1.33-2.2-2.84-4.7-4.45-6.91-.22-.31-.59-.5-.94-.49-.37,0-.72,.2-.91,.52l-6.81,11.19-8.83-4.69c.44-.77,.88-1.57,1.32-2.42,2.02-3.77,4.11-7.68,7.28-9.11h.01c1.49,.12,3.23,.23,5.06,.35,3.44,.22,6.98,.44,9.69,.77,2.64,.32,4.85,4.36,6.63,7.59,.52,.94,1,1.81,1.47,2.57,.16,.25,.42,.43,.71,.49,.3,.06,.6,0,.85-.18,.84-.59,1.45-1,2.06-1.42Z"/><path class="uuid-3168f0d7-a19c-436f-9f4f-5a11442e571c" d="M39.67,58.62l-.16,10c-.9-.04-1.83-.06-2.79-.07-4.27-.08-8.66-.17-11.38-2.33,0-.01,0-.02-.01-.02-.55-1.36-1.24-2.93-1.96-4.59-1.31-3.03-2.8-6.48-3.75-9.06-.91-2.51,1.66-6.31,3.74-9.37,.6-.88,1.17-1.72,1.62-2.48,.16-.26,.19-.56,.12-.87-.08-.29-.28-.53-.54-.66-.93-.49-1.59-.85-2.22-1.21-.08-.04-.17-.08-.24-.13,1.98-.56,3.79-1.11,5.55-1.63,1.67-.5,3.36-1.02,5.23-1.55l3.45,11.25-2.62-1.38c-.52-.28-1.18-.08-1.47,.43-.66,1.18-1.49,2.52-2.37,3.94-1.36,2.2-2.88,4.69-4.13,7.14-.02,.02-.05,.1-.06,.12-.13,.32-.1,.7,.08,.99,.18,.3,.5,.49,.85,.52l13.05,.99Z"/></g><g><path d="M73.01,39.98c2.49,3.79,5.32,8.08,4.86,12.4-.02,.17-.07,.32-.16,.46-.06,.08-.12,.18-.19,.29-.78,1.21-1.71,2.68-2.66,4.21-1.85,2.96-3.76,6.01-5.37,8.28-2.21,3.11-7.44,3.14-11.63,3.16-.58,0-1.14,0-1.67,.01,.05,.47,.1,.88,.13,1.29,.1,.9,.18,1.75,.34,3.05,.05,.46-.18,.89-.58,1.09-.16,.1-.34,.13-.52,.13-.25,0-.5-.08-.71-.26-2.37-2.03-4.36-3.62-6.47-5.31-1.65-1.31-3.3-2.64-5.17-4.21-.26-.22-.4-.53-.4-.84,0-.24,.08-.48,.24-.67l9.61-12.13c.28-.34,.73-.49,1.15-.37,.43,.13,.73,.49,.79,.94l.52,4.51c1.11-.08,2.3-.14,3.53-.2,2.05-.1,4.34-.2,6.54-.43l-6.27-10.77c-.29-.5-.13-1.14,.35-1.47l6.92-4.61,3.2-2.13c.25-.17,.55-.22,.85-.16,.29,.07,.54,.25,.7,.52,.6,1.03,1.31,2.1,2.06,3.23Zm2.7,11.91c.24-3.46-2.19-7.15-4.54-10.71-.53-.81-1.03-1.57-1.51-2.34l-8.3,5.54,6.59,11.32c.18,.32,.19,.72,.02,1.05-.17,.34-.48,.55-.85,.6-2.78,.37-5.72,.52-8.33,.64-1.63,.08-3.17,.16-4.51,.28-.59,.07-1.12-.37-1.18-.96l-.35-2.93-7.31,9.21c1.53,1.26,2.92,2.38,4.31,3.5,1.42,1.13,2.86,2.3,4.42,3.59-.01-.12-.02-.24-.04-.37-.07-.7-.14-1.43-.25-2.43-.04-.3,.05-.6,.24-.83,.2-.23,.48-.36,.78-.38,.88-.05,1.87-.06,2.93-.06,3.7-.02,8.3-.05,9.85-2.24,1.57-2.24,3.47-5.25,5.3-8.17,.97-1.55,1.89-3.03,2.7-4.27v-.02Z"/><path d="M68.44,21.19c.37,.25,.56,.71,.47,1.14-.66,3.08-1.13,5.6-1.61,8.27-.37,2.07-.74,4.15-1.23,6.51-.06,.25-.19,.48-.38,.64-.19,.14-.43,.24-.68,.24-.07,0-.13-.01-.19-.02l-15.23-2.69c-.43-.08-.78-.41-.88-.84-.1-.43,.08-.88,.44-1.14l3.7-2.61c-.6-.95-1.24-2.01-1.91-3.1-1.05-1.73-2.2-3.64-3.42-5.44l-6.48,10.64c-.31,.49-.94,.66-1.45,.4l-6.18-3.28-4.57-2.42c-.26-.14-.46-.38-.54-.67-.08-.3-.04-.6,.12-.87,.61-1.02,1.21-2.14,1.85-3.32,2.14-4.01,4.58-8.56,8.6-10.2,.24-.1,.48-.1,.83-.05,1.43,.11,3.17,.22,4.99,.34,3.46,.22,7.03,.44,9.81,.78,3.76,.46,6.27,5.05,8.29,8.72,.28,.5,.55,1.01,.82,1.47,.41-.28,.77-.52,1.12-.76,.73-.49,1.43-.97,2.48-1.72,.37-.25,.87-.26,1.24-.01Zm-2.24,3.36c-.08,.06-.17,.12-.25,.17-.6,.42-1.21,.83-2.06,1.42-.25,.18-.55,.24-.85,.18-.29-.06-.55-.24-.71-.49-.47-.76-.95-1.63-1.47-2.57-1.78-3.23-3.99-7.27-6.63-7.6-2.7-.32-6.25-.55-9.69-.77-1.83-.12-3.57-.23-5.06-.35h-.01c-3.17,1.43-5.26,5.34-7.28,9.11-.44,.84-.88,1.65-1.32,2.42l8.83,4.69,6.81-11.19c.19-.31,.54-.52,.91-.52,.35-.01,.72,.18,.94,.49,1.61,2.21,3.11,4.71,4.45,6.91,.87,1.43,1.69,2.79,2.44,3.91,.34,.5,.22,1.17-.28,1.51l-2.42,1.69,11.57,2.05c.37-1.92,.7-3.68,1.01-5.41,.32-1.8,.66-3.64,1.06-5.66Z"/><path d="M39.51,55.32c.58,.05,1.02,.53,1.01,1.11l-.11,7.27-.07,4.9c-.01,.3-.14,.59-.36,.79-.2,.18-.47,.29-.75,.29-.02,0-.05,0-.07-.01-1.2-.08-2.48-.11-3.82-.13-4.54-.1-9.67-.19-12.97-3.03-.12-.11-.23-.24-.29-.38-.05-.12-.1-.23-.14-.36-.53-1.29-1.21-2.85-1.92-4.48-1.39-3.22-2.82-6.54-3.8-9.18-1.31-3.57,1.62-7.88,3.98-11.36,.34-.48,.65-.96,.95-1.41-.44-.24-.83-.46-1.21-.66-.76-.42-1.5-.83-2.62-1.42-.4-.2-.62-.64-.58-1.09,.05-.44,.37-.82,.81-.93,3.05-.82,5.52-1.56,8.12-2.36,1.99-.6,4-1.2,6.31-1.85,.28-.07,.55-.04,.79,.08,.25,.13,.44,.36,.54,.65l4.53,14.79c.13,.42-.01,.88-.35,1.17-.35,.28-.82,.32-1.21,.12l-4-2.11c-.56,.97-1.21,2.02-1.89,3.1-1.07,1.73-2.25,3.64-3.29,5.55l12.41,.94Zm-1.35,12.1l.16-10-13.05-.99c-.35-.02-.67-.22-.85-.52-.18-.29-.22-.66-.08-.99,.01-.02,.04-.1,.06-.12,1.25-2.45,2.78-4.94,4.13-7.14,.88-1.42,1.71-2.76,2.37-3.94,.29-.52,.95-.71,1.47-.43l2.62,1.38-3.45-11.25c-1.86,.53-3.56,1.05-5.23,1.55-1.77,.53-3.57,1.07-5.55,1.63,.07,.05,.16,.1,.24,.13,.64,.36,1.3,.72,2.22,1.21,.26,.13,.46,.37,.54,.66,.07,.3,.04,.6-.12,.87-.46,.76-1.02,1.6-1.62,2.48-2.08,3.06-4.65,6.86-3.74,9.37,.95,2.58,2.44,6.03,3.75,9.06,.72,1.66,1.41,3.23,1.96,4.59,.01,0,.01,.01,.01,.02,2.72,2.16,7.11,2.25,11.38,2.33,.96,.01,1.89,.04,2.79,.07Z"/></g></g></g></svg>