<?xml version="1.0" encoding="UTF-8"?><svg id="uuid-7203086d-c072-444a-9d9e-e0b3b93cf9aa" xmlns="http://www.w3.org/2000/svg" width="92.22" height="81.1" viewBox="0 0 92.22 81.1"><defs><style>.uuid-c3157766-ea0b-4539-aba5-fcf448e8be78{fill:#f07f54;}.uuid-2c6045b8-4cf0-47c7-a80b-ece18f2e2f27{fill:#fff;}</style></defs><g id="uuid-90547e84-16ea-478d-937d-9fca52b03a9b"><rect class="uuid-c3157766-ea0b-4539-aba5-fcf448e8be78" width="92.22" height="81.1"/><path class="uuid-2c6045b8-4cf0-47c7-a80b-ece18f2e2f27" d="M40.31,21.11l-18.91,12.73c-.77,.52-1.29,1.31-1.46,2.21-.17,.9,.03,1.81,.56,2.56,.65,.92,1.71,1.47,2.85,1.47,.7,0,1.38-.21,1.95-.6l18.91-12.73c.77-.52,1.29-1.3,1.45-2.21,.17-.9-.03-1.81-.56-2.56-1.05-1.49-3.28-1.9-4.81-.88Zm2.65,3.78l-18.91,12.73c-.53,.36-1.34,.22-1.71-.3-.18-.25-.24-.56-.19-.86,.06-.31,.23-.58,.5-.76l18.91-12.73c.21-.14,.45-.21,.7-.21,.41,0,.79,.19,1.01,.52,.18,.25,.24,.56,.19,.86-.06,.31-.23,.57-.5,.75Zm-10.6,47.55c3.55,0,6.45-2.6,6.53-5.82,.3-.84,2.52-4.93,4.57-8.54,.1-.17,.15-.36,.15-.55v-4.66c0-.62-.5-1.12-1.12-1.12h-.19v-1.13c0-.62-.5-1.12-1.12-1.12l-.05-2.23,3.09-2.22c.76-.54,1.25-1.34,1.39-2.25,.14-.9-.09-1.81-.64-2.54-1.09-1.46-3.34-1.8-4.83-.74l-4.28,3.07c-.75,.54-1.25,1.34-1.39,2.25-.14,.9,.09,1.81,.64,2.55,.1,.13,.2,.25,.32,.36v1.75c-.62,0-1.12,.51-1.12,1.12v1.13h-3.88v-1.13c0-.62-.5-1.12-1.12-1.12v-3.1s15.3-10.4,15.3-10.4c.77-.52,1.28-1.31,1.45-2.22,.16-.9-.04-1.81-.57-2.56-1.05-1.49-3.29-1.89-4.81-.86l-19.37,13.15c-.77,.52-1.28,1.3-1.45,2.21-.16,.9,.04,1.81,.57,2.56,.57,.81,1.47,1.33,2.45,1.44-.27,.2-.44,.53-.44,.89v1.13h-.21c-.62,0-1.12,.5-1.12,1.12v4.66c0,.19,.05,.39,.15,.55,2.04,3.6,4.26,7.7,4.57,8.54,.08,3.22,2.98,5.82,6.53,5.82Zm-9-15.21v-3.24h.21c.62,0,1.12-.5,1.12-1.12v-1.13h.03c.62,0,1.12-.5,1.12-1.12v-2.48c0-.41-.23-.8-.59-.99-.37-.2-.81-.17-1.15,.06l-.13,.09c-.53,.36-1.34,.22-1.71-.3-.18-.25-.25-.56-.19-.86,.06-.31,.23-.57,.5-.75l19.37-13.15c.54-.37,1.34-.23,1.71,.3,.18,.25,.25,.56,.19,.86-.06,.31-.23,.58-.5,.76l-15.81,10.73c-.31,.21-.49,.56-.49,.93v4.82c0,.62,.5,1.12,1.12,1.12v1.13c.01,.62,.52,1.12,1.14,1.12h6.13c.62,0,1.12-.5,1.12-1.12v-1.13c.62,0,1.12-.51,1.12-1.12v-3.4c0-.37-.18-.71-.49-.93-.13-.09-.22-.17-.29-.26-.19-.25-.26-.55-.22-.86,.05-.31,.22-.58,.48-.77l4.28-3.07c.53-.38,1.33-.26,1.72,.26,.19,.25,.26,.55,.22,.85-.05,.31-.22,.58-.48,.77l-3.56,2.56c-.29,.21-.47,.55-.47,.91v3.93c0,.62,.5,1.12,1.12,1.12l.05,1.13c0,.62,.5,1.12,1.12,1.12h.19v3.24c-4.71,8.32-4.71,8.92-4.71,9.25,0,2.05-1.92,3.71-4.29,3.71s-4.29-1.66-4.29-3.71c0-.33,0-.93-4.71-9.25Zm-.14-26.13c.69,0,1.36-.2,1.94-.58l18.4-12.25c.77-.52,1.29-1.3,1.47-2.2,.17-.9-.02-1.81-.55-2.56-1.04-1.5-3.27-1.92-4.8-.9l-18.4,12.25c-.77,.52-1.3,1.3-1.47,2.2-.17,.9,.02,1.81,.55,2.56,.65,.93,1.72,1.49,2.86,1.49Zm-.7-4.38l18.4-12.25c.2-.14,.44-.21,.69-.21,.41,0,.79,.2,1.01,.52,.18,.25,.24,.56,.18,.86-.06,.31-.24,.57-.5,.75l-18.4,12.25c-.55,.37-1.35,.21-1.71-.31-.17-.25-.24-.56-.18-.86,.06-.31,.24-.57,.5-.75Zm.62-3.97c.71,0,1.39-.21,1.97-.6l7.74-5.26c.77-.52,1.28-1.31,1.44-2.22,.16-.9-.04-1.81-.57-2.56-1.05-1.48-3.3-1.88-4.81-.85l-7.74,5.26c-.77,.52-1.28,1.31-1.44,2.21-.16,.9,.04,1.81,.57,2.56,.65,.91,1.71,1.46,2.84,1.46Zm-.71-4.37l7.74-5.26c.21-.14,.45-.22,.7-.22,.4,0,.78,.19,1.01,.51,.18,.25,.25,.56,.19,.86-.06,.31-.23,.58-.5,.76l-7.74,5.26c-.54,.37-1.34,.22-1.71-.3-.18-.25-.25-.56-.19-.86,.06-.31,.23-.58,.5-.76Zm49.47,33.38V23.74c0-4.92-1.51-7.52-4.48-7.76-.83-4.55-3.89-5.3-5.72-5.32-.06,0-.11,0-.17,0-1.84,.04-4.83,.83-5.65,5.32-2.97,.23-4.48,2.84-4.48,7.76v28.03c-.54,.08-.96,.55-.96,1.11v4.66c0,.19,.05,.38,.15,.55,0,0,.49,.86,1.15,2.04,.5,2.9,1.54,4.82,3.01,5.61,.26,.54,.37,.78,.41,.89,.08,3.15,2.89,5.73,6.36,5.81,.04,0,.07,0,.11,0h.07s.07,0,.11,0c3.46-.08,6.27-2.66,6.35-5.81,.04-.11,.14-.35,.41-.89,1.48-.79,2.51-2.71,3.01-5.61,.66-1.18,1.14-2.04,1.15-2.04,.1-.17,.15-.36,.15-.55v-4.66c0-.56-.42-1.03-.96-1.11Zm-1.29,5.47c-.21,.37-.61,1.09-1.1,1.97-.06,.11-.11,.24-.13,.37-.38,2.34-1.14,3.93-2.03,4.25-.27,.1-.49,.3-.62,.55-.75,1.48-.83,1.78-.83,2.11,0,2.02-1.9,3.68-4.23,3.71h-.05c-2.33-.02-4.23-1.69-4.23-3.71,0-.32-.08-.64-.82-2.11-.13-.26-.35-.46-.63-.55-.89-.32-1.65-1.91-2.03-4.25-.02-.13-.06-.25-.13-.36-.49-.88-.9-1.6-1.1-1.97v-3.25c.54-.08,.96-.55,.96-1.11V23.74c0-3.77,.85-5.53,2.69-5.53,.13,0,.25,.02,.37,.03,.3,.04,.61-.04,.85-.23,.24-.19,.39-.47,.42-.77,.28-2.89,1.47-4.3,3.65-4.33,.02,0,.03,0,.05,0,2.18,.02,3.38,1.44,3.65,4.33,.03,.3,.18,.58,.42,.77,.24,.19,.54,.28,.85,.23,.12-.02,.24-.03,.37-.03,1.83,0,2.69,1.76,2.69,5.53v29.14c0,.57,.42,1.03,.96,1.11v3.25Zm-3.65-38.01c-.22,0-.53,.07-.82,.41l-.11,.14v29.75c0,1.07-.1,2.14-.3,3.16l-.11,.57h2.96V23.74c0-2.99-.54-4.51-1.62-4.51Zm.65,33.06h-.83c.14-.9,.21-1.83,.21-2.77V20.2c.21,.11,.62,1.15,.62,3.54v28.55Zm-5.98-38.34c-2.36,.01-2.63,2.63-2.63,4.59v4.34c.01,.33,.01,.63,.01,.86v26.45c.04,1.07,.18,2.07,.42,2.97,.13,.49,.57,.82,1.07,.82h2.24c.5,0,.94-.34,1.07-.83,.24-.9,.38-1.9,.43-3.01V23.74c0-.22,0-.52,.01-.89v-4.3c0-1.97-.27-4.58-2.64-4.59Zm.41,36.15c-.02,.58-.08,1.14-.17,1.66h-.46c-.09-.52-.15-1.06-.17-1.62V23.74c0-.24,0-.56-.01-.89v-4.3c0-1.93,.35-2.36,.32-2.37,.02,0,.12-.03,.12-.03,0,0,.38,.39,.38,2.4v4.26c-.01,.36-.01,.69-.01,.93v26.37Zm-4.79-.58V19.78l-.11-.14c-.29-.34-.61-.41-.82-.41-1.07,0-1.62,1.52-1.62,4.51v29.52h2.96l-.11-.58c-.2-1.01-.3-2.08-.3-3.16Zm-1.59,2.77V23.74c0-2.2,.35-3.26,.62-3.45v29.23c0,.94,.07,1.87,.21,2.77h-.83Z"/></g></svg>