<?xml version="1.0" encoding="UTF-8"?><svg id="uuid-55049851-c3a8-438f-8e0f-395d47fb4eea" xmlns="http://www.w3.org/2000/svg" width="92.22" height="81.1" viewBox="0 0 92.22 81.1"><defs><style>.uuid-29a9539c-2a1e-4214-9f94-7c88949e260e{fill:#f07f54;}.uuid-3ffe8e05-ff96-46e9-be1f-85518c2f2100{fill:#4accd4;}</style></defs><g id="uuid-a0164f05-313d-4a03-aa1d-3ad9d7b53b0d"><rect class="uuid-3ffe8e05-ff96-46e9-be1f-85518c2f2100" width="92.22" height="81.1"/><g><g><g><rect class="uuid-29a9539c-2a1e-4214-9f94-7c88949e260e" x="38.57" y="38.67" width="1.38" height="5.6"/><rect class="uuid-29a9539c-2a1e-4214-9f94-7c88949e260e" x="34.04" y="38.67" width="1.38" height="5.6"/><rect class="uuid-29a9539c-2a1e-4214-9f94-7c88949e260e" x="29.51" y="38.67" width="1.37" height="5.6"/><rect class="uuid-29a9539c-2a1e-4214-9f94-7c88949e260e" x="29.51" y="25.55" width="1.37" height="5.6"/><rect class="uuid-29a9539c-2a1e-4214-9f94-7c88949e260e" x="24.98" y="38.67" width="1.37" height="5.6"/><rect class="uuid-29a9539c-2a1e-4214-9f94-7c88949e260e" x="24.98" y="25.55" width="1.37" height="5.6"/><rect class="uuid-29a9539c-2a1e-4214-9f94-7c88949e260e" x="20.44" y="38.67" width="1.38" height="5.6"/><rect class="uuid-29a9539c-2a1e-4214-9f94-7c88949e260e" x="20.44" y="25.55" width="1.38" height="5.6"/><rect class="uuid-29a9539c-2a1e-4214-9f94-7c88949e260e" x="15.9" y="38.67" width="1.38" height="5.6"/><rect class="uuid-29a9539c-2a1e-4214-9f94-7c88949e260e" x="15.9" y="25.55" width="1.38" height="5.6"/><rect class="uuid-29a9539c-2a1e-4214-9f94-7c88949e260e" x="15.9" y="12.43" width="1.38" height="5.6"/></g><g><path d="M44.25,37.54v6.31c0,.32-.26,.57-.57,.57h-1.13v1.49c0,.31-.26,.57-.57,.57H12.04c-.32,0-.57-.26-.57-.57v-10.44c0-.31,.25-.57,.57-.57h29.92c.31,0,.57,.26,.57,.57v1.49h1.13c.31,0,.57,.26,.57,.57Zm-1.15,5.73v-5.16h-1.13c-.31,0-.57-.25-.57-.57v-1.49H12.62v9.29h28.78v-1.49c0-.31,.26-.57,.57-.57h1.13Z"/><path d="M44.25,24.42v6.31c0,.32-.26,.57-.57,.57h-1.13v1.49c0,.32-.26,.57-.57,.57H12.04c-.32,0-.57-.25-.57-.57v-10.43c0-.32,.25-.57,.57-.57h29.92c.31,0,.57,.25,.57,.57v1.49h1.13c.31,0,.57,.26,.57,.57Zm-1.15,5.73v-5.16h-1.13c-.31,0-.57-.25-.57-.57v-1.49H12.62v9.29h28.78v-1.49c0-.31,.26-.57,.57-.57h1.13Z"/><path d="M44.25,11.3v6.32c0,.31-.26,.57-.57,.57h-1.13v1.49c0,.32-.26,.57-.57,.57H12.04c-.32,0-.57-.25-.57-.57V9.24c0-.32,.25-.57,.57-.57h29.92c.31,0,.57,.25,.57,.57v1.49h1.13c.31,0,.57,.26,.57,.57Zm-1.15,5.74v-5.17h-1.13c-.31,0-.57-.25-.57-.57v-1.49H12.62v9.29h28.78v-1.49c0-.32,.26-.57,.57-.57h1.13Z"/><path d="M40.24,37.33v6.74c0,.31-.26,.57-.57,.57h-2.53c-.31,0-.57-.26-.57-.57v-6.74c0-.31,.26-.57,.57-.57h2.53c.31,0,.57,.26,.57,.57Zm-1.15,6.17v-5.6h-1.38v5.6h1.38Z"/><path d="M35.7,37.33v6.74c0,.31-.26,.57-.57,.57h-2.53c-.31,0-.57-.26-.57-.57v-6.74c0-.31,.26-.57,.57-.57h2.53c.31,0,.57,.26,.57,.57Zm-1.15,6.17v-5.6h-1.38v5.6h1.38Z"/><path d="M31.17,37.33v6.74c0,.31-.25,.57-.57,.57h-2.52c-.31,0-.57-.26-.57-.57v-6.74c0-.31,.26-.57,.57-.57h2.52c.32,0,.57,.26,.57,.57Zm-1.15,6.17v-5.6h-1.37v5.6h1.37Z"/><path d="M31.17,24.21v6.74c0,.31-.25,.57-.57,.57h-2.52c-.31,0-.57-.26-.57-.57v-6.74c0-.31,.26-.57,.57-.57h2.52c.32,0,.57,.26,.57,.57Zm-1.15,6.17v-5.6h-1.37v5.6h1.37Z"/><path d="M26.63,37.33v6.74c0,.31-.25,.57-.57,.57h-2.52c-.32,0-.57-.26-.57-.57v-6.74c0-.31,.25-.57,.57-.57h2.52c.32,0,.57,.26,.57,.57Zm-1.15,6.17v-5.6h-1.37v5.6h1.37Z"/><path d="M26.63,24.21v6.74c0,.31-.25,.57-.57,.57h-2.52c-.32,0-.57-.26-.57-.57v-6.74c0-.31,.25-.57,.57-.57h2.52c.32,0,.57,.26,.57,.57Zm-1.15,6.17v-5.6h-1.37v5.6h1.37Z"/><path d="M22.1,37.33v6.74c0,.31-.25,.57-.57,.57h-2.53c-.31,0-.57-.26-.57-.57v-6.74c0-.31,.26-.57,.57-.57h2.53c.32,0,.57,.26,.57,.57Zm-1.15,6.17v-5.6h-1.38v5.6h1.38Z"/><path d="M22.1,24.21v6.74c0,.31-.25,.57-.57,.57h-2.53c-.31,0-.57-.26-.57-.57v-6.74c0-.31,.26-.57,.57-.57h2.53c.32,0,.57,.26,.57,.57Zm-1.15,6.17v-5.6h-1.38v5.6h1.38Z"/><path d="M17.57,37.33v6.74c0,.31-.26,.57-.57,.57h-2.53c-.31,0-.57-.26-.57-.57v-6.74c0-.31,.26-.57,.57-.57h2.53c.31,0,.57,.26,.57,.57Zm-1.15,6.17v-5.6h-1.38v5.6h1.38Z"/><path d="M17.57,24.21v6.74c0,.31-.26,.57-.57,.57h-2.53c-.31,0-.57-.26-.57-.57v-6.74c0-.31,.26-.57,.57-.57h2.53c.31,0,.57,.26,.57,.57Zm-1.15,6.17v-5.6h-1.38v5.6h1.38Z"/><path d="M17.57,11.09v6.74c0,.31-.26,.57-.57,.57h-2.53c-.31,0-.57-.26-.57-.57v-6.74c0-.31,.26-.57,.57-.57h2.53c.31,0,.57,.26,.57,.57Zm-1.15,6.17v-5.6h-1.38v5.6h1.38Z"/></g></g><g><path class="uuid-29a9539c-2a1e-4214-9f94-7c88949e260e" d="M77.98,56.69c0,5.61-4.56,10.17-10.17,10.17s-10.17-4.57-10.17-10.17c0-4.94,7.81-21.7,10.17-26.67,2.37,4.98,10.17,21.74,10.17,26.67Z"/><g><path d="M80.23,67.82c.39,.12,.61,.55,.48,.95-.72,2.19-2.76,3.66-5.07,3.66-1.77,0-3.37-.86-4.35-2.25-.98,1.39-2.59,2.25-4.35,2.25s-3.37-.86-4.35-2.25c-.99,1.39-2.59,2.25-4.35,2.25-2.3,0-4.34-1.47-5.07-3.66-.13-.39,.08-.82,.48-.95,.39-.13,.81,.08,.95,.47,.52,1.58,1.98,2.64,3.64,2.64s3.12-1.06,3.64-2.64c.11-.3,.39-.51,.72-.51s.61,.21,.71,.51c.53,1.58,1.98,2.64,3.64,2.64s3.12-1.06,3.64-2.64c.11-.3,.39-.51,.72-.51s.61,.21,.71,.51c.53,1.58,1.99,2.64,3.64,2.64s3.13-1.06,3.64-2.64c.13-.39,.55-.6,.95-.47Z"/><path d="M80.1,71.66c.39,.13,.61,.56,.48,.95-.72,2.19-2.76,3.66-5.07,3.66-1.76,0-3.37-.86-4.35-2.25-.98,1.39-2.59,2.25-4.35,2.25s-3.37-.86-4.35-2.25c-.98,1.39-2.59,2.25-4.35,2.25-2.3,0-4.34-1.47-5.07-3.66-.13-.39,.08-.82,.48-.95,.39-.12,.81,.09,.95,.48,.52,1.58,1.98,2.63,3.64,2.63s3.12-1.05,3.64-2.63c.11-.3,.39-.51,.72-.51s.61,.21,.71,.51c.53,1.58,1.98,2.63,3.64,2.63s3.12-1.05,3.64-2.63c.11-.3,.39-.51,.72-.51s.61,.21,.71,.51c.53,1.58,1.99,2.63,3.64,2.63s3.13-1.05,3.64-2.63c.13-.39,.55-.6,.95-.48Z"/><path d="M78.55,55.87c0,6.44-5.23,11.68-11.67,11.68s-11.67-5.24-11.67-11.68,10.55-27.81,11-28.73c.12-.25,.39-.42,.67-.42s.55,.16,.67,.42c.45,.92,11,22.59,11,28.73Zm-11.67,10.17c5.61,0,10.17-4.57,10.17-10.17,0-4.94-7.81-21.7-10.17-26.67-2.37,4.98-10.17,21.74-10.17,26.67,0,5.61,4.57,10.17,10.17,10.17Z"/><path d="M75.04,51.54c.53,1.7,.78,2.96,.78,3.84,0,2.99-1.47,5.76-3.95,7.43-.12,.08-.27,.12-.41,.12-.25,0-.48-.12-.63-.33-.23-.35-.14-.81,.21-1.04,2.06-1.39,3.28-3.7,3.28-6.19,0-.49-.12-1.48-.72-3.41-.12-.39,.1-.81,.49-.94,.4-.12,.81,.11,.94,.5Z"/></g></g></g></g></svg>