<?xml version="1.0" encoding="UTF-8"?><svg id="uuid-884d9102-5ffc-4422-9e55-71a40adb0096" xmlns="http://www.w3.org/2000/svg" width="92.22" height="81.1" viewBox="0 0 92.22 81.1"><defs><style>.uuid-d2c3eb02-031c-4e85-ac34-2d56113cced2{fill:#f07f54;}.uuid-46033140-266f-4ba0-b529-6783e18c7b8f{fill:#4accd4;}</style></defs><g id="uuid-066c2688-e090-4187-bb9e-49b8fd26d0f0"><rect class="uuid-46033140-266f-4ba0-b529-6783e18c7b8f" width="92.22" height="81.1"/><g><g><g><path class="uuid-d2c3eb02-031c-4e85-ac34-2d56113cced2" d="M36.09,38.72v7.62c-.15,.86-5.09,2.91-12.31,2.91s-12.16-2.05-12.31-2.9v-7.63c2.7,1.43,8.48,1.86,12.31,1.86s9.6-.43,12.31-1.86Z"/><path class="uuid-d2c3eb02-031c-4e85-ac34-2d56113cced2" d="M36.09,13.33v8.04c-.23,.77-4.64,2.21-12.31,2.21s-12.09-1.44-12.31-2.2V13.33c2.7,1.42,8.48,1.85,12.31,1.85s9.6-.43,12.31-1.85Z"/><path class="uuid-d2c3eb02-031c-4e85-ac34-2d56113cced2" d="M26.06,34.1c0,1.06-1.02,1.92-2.27,1.92s-2.27-.86-2.27-1.92c0-.73,1.17-3.27,2.27-5.36,1.09,2.09,2.27,4.63,2.27,5.36Z"/></g><g><path d="M36.66,10.33V45.53c0,2.58-7.27,4.38-13.79,4.38s-13.79-1.8-13.79-4.38V10.33c0-.29,.16-.54,.41-.66,1.56-1.83,7.72-2.66,13.38-2.66s11.81,.82,13.37,2.66c.24,.12,.42,.37,.42,.66Zm-1.48,35.19v-7.62c-2.71,1.43-8.49,1.86-12.31,1.86s-9.61-.43-12.31-1.86v7.63c.15,.86,5.08,2.9,12.31,2.9s12.16-2.05,12.31-2.91Zm0-9.45v-13.68c-2.71,1.43-8.49,1.86-12.31,1.86s-9.61-.43-12.31-1.86v13.69c.21,.76,4.62,2.19,12.29,2.19h.02c7.66,0,12.08-1.43,12.31-2.2Zm0-15.52V12.52c-2.71,1.42-8.49,1.85-12.31,1.85s-9.61-.43-12.31-1.85v8.04c.21,.76,4.63,2.2,12.31,2.2s12.08-1.43,12.31-2.21Zm-.02-9.85s0,0,0-.02c-.47-.89-5.13-2.18-12.28-2.18s-11.81,1.3-12.29,2.18c0,0,0,.02,0,.02,.25,.77,4.66,2.18,12.3,2.18s12.01-1.41,12.29-2.18Z"/><path d="M26.62,33.28c0,1.87-1.69,3.41-3.76,3.41s-3.77-1.53-3.77-3.41c0-1.58,2.59-6.35,3.11-7.29,.13-.24,.39-.35,.65-.35s.51,.11,.64,.35c.52,.94,3.11,5.7,3.11,7.29Zm-3.76,1.92c1.26,0,2.27-.86,2.27-1.92,0-.73-1.18-3.27-2.27-5.36-1.1,2.09-2.27,4.63-2.27,5.36,0,1.06,1.02,1.92,2.27,1.92Z"/></g></g><g><g><path class="uuid-d2c3eb02-031c-4e85-ac34-2d56113cced2" d="M44.81,42.03l-.64,4.76,3.29,6.07,2.07-.49,.52-5.52c.02-.28,.23-.5,.5-.56l12.5-2.8,.15-1.24-13.01,2.9c-.24,.06-.5-.04-.64-.23l-2.67-3.52-2.07,.62Z"/><path class="uuid-d2c3eb02-031c-4e85-ac34-2d56113cced2" d="M50.74,73.27v3.43h32.27v-3.43H50.74Z"/><path class="uuid-d2c3eb02-031c-4e85-ac34-2d56113cced2" d="M84.22,37.55l-12.91,2.89c.08,.17,.13,.35,.18,.53,0,.02,.01,.04,.02,.06,.04,.15,.07,.3,.09,.46,0,.03,.01,.05,.01,.08l12.9-2.88-.3-1.14Z"/></g><path d="M44.4,40.75c.04-.25,.21-.45,.45-.53l2.89-.86c.25-.08,.53,.01,.69,.23l2.69,3.54,13.1-2.92c.52-1.74,2.13-3.01,4.04-3.01,1.25,0,2.36,.55,3.13,1.4l13.96-3.12c.34-.08,.67,.13,.76,.45l.63,2.37c.04,.17,.02,.35-.07,.5-.09,.15-.23,.25-.4,.29l-.13,.03v16.84c0,.35-.28,.64-.64,.64s-.63-.28-.63-.64v-16.55l-12.28,2.75,3.48,29.14h8.4c.35,0,.64,.28,.64,.64v4.71c0,.35-.28,.64-.64,.64H50.9c-.35,0-.64-.28-.64-.64v-4.71c0-.35,.29-.64,.64-.64h9.54l3.25-27.16-11.61,2.6-.52,5.51c-.03,.27-.22,.5-.49,.56l-1.05,.25v11.6c0,.35-.28,.64-.64,.64s-.64-.28-.64-.64v-11.3l-.67,.16s-.1,.02-.15,.02c-.23,0-.45-.13-.56-.33l-3.63-6.68c-.06-.12-.09-.25-.07-.39l.72-5.37Zm3.86,11.4l2.07-.49,.52-5.52c.02-.28,.23-.5,.5-.56l12.5-2.8,.15-1.24-13.01,2.9c-.24,.06-.5-.04-.64-.23l-2.67-3.52-2.07,.62-.64,4.76,3.29,6.07Zm35.55,23.85v-3.43H51.54v3.43h32.27Zm-9.04-4.71l-.89-7.41-11.8,4.39-.36,3.02h13.05Zm-1.78-8.43l-9.54-5.98-1.2,9.98,10.73-3.99Zm-.52-10.81l-.96-7.98c-.77,.95-1.95,1.55-3.26,1.55s-2.49-.61-3.26-1.56l-1.29,10.74,8.77-2.75Zm.16,1.29l-8.28,2.6,9.29,5.83-1.01-8.43Zm-7.22-11.24c.01,.06,.04,.13,.06,.19,.06,.19,.14,.38,.24,.56,.25,.45,.62,.82,1.06,1.08,.44,.27,.95,.42,1.49,.42,1.54,0,2.8-1.2,2.92-2.71h0c0-.06,0-.11,.02-.23,0-.18-.02-.35-.05-.52-.01-.07-.04-.14-.06-.21-.02-.09-.05-.18-.08-.26-.04-.09-.08-.18-.12-.28-.02-.04-.04-.08-.06-.12-.06-.11-.13-.23-.21-.33h0c-.54-.74-1.39-1.22-2.36-1.22-1.62,0-2.94,1.32-2.94,2.94,0,.17,.02,.33,.05,.5,.01,.06,.02,.13,.04,.19Zm6.9-1.82s.01,.04,.02,.06c.04,.15,.07,.3,.09,.46,0,.03,.01,.05,.01,.08l12.9-2.88-.3-1.14-12.91,2.89c.08,.17,.13,.35,.18,.53Z"/></g></g></g></svg>