<?xml version="1.0" encoding="UTF-8"?><svg id="uuid-ae698d9b-7b8a-4d00-b67b-a95a326c0c4b" xmlns="http://www.w3.org/2000/svg" width="92.22" height="81.1" viewBox="0 0 92.22 81.1"><defs><style>.uuid-1be7c6aa-935e-41d5-aa9f-6093c704dd0f{fill:#f07f54;}.uuid-bb545f93-259e-42e8-be72-f08ad310db0c{fill:#4accd4;}.uuid-88929715-6176-450e-9912-76d1b9b8d3fe{fill:#6ccc41;}</style></defs><g id="uuid-95561182-3cf7-4def-b9af-57d675a18819"><rect class="uuid-1be7c6aa-935e-41d5-aa9f-6093c704dd0f" width="92.22" height="81.1"/><g><g><g><polygon class="uuid-bb545f93-259e-42e8-be72-f08ad310db0c" points="41.42 15.11 41.42 16.97 23.93 16.97 23.93 15.11 26.75 15.11 28.3 15.11 37.06 15.11 38.61 15.11 41.42 15.11"/><rect class="uuid-bb545f93-259e-42e8-be72-f08ad310db0c" x="37.61" y="9.62" width=".45" height="4.39"/><rect class="uuid-bb545f93-259e-42e8-be72-f08ad310db0c" x="31.92" y="32.81" width="1.53" height="6.07"/><rect class="uuid-bb545f93-259e-42e8-be72-f08ad310db0c" x="27.3" y="9.62" width=".45" height="4.39"/></g><g><path d="M42.53,14.56v2.97c0,.3-.25,.55-.56,.55H23.38c-.3,0-.55-.25-.55-.55v-2.97c0-.3,.25-.55,.55-.55h2.81v-4.94c0-.31,.25-.55,.55-.55h1.55c.31,0,.55,.25,.55,.55v4.94h7.65v-4.94c0-.31,.25-.55,.55-.55h1.56c.31,0,.55,.25,.55,.55v4.94h2.81c.31,0,.56,.25,.56,.55Zm-1.11,2.42v-1.86H23.93v1.86h17.49Zm-3.36-2.97v-4.39h-.45v4.39h.45Zm-10.31,0v-4.39h-.45v4.39h.45Z"/><path d="M42.09,19.33v6.58c0,.06-.01,.13-.03,.19l-2.29,6.35c-.07,.22-.29,.37-.52,.37h-4.7v6.62c0,.3-.25,.55-.55,.55h-2.64c-.31,0-.55-.25-.55-.55v-6.62h-4.7c-.23,0-.44-.15-.52-.37l-2.29-6.35c-.02-.06-.03-.13-.03-.19v-6.58c0-.3,.25-.55,.55-.55h17.72c.31,0,.55,.25,.55,.55Zm-1.11,6.49v-5.93H24.37v5.93l2.12,5.89h12.38l2.12-5.89Zm-7.54,13.07v-6.07h-1.53v6.07h1.53Z"/><path d="M37.05,23.63c.74,0,1.34,.6,1.34,1.34s-.6,1.33-1.34,1.33-1.33-.6-1.33-1.33,.6-1.34,1.33-1.34Zm.23,1.34c0-.13-.1-.23-.23-.23s-.22,.1-.22,.23,.1,.22,.22,.22,.23-.1,.23-.22Z"/><path d="M28.3,23.63c.74,0,1.34,.6,1.34,1.34s-.6,1.33-1.34,1.33-1.33-.6-1.33-1.33,.6-1.34,1.33-1.34Zm.23,1.34c0-.13-.1-.23-.23-.23s-.22,.1-.22,.23,.1,.22,.22,.22,.23-.1,.23-.22Z"/></g></g><g><g><polygon class="uuid-88929715-6176-450e-9912-76d1b9b8d3fe" points="67.89 15.11 67.89 16.97 50.4 16.97 50.4 15.11 53.22 15.11 54.77 15.11 63.52 15.11 65.08 15.11 67.89 15.11"/><rect class="uuid-88929715-6176-450e-9912-76d1b9b8d3fe" x="64.08" y="9.62" width=".45" height="4.39"/><rect class="uuid-88929715-6176-450e-9912-76d1b9b8d3fe" x="58.39" y="32.81" width="1.53" height="6.07"/><rect class="uuid-88929715-6176-450e-9912-76d1b9b8d3fe" x="53.77" y="9.62" width=".45" height="4.39"/></g><g><path d="M69,14.56v2.97c0,.3-.25,.55-.56,.55h-18.6c-.3,0-.55-.25-.55-.55v-2.97c0-.3,.25-.55,.55-.55h2.81v-4.94c0-.31,.25-.55,.55-.55h1.55c.31,0,.55,.25,.55,.55v4.94h7.65v-4.94c0-.31,.25-.55,.55-.55h1.56c.31,0,.55,.25,.55,.55v4.94h2.81c.31,0,.56,.25,.56,.55Zm-1.11,2.42v-1.86h-17.49v1.86h17.49Zm-3.36-2.97v-4.39h-.45v4.39h.45Zm-10.31,0v-4.39h-.45v4.39h.45Z"/><path d="M68.56,19.33v6.58c0,.06-.01,.13-.03,.19l-2.29,6.35c-.07,.22-.29,.37-.52,.37h-4.7v6.62c0,.3-.25,.55-.55,.55h-2.64c-.31,0-.55-.25-.55-.55v-6.62h-4.7c-.23,0-.44-.15-.52-.37l-2.29-6.35c-.02-.06-.03-.13-.03-.19v-6.58c0-.3,.25-.55,.55-.55h17.72c.31,0,.55,.25,.55,.55Zm-1.11,6.49v-5.93h-16.61v5.93l2.12,5.89h12.38l2.12-5.89Zm-7.54,13.07v-6.07h-1.53v6.07h1.53Z"/><path d="M63.52,23.63c.74,0,1.34,.6,1.34,1.34s-.6,1.33-1.34,1.33-1.33-.6-1.33-1.33,.6-1.34,1.33-1.34Zm.23,1.34c0-.13-.1-.23-.23-.23s-.22,.1-.22,.23,.1,.22,.22,.22,.23-.1,.23-.22Z"/><path d="M54.77,23.63c.74,0,1.34,.6,1.34,1.34s-.6,1.33-1.34,1.33-1.33-.6-1.33-1.33,.6-1.34,1.33-1.34Zm.23,1.34c0-.13-.1-.23-.23-.23s-.22,.1-.22,.23,.1,.22,.22,.22,.23-.1,.23-.22Z"/></g></g><g><g><polygon class="uuid-88929715-6176-450e-9912-76d1b9b8d3fe" points="41.42 49.54 41.42 51.4 23.93 51.4 23.93 49.54 26.75 49.54 28.3 49.54 37.06 49.54 38.61 49.54 41.42 49.54"/><rect class="uuid-88929715-6176-450e-9912-76d1b9b8d3fe" x="37.61" y="44.05" width=".45" height="4.38"/><rect class="uuid-88929715-6176-450e-9912-76d1b9b8d3fe" x="31.92" y="67.24" width="1.53" height="6.07"/><rect class="uuid-88929715-6176-450e-9912-76d1b9b8d3fe" x="27.3" y="44.05" width=".45" height="4.38"/></g><g><path d="M42.53,48.99v2.97c0,.3-.25,.55-.56,.55H23.38c-.3,0-.55-.25-.55-.55v-2.97c0-.3,.25-.55,.55-.55h2.81v-4.94c0-.31,.25-.55,.55-.55h1.55c.31,0,.55,.25,.55,.55v4.94h7.65v-4.94c0-.31,.25-.55,.55-.55h1.56c.31,0,.55,.25,.55,.55v4.94h2.81c.31,0,.56,.25,.56,.55Zm-1.11,2.42v-1.86H23.93v1.86h17.49Zm-3.36-2.97v-4.39h-.45v4.39h.45Zm-10.31,0v-4.39h-.45v4.39h.45Z"/><path d="M42.09,53.76v6.58c0,.06-.01,.13-.03,.19l-2.29,6.35c-.07,.22-.29,.37-.52,.37h-4.7v6.62c0,.3-.25,.55-.55,.55h-2.64c-.31,0-.55-.25-.55-.55v-6.62h-4.7c-.23,0-.44-.15-.52-.37l-2.29-6.35c-.02-.06-.03-.13-.03-.19v-6.58c0-.3,.25-.55,.55-.55h17.72c.31,0,.55,.25,.55,.55Zm-1.11,6.49v-5.93H24.37v5.93l2.12,5.89h12.38l2.12-5.89Zm-7.54,13.07v-6.07h-1.53v6.07h1.53Z"/><path d="M37.05,58.06c.74,0,1.34,.6,1.34,1.34s-.6,1.33-1.34,1.33-1.33-.6-1.33-1.33,.6-1.34,1.33-1.34Zm.23,1.34c0-.13-.1-.23-.23-.23s-.22,.1-.22,.23,.1,.22,.22,.22,.23-.1,.23-.22Z"/><path d="M28.3,58.06c.74,0,1.34,.6,1.34,1.34s-.6,1.33-1.34,1.33-1.33-.6-1.33-1.33,.6-1.34,1.33-1.34Zm.23,1.34c0-.13-.1-.23-.23-.23s-.22,.1-.22,.23,.1,.22,.22,.22,.23-.1,.23-.22Z"/></g></g><g><g><polygon class="uuid-bb545f93-259e-42e8-be72-f08ad310db0c" points="67.89 49.54 67.89 51.4 50.4 51.4 50.4 49.54 53.22 49.54 54.77 49.54 63.52 49.54 65.08 49.54 67.89 49.54"/><rect class="uuid-bb545f93-259e-42e8-be72-f08ad310db0c" x="64.08" y="44.05" width=".45" height="4.38"/><rect class="uuid-bb545f93-259e-42e8-be72-f08ad310db0c" x="58.39" y="67.24" width="1.53" height="6.07"/><rect class="uuid-bb545f93-259e-42e8-be72-f08ad310db0c" x="53.77" y="44.05" width=".45" height="4.38"/></g><g><path d="M69,48.99v2.97c0,.3-.25,.55-.56,.55h-18.6c-.3,0-.55-.25-.55-.55v-2.97c0-.3,.25-.55,.55-.55h2.81v-4.94c0-.31,.25-.55,.55-.55h1.55c.31,0,.55,.25,.55,.55v4.94h7.65v-4.94c0-.31,.25-.55,.55-.55h1.56c.31,0,.55,.25,.55,.55v4.94h2.81c.31,0,.56,.25,.56,.55Zm-1.11,2.42v-1.86h-17.49v1.86h17.49Zm-3.36-2.97v-4.39h-.45v4.39h.45Zm-10.31,0v-4.39h-.45v4.39h.45Z"/><path d="M68.56,53.76v6.58c0,.06-.01,.13-.03,.19l-2.29,6.35c-.07,.22-.29,.37-.52,.37h-4.7v6.62c0,.3-.25,.55-.55,.55h-2.64c-.31,0-.55-.25-.55-.55v-6.62h-4.7c-.23,0-.44-.15-.52-.37l-2.29-6.35c-.02-.06-.03-.13-.03-.19v-6.58c0-.3,.25-.55,.55-.55h17.72c.31,0,.55,.25,.55,.55Zm-1.11,6.49v-5.93h-16.61v5.93l2.12,5.89h12.38l2.12-5.89Zm-7.54,13.07v-6.07h-1.53v6.07h1.53Z"/><path d="M63.52,58.06c.74,0,1.34,.6,1.34,1.34s-.6,1.33-1.34,1.33-1.33-.6-1.33-1.33,.6-1.34,1.33-1.34Zm.23,1.34c0-.13-.1-.23-.23-.23s-.22,.1-.22,.23,.1,.22,.22,.22,.23-.1,.23-.22Z"/><path d="M54.77,58.06c.74,0,1.34,.6,1.34,1.34s-.6,1.33-1.34,1.33-1.33-.6-1.33-1.33,.6-1.34,1.33-1.34Zm.23,1.34c0-.13-.1-.23-.23-.23s-.22,.1-.22,.23,.1,.22,.22,.22,.23-.1,.23-.22Z"/></g></g></g></g></svg>